<?xml version="1.0" standalone="no"?>
<!DOCTYPE svg PUBLIC "-//W3C//DTD SVG 20010904//EN"
 "http://www.w3.org/TR/2001/REC-SVG-20010904/DTD/svg10.dtd">
<svg version="1.0" xmlns="http://www.w3.org/2000/svg"
 width="1080.000000pt" height="1080.000000pt" viewBox="0 0 1080.000000 1080.000000"
 preserveAspectRatio="xMidYMid meet">

<g transform="translate(0.000000,1080.000000) scale(0.100000,-0.100000)"
fill="#000000" stroke="none">
<path d="M3842 7255 c-189 -41 -361 -175 -447 -350 -68 -139 -65 -51 -65
-1601 0 -1362 1 -1403 20 -1478 47 -185 171 -338 341 -419 52 -25 121 -51 154
-59 48 -10 324 -13 1405 -13 1506 0 1389 -6 1550 73 105 51 231 177 282 282
79 161 73 37 73 1605 0 1531 3 1455 -60 1590 -87 189 -238 314 -439 365 -77
20 -110 20 -1415 19 -1092 0 -1348 -3 -1399 -14z m1506 -1136 c222 -52 398
-167 507 -331 21 -32 41 -58 45 -58 4 0 33 9 66 21 82 28 219 35 313 15 324
-69 535 -392 467 -716 -37 -178 -164 -341 -326 -418 -47 -22 -110 -45 -140
-51 -37 -8 -373 -12 -1030 -14 -1092 -2 -1026 -6 -1180 70 -95 48 -212 160
-263 253 -76 139 -103 318 -68 460 44 181 179 351 341 428 47 22 110 46 140
53 74 18 242 15 304 -5 l49 -15 61 65 c107 118 257 205 409 238 77 17 242 20
305 5z"/>
</g>
</svg>
