<?xml version="1.0" encoding="UTF-8"?>
<svg version="1.1" xmlns="http://www.w3.org/2000/svg" width="1920" height="1080">
<path d="M0 0 C1.04813928 -0.00226556 2.09627857 -0.00453111 3.17617965 -0.00686532 C6.66407504 -0.01316043 10.15193112 -0.01237886 13.63983154 -0.0115509 C16.15057932 -0.01454519 18.66132664 -0.01794834 21.17207336 -0.02172852 C27.27014554 -0.02963054 33.36820349 -0.03278197 39.46628031 -0.03334089 C44.42730747 -0.03381749 49.38833145 -0.03587937 54.3493576 -0.03904152 C68.44110325 -0.04783964 82.5328413 -0.05246219 96.62458971 -0.05171105 C97.76207827 -0.05165111 97.76207827 -0.05165111 98.92254639 -0.05158997 C100.06143734 -0.05152864 100.06143734 -0.05152864 101.22333619 -0.05146609 C113.5222888 -0.05105981 125.82121078 -0.06062677 138.12015453 -0.07472833 C150.77441976 -0.08912184 163.42867007 -0.09599689 176.08294368 -0.09513456 C183.17698509 -0.09480362 190.27099438 -0.09750514 197.36502838 -0.10831261 C204.03977744 -0.11841686 210.71444766 -0.11805199 217.38920403 -0.11079597 C219.83119493 -0.10975391 222.27319012 -0.1120904 224.71517372 -0.11815643 C250.42859144 -0.17786529 272.02660945 2.05879331 291.71697998 20.49699402 C310.2696304 40.72807485 310.43933639 65.10903505 310.39373779 91.03239441 C310.39645187 93.63254901 310.40001514 96.23270284 310.40435791 98.83285522 C310.41319805 105.13011472 310.41135418 111.42732622 310.40553263 117.72458751 C310.4009952 122.84711095 310.40041218 127.96962104 310.40258026 133.09214592 C310.40288673 133.82431754 310.40319319 134.55648916 310.40350895 135.3108478 C310.40414847 136.79874655 310.4047969 138.28664531 310.40545413 139.77454405 C310.41114156 153.68887509 310.40462433 167.60317966 310.3938534 181.51750635 C310.38491745 193.42970883 310.38647337 205.34187232 310.39569092 217.2540741 C310.40641846 231.12397684 310.41059435 244.99385648 310.40446639 258.8637628 C310.40382936 260.34554032 310.40320062 261.82731785 310.40258026 263.30909538 C310.40227171 264.03795393 310.40196316 264.76681247 310.40164526 265.51775764 C310.3999259 270.6284626 310.40281693 275.73915276 310.40753937 280.84985542 C310.4137673 287.74053814 310.40926927 294.63114641 310.39775085 301.52182198 C310.39511801 304.04283019 310.39584569 306.56384462 310.40027618 309.08485031 C310.44061479 334.37992 309.08511923 357.34539605 290.70916748 376.75090027 C277.01871476 389.42339824 261.28095331 395.45134107 242.75822449 395.40786743 C241.64293037 395.41310411 240.52763625 395.41834079 239.37854534 395.42373616 C235.65725441 395.43868668 231.93610157 395.43944023 228.21478271 395.44010925 C225.53993664 395.44773414 222.86510196 395.45611411 220.19026184 395.46533203 C212.93375408 395.48811319 205.6772757 395.49609533 198.42073703 395.50115848 C193.88255364 395.50442378 189.34437865 395.51095129 184.80620003 395.51815987 C172.22055937 395.53771747 159.6349265 395.55412638 147.04926968 395.5570364 C146.24498528 395.55722397 145.44070087 395.55741154 144.61204422 395.55760479 C142.98183731 395.55797102 141.35163041 395.55833472 139.7214235 395.5586959 C138.91227892 395.55887872 138.10313433 395.55906153 137.26947021 395.55924988 C136.05425726 395.5595207 136.05425726 395.5595207 134.81449456 395.559797 C121.69875325 395.56333572 108.58317641 395.59034295 95.4674921 395.62774777 C81.97477308 395.66591725 68.4821355 395.68519451 54.98936135 395.68549591 C47.42456693 395.68607857 39.85996874 395.69444609 32.29522514 395.72349358 C25.85168206 395.74812354 19.40840675 395.75521278 12.9648292 395.74024605 C9.68365409 395.73312384 6.40311096 395.73650381 3.12197495 395.75665665 C-20.00617193 395.88997675 -38.94447987 392.79094616 -56.13458252 375.99699402 C-69.9376548 361.52252767 -75.02172324 344.46255746 -75.00549316 324.90811157 C-75.00846429 323.78494807 -75.01143541 322.66178456 -75.01449656 321.5045858 C-75.02316113 317.74480479 -75.02468993 313.9850557 -75.02618408 310.2252655 C-75.03081387 307.52776948 -75.03581847 304.83027632 -75.04122925 302.13278198 C-75.05478361 294.80604552 -75.0608329 287.47931454 -75.06523991 280.15256763 C-75.0680075 275.57253641 -75.07224582 270.99250729 -75.07674408 266.41247749 C-75.08893347 253.71710944 -75.0992331 241.02174306 -75.10261917 228.32636929 C-75.10283874 227.5145763 -75.1030583 226.70278331 -75.10328452 225.86639053 C-75.1035028 225.05271802 -75.10372108 224.2390455 -75.10394597 223.40071625 C-75.10438943 221.75206339 -75.10483599 220.10341054 -75.10528564 218.45475769 C-75.10550707 217.63697887 -75.1057285 216.81920005 -75.10595664 215.97664005 C-75.10990157 202.73660481 -75.12734776 189.4966247 -75.15064517 176.25661074 C-75.17440333 162.64418997 -75.18682307 149.03179681 -75.18798709 135.41935498 C-75.1889014 127.78422322 -75.19459181 120.14916331 -75.2128067 112.51405144 C-75.22826816 106.01043367 -75.23329276 99.50690996 -75.2250686 93.00327729 C-75.22118317 89.69006986 -75.22364627 86.37720416 -75.23612595 83.06399536 C-75.3245059 58.12842077 -72.85282357 37.85121604 -55.05255127 18.88371277 C-39.45134181 3.98333889 -20.76364456 -0.03344925 0 0 Z " fill="#5865F3" transform="translate(195.86505126953125,344.8662872314453)"/>
<path d="M0 0 C7.3150979 6.40071066 14.43436137 13.42692985 19.375 21.8671875 C19.375 22.5271875 19.375 23.1871875 19.375 23.8671875 C20.8909375 23.1865625 20.8909375 23.1865625 22.4375 22.4921875 C35.93582144 16.43171665 53.19172191 16.81627132 67.05786133 21.59594727 C73.02960003 23.88866136 78.25575353 27.07219055 83.375 30.8671875 C84.40625 31.5890625 85.4375 32.3109375 86.5 33.0546875 C94.26198112 39.91672878 99.81755606 49.24116272 103.375 58.8671875 C103.69339844 59.71539063 104.01179688 60.56359375 104.33984375 61.4375 C108.1979741 73.34969971 107.26274762 86.1029642 103.375 97.8671875 C103.10816406 98.71667969 102.84132813 99.56617188 102.56640625 100.44140625 C96.85224599 116.61882886 83.95256753 127.88409031 68.875 135.1796875 C57.67871139 139.66648315 45.8966418 139.16503462 34.04907227 139.15771484 C32.10635115 139.1637078 30.16363241 139.1705151 28.22091675 139.17807007 C22.97091697 139.19565522 17.72098248 139.20042217 12.47095609 139.20170164 C9.18542832 139.20312759 5.89991692 139.2074055 2.61439323 139.21269608 C-8.86295747 139.23116877 -20.34026187 139.2393698 -31.81762695 139.23779297 C-42.49282578 139.23659104 -53.1678226 139.25771069 -63.84297031 139.2892803 C-73.03057438 139.31547648 -82.21811257 139.32615892 -91.40575367 139.32488215 C-96.88339773 139.32437368 -102.36086192 139.32999401 -107.83846855 139.35123825 C-112.9907742 139.37067802 -118.14272936 139.37070591 -123.29504776 139.35620499 C-125.17832644 139.35412319 -127.06162742 139.35877996 -128.94486809 139.3709259 C-148.94396956 139.49148875 -164.91088051 134.03714577 -179.625 119.8671875 C-192.29400076 105.64407019 -197.67606787 88.31992907 -197.0390625 69.44140625 C-195.94550733 53.22033784 -187.77417486 40.22744828 -176.625 28.8671875 C-176.01011719 28.2278125 -175.39523438 27.5884375 -174.76171875 26.9296875 C-163.21590477 15.85361756 -147.81073867 11.45485046 -132.19750977 11.57250977 C-127.22037111 11.69418603 -122.50154738 12.1618636 -117.66796875 13.4296875 C-115.18114048 13.96223964 -113.16044166 14.15567525 -110.625 13.8671875 C-108.86064414 12.45247418 -108.86064414 12.45247418 -107.4375 10.4296875 C-94.75545915 -5.04021578 -77.63808039 -14.35802618 -57.76171875 -16.8515625 C-36.79365159 -18.73163826 -16.46775486 -13.38005082 0 0 Z " fill="#FEFEFE" transform="translate(358.625,477.1328125)"/>
<path d="M0 0 C15.18 0 30.36 0 46 0 C47.835625 3.5475 49.67125 7.095 51.5625 10.75 C56.57282131 20.38269019 61.69057442 29.85973848 67.5625 39 C70.12382557 43.04507081 72.1649271 47.3057895 74.26953125 51.6015625 C76.57197785 56.12329736 79.08676509 60.51093109 81.60351562 64.91577148 C84.73971844 70.44313062 87.56885151 76.0779124 90.296875 81.81640625 C92.32653914 85.77452029 92.32653914 85.77452029 97 92 C97.33 61.64 97.66 31.28 98 0 C110.21 0 122.42 0 135 0 C135 49.83 135 99.66 135 151 C119.82 151 104.64 151 89 151 C82.26468602 139.7744767 82.26468602 139.7744767 79.5546875 134.63671875 C78.95865723 133.51297852 78.36262695 132.38923828 77.74853516 131.23144531 C77.44296692 130.65317993 77.13739868 130.07491455 76.8225708 129.47912598 C70.55000777 117.6192345 64.04132119 105.91330859 57.32714844 94.29736328 C51.75465556 84.65108697 46.3653036 74.97423584 41.47363281 64.96166992 C40.05898618 61.7662656 40.05898618 61.7662656 38 59 C37.67 89.36 37.34 119.72 37 151 C24.79 151 12.58 151 0 151 C0 101.17 0 51.34 0 0 Z " fill="#FDFDFD" transform="translate(979,457)"/>
<path d="M0 0 C83.00337838 0 83.00337838 0 96.5 6.375 C97.13679688 6.6534375 97.77359375 6.931875 98.4296875 7.21875 C103.04544137 9.3099691 107.02302725 11.85327156 111 15 C111 15.66 111 16.32 111 17 C111.89332031 17.41378906 111.89332031 17.41378906 112.8046875 17.8359375 C125.13928378 24.37634621 132.26562819 41.02770165 136.16015625 53.6953125 C141.10497991 73.15261864 139.55916584 96.17117456 130 114 C129.34 114 128.68 114 128 114 C127.75894531 114.886875 127.51789063 115.77375 127.26953125 116.6875 C125.8890602 120.28946754 124.33453847 122.22394621 121.6875 125 C119.16243746 127.68162444 116.70960927 130.30385431 114.5 133.25 C104.83030022 143.88666976 88.11946837 150.0002066 73.98273087 151.16641426 C68.69192186 151.41144657 63.40005351 151.34595237 58.10546875 151.29296875 C56.60958188 151.2885444 55.11369032 151.28549221 53.61779785 151.28381348 C48.14095994 151.26824113 42.6642222 151.22635826 37.1875 151.1875 C24.915625 151.125625 12.64375 151.06375 0 151 C0 101.17 0 51.34 0 0 Z M36 35 C36 61.73 36 88.46 36 116 C65.05404606 117.56393726 65.05404606 117.56393726 88.6875 105.6875 C98.38672469 94.41542806 100.03386921 82.65628041 99.20263672 68.17626953 C98.25761386 58.02695175 92.31771675 48.86219539 84.90234375 42.08203125 C70.80199502 31.71789108 52.25679019 35 36 35 Z " fill="#F7F7F7" transform="translate(1143,457)"/>
<path d="M0 0 C18.5625 -0.0928125 18.5625 -0.0928125 37.5 -0.1875 C41.37427734 -0.21481201 45.24855469 -0.24212402 49.24023438 -0.27026367 C54.05566406 -0.28381348 54.05566406 -0.28381348 56.32629395 -0.28633118 C57.87645062 -0.29086898 59.42659829 -0.30127227 60.97668457 -0.31672668 C74.61109538 -0.44559292 89.08768865 -0.06394945 101.375 6.5625 C102.03218018 6.90619629 102.68936035 7.24989258 103.36645508 7.60400391 C114.42749493 13.69456789 121.25086081 22.43384165 125.078125 34.359375 C128.84103591 49.21968419 127.4148347 64.34250539 120.10546875 77.80078125 C114.10975454 86.9111522 105.81175386 91.70103568 96 96 C99.90481891 104.38107474 104.45978049 112.1125911 109.41015625 119.90234375 C112.68984462 125.0642027 115.82002279 130.31251726 118.94921875 135.56640625 C120.25228897 137.7481181 121.56619465 139.92342262 122.89453125 142.08984375 C123.44496094 142.98832031 123.99539063 143.88679687 124.5625 144.8125 C125.03816406 145.58207031 125.51382812 146.35164062 126.00390625 147.14453125 C127 149 127 149 127 151 C121.00468338 151.27280923 115.01300356 151.47189723 109.01293945 151.60424805 C106.97453883 151.65942742 104.93657098 151.73439718 102.8996582 151.82983398 C86.08374546 152.59774013 86.08374546 152.59774013 81.31298828 148.93969727 C79.43997794 146.03854719 78.23269559 143.22240437 77 140 C75.86155014 137.94375812 74.69413854 135.90331527 73.5 133.87890625 C72.33001329 131.7752806 71.16336255 129.66979622 70 127.5625 C68.83443719 125.45902337 67.6677723 123.35615705 66.5 121.25390625 C65.93152344 120.2292627 65.36304688 119.20461914 64.77734375 118.14892578 C62.35081977 113.84984525 59.82561145 109.61124194 57.28515625 105.37866211 C56 103 56 103 56 101 C49.4 101 42.8 101 36 101 C36 117.5 36 134 36 151 C24.12 151 12.24 151 0 151 C0 101.17 0 51.34 0 0 Z M36 35 C36 47.21 36 59.42 36 72 C40.74375 72.04125 45.4875 72.0825 50.375 72.125 C51.8501709 72.14320801 53.3253418 72.16141602 54.84521484 72.18017578 C65.51184451 72.22483014 75.48407631 72.11954821 84 65 C87.53758742 60.82746099 88.90714943 57.47818341 89 52 C88.18466349 46.57706416 86.54010655 42.98121395 82.1875 39.5625 C76.33135504 35.45969185 70.55366661 34.70855556 63.5390625 34.8046875 C62.48658325 34.80770874 62.48658325 34.80770874 61.4128418 34.81079102 C58.81682707 34.8211762 56.22090628 34.84909824 53.625 34.875 C47.80875 34.91625 41.9925 34.9575 36 35 Z " fill="#FCFCFC" transform="translate(1303,457)"/>
<path d="M0 0 C0.66124878 0.00021149 1.32249756 0.00042297 2.00378418 0.00064087 C16.36062374 0.04643656 30.06238017 1.45304829 42.4375 9.375 C43.05625 9.76945312 43.675 10.16390625 44.3125 10.5703125 C53.21487169 17.20734853 59.46542241 29.60641843 61.4375 40.375 C61.55462999 44.04549726 61.5255033 47.70412166 61.4375 51.375 C56.18644558 51.39964928 50.93542455 51.41783568 45.68432617 51.42993164 C43.89655979 51.43497218 42.10879755 51.44180454 40.32104492 51.45043945 C37.75698832 51.4625173 35.19298603 51.46823094 32.62890625 51.47265625 C31.42265343 51.48039818 31.42265343 51.48039818 30.19203186 51.48829651 C28.27348285 51.48849215 26.35504632 51.43701983 24.4375 51.375 C22.91618833 49.85368833 22.95295424 48.15519774 22.5625 46.0625 C21.8052479 42.44834226 20.91196601 40.1868932 18.4375 37.375 C18.4375 36.715 18.4375 36.055 18.4375 35.375 C8.29540738 30.79470011 -2.76004619 29.72685831 -13.35546875 33.34765625 C-17.20670621 35.14035617 -18.49368673 36.58217567 -20.5625 40.375 C-21.57010835 45.5389928 -21.25605888 49.16686517 -18.625 53.75 C-13.16314225 59.22154137 -4.90158392 61.0289226 2.42578125 62.55859375 C4.11914677 62.93291491 5.81250595 63.30726477 7.50585938 63.68164062 C10.12458136 64.24833333 12.74408398 64.81123303 15.36401367 65.37231445 C33.65255129 69.31426945 50.15366005 74.21930714 61.4375 90.375 C66.84398272 100.948564 66.59230478 113.24080653 63.47265625 124.45703125 C59.24780899 136.36631766 51.26337338 144.58623258 40.00073242 150.06958008 C18.01029131 160.01909522 -11.49375899 158.66288262 -34.01953125 150.796875 C-41.01210229 147.99059511 -46.57103518 144.02323651 -51.5625 138.375 C-52.41134766 137.43914062 -52.41134766 137.43914062 -53.27734375 136.484375 C-61.66749244 126.6219592 -62.5625 118.32698861 -62.5625 105.375 C-50.3525 105.375 -38.1425 105.375 -25.5625 105.375 C-23.9125 109.335 -22.2625 113.295 -20.5625 117.375 C-13.89110173 123.55222062 -6.56080343 124.75113474 2.3125 124.6875 C3.1060791 124.68331055 3.8996582 124.67912109 4.71728516 124.67480469 C11.63630632 124.54117247 17.08068472 123.55692993 22.9375 119.75 C25.22686133 116.12517789 25.60522718 112.62154722 25.4375 108.375 C23.9897372 104.12822911 21.05689939 101.78654965 17.203125 99.5546875 C10.65187752 96.76022883 3.39609473 95.75315165 -3.5625 94.375 C-41.70769885 86.80226735 -41.70769885 86.80226735 -52.5625 72.375 C-53.325625 71.570625 -54.08875 70.76625 -54.875 69.9375 C-61.46375522 59.93235318 -60.6245113 46.50751899 -59.12890625 35.0546875 C-57.53095419 28.08721952 -53.91605941 22.94350622 -49.5625 17.375 C-48.964375 16.4675 -48.36625 15.56 -47.75 14.625 C-35.52692916 2.05269857 -16.52540591 -0.02184799 0 0 Z " fill="#F4F4F4" transform="translate(1697.5625,454.625)"/>
<path d="M0 0 C12.21 0 24.42 0 37 0 C37.01458252 2.85575684 37.02916504 5.71151367 37.04418945 8.65380859 C37.09463781 18.11345184 37.16125094 27.57293225 37.23571491 37.03241539 C37.28034816 42.76492265 37.31961986 48.49735998 37.34643555 54.22998047 C37.37253871 59.76738459 37.4129908 65.30451863 37.46318626 70.84175491 C37.47980759 72.94909925 37.49135123 75.05649026 37.49761391 77.16389084 C37.50730656 80.12696059 37.5354274 83.08934672 37.56762695 86.05224609 C37.56619186 86.91396423 37.56475677 87.77568237 37.5632782 88.66351318 C37.6954114 97.32094404 39.3444705 105.20709419 45.46875 111.6015625 C52.31452593 117.85357215 60.78187647 118.46492884 69.67578125 118.3203125 C76.73661439 117.6399502 84.04405918 115.25630087 89 110 C94.4374557 102.07685026 95.29479374 93.7764814 95.31884766 84.34936523 C95.32889328 83.43121536 95.3389389 82.51306549 95.34928894 81.5670929 C95.3799185 78.5642656 95.39709939 75.56152662 95.4140625 72.55859375 C95.43279044 70.46394603 95.45236505 68.36930573 95.4727478 66.27467346 C95.52390314 60.78555692 95.56361742 55.29641596 95.60089111 49.80718994 C95.64103518 44.19626915 95.69207991 38.58544847 95.7421875 32.97460938 C95.83875018 21.98313652 95.92220895 10.99162176 96 0 C107.88 0 119.76 0 132 0 C132.06799959 13.18773616 132.12294486 26.3753543 132.15543652 39.5632267 C132.17103733 45.68805117 132.1921729 51.81274861 132.22631836 57.9375 C132.25911178 63.85733652 132.27689493 69.77705149 132.28463173 75.69697189 C132.29013955 77.94620042 132.30089414 80.19542292 132.31719017 82.44459915 C132.42066089 97.32871604 132.51244101 111.79418673 125.375 125.3125 C125.024375 125.98345703 124.67375 126.65441406 124.3125 127.34570312 C117.32368949 140.14613089 106.07106777 146.78393527 92.46484375 151.12890625 C85.7198191 152.79305417 78.93403303 153.67369256 72 154 C71.1646875 154.04125 70.329375 154.0825 69.46875 154.125 C51.62173818 154.55504848 34.9063907 151.22389994 20 141 C18.96875 140.319375 17.9375 139.63875 16.875 138.9375 C4.12415417 127.67183792 1.09844373 109.9981712 0 94 C-0.3083728 86.56326744 -0.23524893 79.12096784 -0.1953125 71.6796875 C-0.19157112 69.59791196 -0.18872949 67.51613464 -0.18673706 65.43435669 C-0.17918902 60.01925587 -0.15961907 54.6042665 -0.1373291 49.18920898 C-0.11667772 43.6378734 -0.10769457 38.08651938 -0.09765625 32.53515625 C-0.07636265 21.69004793 -0.04125524 10.84505077 0 0 Z " fill="#F2F2F2" transform="translate(819,457)"/>
<path d="M0 0 C14.52 0 29.04 0 44 0 C47.26203621 6.52407242 50.08626395 12.51065734 52.3828125 19.328125 C52.67905518 20.18778366 52.97529785 21.04744232 53.28051758 21.93315125 C53.90997216 23.76131694 54.5364835 25.59049836 55.16021729 27.42062378 C56.80003284 32.22963938 58.46373099 37.03039355 60.125 41.83203125 C60.45484894 42.78707047 60.78469788 43.74210968 61.12454224 44.72608948 C64.04247828 53.1603994 67.05048002 61.55913778 70.125 69.9375 C70.5492627 71.09991211 70.97352539 72.26232422 71.41064453 73.45996094 C73.29238897 78.56766039 75.25435079 83.61536778 77.37353516 88.62939453 C79.92727384 94.73363591 82.19710145 100.91098744 84.390625 107.15234375 C84.7807074 108.2555043 85.17078979 109.35866486 85.57269287 110.49525452 C86.38769649 112.80296943 87.20101438 115.11128033 88.01269531 117.42016602 C89.25596595 120.95445963 90.50654836 124.48610766 91.7578125 128.01757812 C92.55251989 130.2706794 93.34680587 132.52392937 94.140625 134.77734375 C94.51350647 135.82945541 94.88638794 136.88156708 95.27056885 137.96556091 C95.61472839 138.94750931 95.95888794 139.9294577 96.31347656 140.94116211 C96.61594299 141.79987411 96.91840942 142.65858612 97.2300415 143.5433197 C98 146 98 146 99 151 C86.79 151 74.58 151 62 151 C56.3324937 137.39798489 56.3324937 137.39798489 54.6875 132.375 C54.36136719 131.39273438 54.03523437 130.41046875 53.69921875 129.3984375 C53 127 53 127 53 125 C32.87 125.33 12.74 125.66 -8 126 C-10.64 132.93 -13.28 139.86 -16 147 C-16.66 148.32 -17.32 149.64 -18 151 C-30.21 151 -42.42 151 -55 151 C-54.12046675 146.60233376 -52.90441945 142.56267066 -51.41796875 138.35546875 C-51.16251785 137.62685135 -50.90706696 136.89823395 -50.64387512 136.14753723 C-50.10343069 134.60970987 -49.56121324 133.0725046 -49.01733398 131.53588867 C-48.19465363 129.2077444 -47.38120198 126.87651617 -46.56835938 124.54492188 C-46.03962359 123.04407305 -45.51034388 121.54341571 -44.98046875 120.04296875 C-44.74176559 119.35623581 -44.50306244 118.66950287 -44.25712585 117.96195984 C-43.02785185 114.5140255 -41.66699214 111.25457989 -39.98510742 108.0012207 C-37.97557918 104.08681628 -36.5774688 100.12716713 -35.2578125 95.9375 C-34.74178868 94.34704511 -34.22378555 92.75723144 -33.70410156 91.16796875 C-33.4303772 90.33056152 -33.15665283 89.4931543 -32.87463379 88.63037109 C-30.34875035 81.03403664 -27.61802865 73.50583972 -24.93115234 65.96533203 C-23.86665729 62.97657637 -22.80622648 59.98639916 -21.74609375 56.99609375 C-21.05753286 55.05981005 -20.36873916 53.12360911 -19.6796875 51.1875 C-19.3691745 50.31125977 -19.0586615 49.43501953 -18.73873901 48.53222656 C-15.95243245 40.72851496 -12.90164101 33.04813781 -9.625 25.4375 C-7.16423962 19.57599935 -5.04364538 13.61672602 -2.96728516 7.61108398 C-1.08582944 2.17165888 -1.08582944 2.17165888 0 0 Z M22 41 C21.72027344 41.72960937 21.44054687 42.45921875 21.15234375 43.2109375 C20.55099609 44.77714844 20.55099609 44.77714844 19.9375 46.375 C19.47988281 47.56738281 19.02226563 48.75976562 18.55078125 49.98828125 C17.49854176 52.72004384 16.43190823 55.44565519 15.35546875 58.16796875 C12.12697876 66.35282112 9.03453707 74.57079085 6.125 82.875 C5.82674316 83.72521729 5.52848633 84.57543457 5.22119141 85.45141602 C4.00173629 88.96525072 2.90384189 92.38463242 2 96 C15.2 96 28.4 96 42 96 C35.6796645 77.66212518 29.3499849 59.32762649 23 41 C22.67 41 22.34 41 22 41 Z " fill="#F5F5F5" transform="translate(712,457)"/>
<path d="M0 0 C14.19 0 28.38 0 43 0 C49.44925626 12.25358689 55.79999116 24.49701055 61.89648438 36.91992188 C65.24169281 43.67533136 68.79330406 50.21272906 72.70825195 56.65649414 C74 59 74 59 74 61 C74.66 61 75.32 61 76 61 C76.25523438 60.16339844 76.51046875 59.32679688 76.7734375 58.46484375 C78.11618852 54.67178593 79.80123012 51.13921801 81.625 47.5625 C81.97836426 46.86294189 82.33172852 46.16338379 82.69580078 45.44262695 C85.66582712 39.59147751 88.73892744 33.7978686 91.84765625 28.01953125 C94.80597564 22.51435132 97.69566516 16.97274656 100.58740234 11.43237305 C100.98781738 10.66836182 101.38823242 9.90435059 101.80078125 9.1171875 C102.15309814 8.44284668 102.50541504 7.76850586 102.8684082 7.07373047 C103.2418335 6.38939941 103.61525879 5.70506836 104 5 C104.34482422 4.10015381 104.68964844 3.20030762 105.04492188 2.27319336 C107 0 107 0 108.88993835 -0.43084717 C111.43491305 -0.5817947 113.93198824 -0.56109579 116.48046875 -0.48828125 C117.87245232 -0.47766914 117.87245232 -0.47766914 119.29255676 -0.46684265 C122.2583558 -0.43883943 125.22227108 -0.37609033 128.1875 -0.3125 C130.19723837 -0.28742478 132.20700632 -0.26461026 134.21679688 -0.24414062 C139.14525776 -0.18899327 144.07230946 -0.10267997 149 0 C148.12623226 3.80114516 146.62440962 7.09361193 144.875 10.5625 C144.36308105 11.58114136 144.36308105 11.58114136 143.84082031 12.62036133 C136.03152503 27.93769818 127.40361714 42.86149669 118.8125 57.75 C113.45826787 67.03133183 108.49512807 76.49669609 103.59375 86.0234375 C101.49932374 90.08177226 99.30303171 94.05660136 97 98 C96.34 98 95.68 98 95 98 C94.12449979 101.03802167 93.8516368 103.7949886 93.79467773 106.95214844 C93.77473251 107.93286316 93.75478729 108.91357788 93.73423767 109.92401123 C93.71752518 110.97518127 93.70081268 112.02635132 93.68359375 113.109375 C93.6524221 114.73229462 93.6524221 114.73229462 93.62062073 116.38800049 C93.55527069 119.84193613 93.49630771 123.29594737 93.4375 126.75 C93.39430096 129.09245571 93.35068622 131.4349038 93.30664062 133.77734375 C93.19882245 139.51815283 93.09964035 145.25901983 93 151 C80.79 151 68.58 151 56 151 C56.10183594 147.78765625 56.20367188 144.5753125 56.30859375 141.265625 C56.80305365 116.42893617 56.55099023 96.78386587 41.47460938 76.24682617 C40.06354789 74.09682636 39.43000743 72.51258534 39 70 C38.34 70 37.68 70 37 70 C25.33352262 48.82952761 25.33352262 48.82952761 21.625 41.125 C17.30239215 32.29744105 12.19732537 23.90296938 7.20703125 15.44140625 C6.37679443 14.03012451 6.37679443 14.03012451 5.52978516 12.59033203 C4.58943929 10.99807707 3.64262523 9.40959511 2.68505859 7.82763672 C0 3.325 0 3.325 0 0 Z " fill="#F4F4F4" transform="translate(1433,457)"/>
<path d="M0 0 C12.21 0 24.42 0 37 0 C37 38.94 37 77.88 37 118 C58.12 118 79.24 118 101 118 C101 128.89 101 139.78 101 151 C67.67 151 34.34 151 0 151 C0 101.17 0 51.34 0 0 Z " fill="#FFFFFF" transform="translate(553,457)"/>
<path d="M0 0 C9.9 0 19.8 0 30 0 C30.07386708 11.89259968 30.06779633 23.74238635 29.5625 35.625 C29.52326416 36.58929932 29.48402832 37.55359863 29.44360352 38.54711914 C29.40162842 39.45196045 29.35965332 40.35680176 29.31640625 41.2890625 C29.27974854 42.08006348 29.24309082 42.87106445 29.20532227 43.68603516 C28.98693536 46.14723739 28.4845779 48.5771105 28 51 C19.42 51 10.84 51 2 51 C1.03362182 40.06124867 0.69031567 29.16176367 0.4375 18.1875 C0.39419001 16.41600802 0.35057233 14.64452354 0.30664062 12.87304688 C0.20032012 8.58211181 0.10028919 4.29109697 0 0 Z " fill="#E6E6E6" transform="translate(1589,446)"/>
<path d="M0 0 C12.21 0 24.42 0 37 0 C37 38.94 37 77.88 37 118 C58.12 118 79.24 118 101 118 C101 128.89 101 139.78 101 151 C67.67 151 34.34 151 0 151 C0 101.17 0 51.34 0 0 Z M2 2 C2 50.84 2 99.68 2 150 C34.01 150 66.02 150 99 150 C99 140.1 99 130.2 99 120 C77.88 120 56.76 120 35 120 C35 81.06 35 42.12 35 2 C24.11 2 13.22 2 2 2 Z " fill="#606060" transform="translate(553,457)"/>
<path d="M0 0 C15.18 0 30.36 0 46 0 C46.495 1.98 46.495 1.98 47 4 C46.01 3.67 45.02 3.34 44 3 C30.14 2.67 16.28 2.34 2 2 C2 50.84 2 99.68 2 150 C12.89 150 23.78 150 35 150 C35 117.33 35 84.66 35 51 C37.56307988 53.56307988 38.46922502 54.93845004 40 58 C40.99 58.495 40.99 58.495 42 59 C42 60.32 42 61.64 42 63 C42.66 63 43.32 63 44 63 C44.45375 64.0725 44.9075 65.145 45.375 66.25 C46.25518422 68.3289113 47.15183563 70.27330413 48.25 72.25 C49 74 49 74 48 77 C43.05 68.09 43.05 68.09 38 59 C37.67 89.36 37.34 119.72 37 151 C24.79 151 12.58 151 0 151 C0 101.17 0 51.34 0 0 Z " fill="#868686" transform="translate(979,457)"/>
<path d="M0 0 C18.5625 -0.0928125 18.5625 -0.0928125 37.5 -0.1875 C41.37427734 -0.21481201 45.24855469 -0.24212402 49.24023438 -0.27026367 C54.05566406 -0.28381348 54.05566406 -0.28381348 56.32629395 -0.28633118 C57.87645062 -0.29086898 59.42659829 -0.30127227 60.97668457 -0.31672668 C74.61109538 -0.44559292 89.08768865 -0.06394945 101.375 6.5625 C102.03218018 6.90619629 102.68936035 7.24989258 103.36645508 7.60400391 C114.42749493 13.69456789 121.25086081 22.43384165 125.078125 34.359375 C128.94758851 49.64047667 127.05453051 64.12995755 119.94921875 77.94140625 C117.93996656 81.09420076 115.73843313 83.46895251 113 86 C112.34 85.67 111.68 85.34 111 85 C111.45890625 84.45472656 111.9178125 83.90945313 112.390625 83.34765625 C122.50272354 70.91997212 125.15556997 57.91130963 124 42 C122.11720352 30.46958947 118.28878708 21.36037011 109 14 C77.334335 -6.22073116 36.27619492 1.48323555 1 1 C1 50.17 1 99.34 1 150 C11.89 150 22.78 150 34 150 C34 133.5 34 117 34 100 C41.26 100 48.52 100 56 100 C56 100.33 56 100.66 56 101 C49.4 101 42.8 101 36 101 C36 117.5 36 134 36 151 C24.12 151 12.24 151 0 151 C0 101.17 0 51.34 0 0 Z " fill="#858585" transform="translate(1303,457)"/>
<path d="M0 0 C12.21 0 24.42 0 37 0 C37 49.83 37 99.66 37 151 C21.82 151 6.64 151 -9 151 C-12.96970511 144.38382482 -16.82910561 137.80686655 -20.4375 131 C-21.12489258 129.73349609 -21.12489258 129.73349609 -21.82617188 128.44140625 C-22.25349609 127.63574219 -22.68082031 126.83007812 -23.12109375 126 C-23.5070874 125.278125 -23.89308105 124.55625 -24.29077148 123.8125 C-24.52481689 123.214375 -24.7588623 122.61625 -25 122 C-24.505 121.01 -24.505 121.01 -24 120 C-20.04109898 126.40505124 -16.30515681 132.93211462 -12.625 139.5 C-12.17205566 140.30163574 -11.71911133 141.10327148 -11.25244141 141.92919922 C-10.83140137 142.68475098 -10.41036133 143.44030273 -9.9765625 144.21875 C-9.59580566 144.89873047 -9.21504883 145.57871094 -8.82275391 146.27929688 C-8 148 -8 148 -8 150 C6.19 150 20.38 150 35 150 C35 100.83 35 51.66 35 1 C23.78 1 12.56 1 1 1 C1 33.34 1 65.68 1 99 C-1.60024177 96.39975823 -2.61059043 95.0609716 -4.0625 91.875 C-5.34308323 88.79891979 -5.34308323 88.79891979 -8 87 C-7.67 85.68 -7.34 84.36 -7 83 C-5.02 85.97 -3.04 88.94 -1 92 C-0.67 61.64 -0.34 31.28 0 0 Z " fill="#545454" transform="translate(1077,457)"/>
<path d="M0 0 C83.00337838 0 83.00337838 0 96.5 6.375 C97.13679688 6.6534375 97.77359375 6.931875 98.4296875 7.21875 C103.04544137 9.3099691 107.02302725 11.85327156 111 15 C111 15.66 111 16.32 111 17 C108.42465184 15.71567053 105.85416256 14.42194927 103.28515625 13.125 C101.87763166 12.41661204 100.47007877 11.70828029 99.0625 11 C98.00772461 10.46632813 98.00772461 10.46632813 96.93164062 9.921875 C88.13161255 5.50124234 79.97055371 2.71234963 70.0234375 2.68115234 C69.25923492 2.67099909 68.49503235 2.66084583 67.70767212 2.6503849 C65.26345215 2.62004341 62.81934678 2.60267835 60.375 2.5859375 C58.8541568 2.56897831 57.33332294 2.55115899 55.8125 2.5324707 C50.20844037 2.46958296 44.60420458 2.42327266 39 2.375 C26.46 2.25125 13.92 2.1275 1 2 C1 50.84 1 99.68 1 150 C27.4 149.67 53.8 149.34 81 149 C81 149.33 81 149.66 81 150 C76.80218327 151.0200323 72.75005395 151.13578914 68.45581055 151.11352539 C67.32491737 151.11370619 67.32491737 151.11370619 66.17117786 151.11389065 C63.74299428 151.11314728 61.31488851 151.1055454 58.88671875 151.09765625 C57.38269081 151.09618505 55.87866235 151.09516543 54.37463379 151.09460449 C48.81224803 151.0893723 43.24987324 151.07541104 37.6875 151.0625 C25.250625 151.041875 12.81375 151.02125 0 151 C0 101.17 0 51.34 0 0 Z " fill="#6B6B6B" transform="translate(1143,457)"/>
<path d="M0 0 C9.76318535 -0.07000159 19.5262822 -0.12306283 29.28966522 -0.15543652 C33.82487453 -0.1709867 38.35991014 -0.19202622 42.89501953 -0.22631836 C47.28467985 -0.25929693 51.67417479 -0.27693268 56.06394958 -0.28463173 C57.72540382 -0.29010709 59.38685066 -0.30079526 61.04823303 -0.31719017 C74.65903425 -0.44596737 89.11055189 -0.05161948 101.375 6.5625 C102.03218018 6.90619629 102.68936035 7.24989258 103.36645508 7.60400391 C114.42749493 13.69456789 121.25086081 22.43384165 125.078125 34.359375 C128.94758851 49.64047667 127.05453051 64.12995755 119.94921875 77.94140625 C117.93996656 81.09420076 115.73843313 83.46895251 113 86 C112.34 85.67 111.68 85.34 111 85 C111.45890625 84.45472656 111.9178125 83.90945313 112.390625 83.34765625 C122.50272354 70.91997212 125.15556997 57.91130963 124 42 C122.11720352 30.46958947 118.28878708 21.36037011 109 14 C92.59364685 3.52340156 75.67103848 1.72476235 56.640625 1.5859375 C54.99866813 1.56718493 53.35672048 1.54760863 51.71478271 1.5272522 C47.43405647 1.47635614 43.15329913 1.43650553 38.87243652 1.39910889 C34.48779885 1.35879953 30.10328576 1.30783138 25.71875 1.2578125 C17.14591907 1.16155815 8.57302545 1.07699518 0 1 C0 0.67 0 0.34 0 0 Z " fill="#4D4D4D" transform="translate(1303,457)"/>
<path d="M0 0 C5.919375 -0.061875 11.83875 -0.12375 17.9375 -0.1875 C20.71208618 -0.22846802 20.71208618 -0.22846802 23.54272461 -0.27026367 C25.03759105 -0.2790398 26.53246477 -0.28668105 28.02734375 -0.29296875 C29.15662292 -0.3159906 29.15662292 -0.3159906 30.30871582 -0.33947754 C36.35970805 -0.34240214 43.12070993 0.37228261 47.75791931 4.60432434 C48.16780594 5.06489731 48.57769257 5.52547028 49 6 C46 6 46 6 42.35351562 4.53198242 C37.95507813 2.82565095 34.02681219 2.52798993 29.34375 2.48828125 C28.64411133 2.47164429 27.94447266 2.45500732 27.22363281 2.43786621 C24.64938365 2.38071967 22.07463896 2.34797821 19.5 2.3125 C13.725 2.209375 7.95 2.10625 2 2 C2 14.21 2 26.42 2 39 C9.115625 38.814375 9.115625 38.814375 16.375 38.625 C17.8501709 38.59100098 19.3253418 38.55700195 20.84521484 38.52197266 C36.48304309 38.12697724 36.48304309 38.12697724 50 31 C52.87274255 27.36119277 53.86268457 23.46177591 55 19 C55.33 19 55.66 19 56 19 C56.29773894 24.06156204 56.20012691 26.99984136 53 31 C47.25375531 36.94037457 42.08192721 40.01962658 33.71704102 40.22705078 C32.14596055 40.22655805 30.57485324 40.21579715 29.00390625 40.1953125 C28.26394409 40.19329834 27.52398193 40.19128418 26.76159668 40.18920898 C24.02850033 40.17883777 21.29549316 40.15091602 18.5625 40.125 C12.436875 40.08375 6.31125 40.0425 0 40 C0 26.8 0 13.6 0 0 Z " fill="#414141" transform="translate(1337,490)"/>
<path d="M0 0 C2.56307988 2.56307988 3.46922502 3.93845004 5 7 C5.66 7.33 6.32 7.66 7 8 C7 9.32 7 10.64 7 12 C7.66 12 8.32 12 9 12 C9.45375 13.0725 9.9075 14.145 10.375 15.25 C11.25518422 17.3289113 12.15183563 19.27330413 13.25 21.25 C14 23 14 23 13 26 C9.7 20.06 6.4 14.12 3 8 C2.67 38.36 2.34 68.72 2 100 C1.34 100 0.68 100 0 100 C0 67 0 34 0 0 Z " fill="#2F2F2F" transform="translate(1014,508)"/>
<path d="M0 0 C2.89583466 1.29813278 5.01081608 2.50518553 7 5 C7.9193732 9.47570828 8.01312155 14.06427636 5.86328125 18.171875 C1.61266605 23.39310312 -3.38827063 25.9483418 -10 27 C-20.56821142 27.65916247 -31.44857968 28.26729438 -40.15234375 21.26953125 C-45.12794643 16.17182789 -45.27072481 13.78173836 -47 6 C-58.55 6 -70.1 6 -82 6 C-81.01809396 15.81906035 -79.24764716 22.01333742 -74.671875 30.3359375 C-74.45015625 30.88507812 -74.2284375 31.43421875 -74 32 C-74.33 32.66 -74.66 33.32 -75 34 C-79.65042717 29.34957283 -81.71570862 23.33264952 -83 17 C-83 13.04 -83 9.08 -83 5 C-70.79 5 -58.58 5 -46 5 C-43.525 10.94 -43.525 10.94 -41 17 C-34.32860173 23.17722062 -26.99830343 24.37613474 -18.125 24.3125 C-17.3314209 24.30831055 -16.5378418 24.30412109 -15.72021484 24.29980469 C-8.80119368 24.16617247 -3.35681528 23.18192993 2.5 19.375 C4.77666719 15.77027695 5.2118693 12.2298192 5 8 C3.82725006 5.12608179 3.82725006 5.12608179 2 3 C1.01 1.515 1.01 1.515 0 0 Z " fill="#2C2C2C" transform="translate(1718,555)"/>
<path d="M0 0 C0.66 0 1.32 0 2 0 C0.75898644 3.98631909 -0.69508305 7.57175643 -2.6875 11.23828125 C-3.21641846 12.21490723 -3.74533691 13.1915332 -4.2902832 14.19775391 C-4.85448975 15.22562012 -5.41869629 16.25348633 -6 17.3125 C-6.58160889 18.37903809 -7.16321777 19.44557617 -7.76245117 20.54443359 C-12.30779993 28.83737348 -17.03980031 37.00489008 -21.88427734 45.12548828 C-26.99427486 53.71073138 -31.77927889 62.39270318 -36.19384766 71.35571289 C-38.64381629 76.32626329 -41.22702927 81.20062759 -44 86 C-44.66 86 -45.32 86 -46 86 C-43.8205094 80.34813282 -41.03857625 75.05845496 -38.25 69.6875 C-37.67507813 68.57955078 -37.10015625 67.47160156 -36.5078125 66.33007812 C-32.01033034 57.74884322 -27.20041764 49.39045993 -22.25537109 41.06152344 C-16.71459341 31.66433971 -11.70361256 22.02099781 -6.7421875 12.30859375 C-4.6062546 8.13301398 -2.37188949 4.04583063 0 0 Z " fill="#2E2E2E" transform="translate(1574,469)"/>
<path d="M0 0 C14.19 0 28.38 0 43 0 C60 32.3 60 32.3 60 35 C59.34 35 58.68 35 58 35 C48.72773525 17.92159784 48.72773525 17.92159784 45.7734375 9.953125 C44.7866639 7.46127248 43.41733782 5.26774051 42 3 C42 2.34 42 1.68 42 1 C28.8 1 15.6 1 2 1 C5.98551422 8.15504459 5.98551422 8.15504459 9.98852539 15.30029297 C10.47828857 16.18861816 10.96805176 17.07694336 11.47265625 17.9921875 C11.98062744 18.90339355 12.48859863 19.81459961 13.01196289 20.75341797 C13.33801514 21.49479004 13.66406738 22.23616211 14 23 C13.67 23.66 13.34 24.32 13 25 C12.67725098 24.44014404 12.35450195 23.88028809 12.02197266 23.3034668 C10.55735192 20.76421153 9.09119347 18.22584745 7.625 15.6875 C7.11710937 14.80642578 6.60921875 13.92535156 6.0859375 13.01757812 C5.59609375 12.17001953 5.10625 11.32246094 4.6015625 10.44921875 C4.15119629 9.66893311 3.70083008 8.88864746 3.23681641 8.0847168 C2.21165413 6.35675377 1.11449387 4.67174081 0 3 C0 2.01 0 1.02 0 0 Z " fill="#3D3D3D" transform="translate(1433,457)"/>
<path d="M0 0 C3.30736596 2.64189997 5.13232597 4.20235742 5.87890625 8.48828125 C2.87890625 7.48828125 2.87890625 7.48828125 1.12109375 5.15625 C-1.51949362 2.01422705 -4.35098414 0.49951067 -7.99609375 -1.19921875 C-8.89521484 -1.64104492 -8.89521484 -1.64104492 -9.8125 -2.09179688 C-29.99808357 -11.83429654 -54.05150582 -10.06926896 -75.12109375 -4.51171875 C-76.78460672 -4.16298751 -78.44994403 -3.82179536 -80.12109375 -3.51171875 C-62.01130514 -19.23389842 -18.31865027 -13.05583362 0 0 Z " fill="#535353" transform="translate(1742.12109375,465.51171875)"/>
<path d="M0 0 C10.07572141 -0.09314362 20.15133849 -0.16398833 30.22740459 -0.20724869 C34.90737425 -0.22802337 39.58704691 -0.25615335 44.2668457 -0.30175781 C48.79266545 -0.34558008 53.31820157 -0.36921297 57.8442173 -0.37950897 C59.56120066 -0.38683566 61.2781705 -0.40114077 62.99503136 -0.42292023 C76.36402859 -0.58559509 87.53676327 1.33364216 99.5625 7.5625 C101.26599609 8.43068359 101.26599609 8.43068359 103.00390625 9.31640625 C105.53568826 10.73908949 107.82438919 12.07971759 110 14 C110 14.66 110 15.32 110 16 C107.42465184 14.71567053 104.85416256 13.42194927 102.28515625 12.125 C100.87763166 11.41661204 99.47007877 10.70828029 98.0625 10 C97.00772461 9.46632813 97.00772461 9.46632813 95.93164062 8.921875 C87.13161559 4.50124387 78.97061913 1.71223797 69.0234375 1.68115234 C68.27124435 1.67110672 67.51905121 1.6610611 66.74406433 1.65071106 C64.28771648 1.62011863 61.83147637 1.60291143 59.375 1.5859375 C57.66006559 1.56720652 55.94514022 1.54763169 54.23022461 1.5272522 C49.73900702 1.47612873 45.24775961 1.43639769 40.75640869 1.39910889 C36.1643549 1.35894456 31.57242302 1.30790918 26.98046875 1.2578125 C17.98706505 1.16128778 8.9935922 1.07680863 0 1 C0 0.67 0 0.34 0 0 Z " fill="#C8C8C8" transform="translate(1144,458)"/>
<path d="M0 0 C2.31041688 2.08807593 3.51420133 3.77185842 4.54296875 6.70410156 C4.80791138 7.44573547 5.072854 8.18736938 5.3458252 8.95147705 C5.76245422 10.15885529 5.76245422 10.15885529 6.1875 11.390625 C6.48684448 12.23566589 6.78618896 13.08070679 7.09460449 13.95135498 C8.07135135 16.71473097 9.03590618 19.48218683 10 22.25 C10.66788854 24.14999679 11.33651288 26.04973509 12.00585938 27.94921875 C13.02107794 30.83173401 14.03526539 33.7145856 15.04577637 36.59875488 C17.15379542 42.61453377 19.29520531 48.61698382 21.46875 54.609375 C22.23736503 56.73712492 23.00545989 58.86506194 23.7734375 60.99304199 C24.256818 62.32826692 24.74248706 63.6626656 25.23046875 64.99621582 C25.9000925 66.82831658 26.55972094 68.66406158 27.21875 70.5 C27.7746582 72.03140625 27.7746582 72.03140625 28.34179688 73.59375 C29 76 29 76 28 78 C24.8086217 74.45812351 23.81927762 70.49837956 22.625 66 C20.89065803 59.78088165 18.833573 53.92850828 16.24609375 48.00390625 C14.34634588 43.42426326 12.85983932 38.72228352 11.3203125 34.01171875 C6.67735982 19.61542486 6.67735982 19.61542486 0.6640625 5.76171875 C0 4 0 4 0 0 Z " fill="#363636" transform="translate(756,459)"/>
<path d="M0 0 C2.3825658 2.3825658 3.01093097 4.26446637 4.125 7.4375 C4.47820312 8.40558594 4.83140625 9.37367188 5.1953125 10.37109375 C6.28289344 15.275767 6.15155829 19.99801499 6 25 C0.74894558 25.02464928 -4.50207545 25.04283568 -9.75317383 25.05493164 C-11.54094021 25.05997218 -13.32870245 25.06680454 -15.11645508 25.07543945 C-17.68051168 25.0875173 -20.24451397 25.09323094 -22.80859375 25.09765625 C-24.01484657 25.10539818 -24.01484657 25.10539818 -25.24546814 25.11329651 C-27.16401715 25.11349215 -29.08245368 25.06201983 -31 25 C-32.52131167 23.47868833 -32.48454576 21.78019774 -32.875 19.6875 C-33.6322521 16.07334226 -34.52553399 13.8118932 -37 11 C-37 10.34 -37 9.68 -37 9 C-34 10 -34 10 -32.83203125 11.671875 C-32.49558594 12.35765625 -32.15914062 13.0434375 -31.8125 13.75 C-31.46832031 14.42546875 -31.12414063 15.1009375 -30.76953125 15.796875 C-30 18 -30 18 -30 23 C-18.45 23 -6.9 23 5 23 C2.69819276 10.33802266 2.69819276 10.33802266 0 4 C0 2.68 0 1.36 0 0 Z " fill="#3F3F3F" transform="translate(1753,481)"/>
<path d="M0 0 C0.33 0 0.66 0 1 0 C1 32.67 1 65.34 1 99 C-1.60024177 96.39975823 -2.61059043 95.0609716 -4.0625 91.875 C-5.34308323 88.79891979 -5.34308323 88.79891979 -8 87 C-7.67 85.68 -7.34 84.36 -7 83 C-5.02 85.97 -3.04 88.94 -1 92 C-0.67 61.64 -0.34 31.28 0 0 Z " fill="#0B0B0B" transform="translate(1077,457)"/>
<path d="M0 0 C1.34771484 -0.01836914 1.34771484 -0.01836914 2.72265625 -0.03710938 C11.23631395 -0.05597272 11.23631395 -0.05597272 15.125 2.1875 C15.62 3.1775 15.62 3.1775 16.125 4.1875 C15.44695312 4.043125 14.76890625 3.89875 14.0703125 3.75 C4.09023465 1.75951356 -5.3753766 0.76555141 -14.875 5.1875 C-18.04382513 7.34514947 -19.59520753 9.7535636 -20.34375 13.58984375 C-20.61322867 18.0699266 -20.19761717 20.6255217 -17.9375 24.5625 C-14.56660103 27.97192353 -10.25789489 29.4625682 -5.875 31.1875 C-4.53484182 31.84033863 -3.19920342 32.50287782 -1.875 33.1875 C-9.85606426 32.83278603 -14.51024481 30.73535827 -20.25 25.0625 C-23.26886234 21.36836583 -23.64116766 18.23930659 -23.328125 13.55078125 C-22.35524426 8.47670496 -19.82733062 5.9066068 -15.8125 2.875 C-10.46325277 -0.19797181 -5.99813496 0.0042661 0 0 Z " fill="#484848" transform="translate(1696.875,483.8125)"/>
<path d="M0 0 C8.34789331 3.75206387 11.8602435 11.8316295 15 20 C18.53003455 30.59010366 16.23041725 44.74232925 11.828125 54.6328125 C9.68884811 58.73969591 7.86963752 61.36273112 4 64 C5.05347533 61.87841774 6.121574 59.76737284 7.21875 57.66796875 C7.6415625 56.84941406 8.064375 56.03085937 8.5 55.1875 C8.9228125 54.37667969 9.345625 53.56585937 9.78125 52.73046875 C14.36988205 42.4501681 15.01754171 28.77052593 11.5 18 C9.29774947 12.9197181 6.08173979 8.57879894 2.70703125 4.21484375 C1 2 1 2 0 0 Z " fill="#1D1D1D" transform="translate(1228,499)"/>
<path d="M0 0 C1.32987609 4.27755736 0.27724984 6.25030637 -1.625 10.3125 C-4.983324 17.72039486 -7.52436531 25.24801259 -10 33 C-10.72458529 35.25147955 -11.45338681 37.50160905 -12.1875 39.75 C-12.49042969 40.69359375 -12.79335938 41.6371875 -13.10546875 42.609375 C-14 45 -14 45 -16 48 C-16.46129283 49.6474744 -16.92031951 51.29567914 -17.359375 52.94921875 C-18.55422502 56.77419593 -20.30643185 60.37444876 -22 64 C-23 62 -23 62 -22.33837891 59.49169922 C-21.97147949 58.43998535 -21.60458008 57.38827148 -21.2265625 56.3046875 C-20.61385498 54.53496582 -20.61385498 54.53496582 -19.98876953 52.72949219 C-19.53460068 51.44451258 -19.08000104 50.15968517 -18.625 48.875 C-18.16621019 47.56423037 -17.70771668 46.253357 -17.24951172 44.94238281 C-14.29229073 36.51420615 -11.24794975 28.11822794 -8.125 19.75 C-7.76873535 18.79464355 -7.4124707 17.83928711 -7.04541016 16.85498047 C-4.88732314 11.14442833 -2.54603662 5.5484865 0 0 Z " fill="#373737" transform="translate(704,479)"/>
<path d="M0 0 C0.69222656 0.59748047 0.69222656 0.59748047 1.3984375 1.20703125 C9.48540534 7.77569485 17.39492166 9.61190347 27.75 9.35546875 C35.33625995 8.52572157 41.95342531 5.57578625 48 1 C46.4896504 5.53104881 43.04288053 7.81236101 39 10 C30.5074073 13.11874873 19.42667248 13.51664285 11 10 C2.10692391 5.12315182 2.10692391 5.12315182 0 0 Z " fill="#5B5B5B" transform="translate(861,566)"/>
<path d="M0 0 C2.55427373 2.25536995 3.66390358 4.19268965 4.79345703 7.39208984 C5.11033478 8.27665863 5.42721252 9.16122742 5.75369263 10.07260132 C6.08505219 11.02575226 6.41641174 11.9789032 6.7578125 12.9609375 C7.1063327 13.94365631 7.45485291 14.92637512 7.81393433 15.93887329 C8.54910205 18.01706969 9.28013097 20.09673417 10.00732422 22.17773438 C11.11933974 25.35880805 12.24406104 28.53515725 13.37109375 31.7109375 C14.08408577 33.73150548 14.79634963 35.75233058 15.5078125 37.7734375 C15.84322052 38.72253998 16.17862854 39.67164246 16.52420044 40.64950562 C16.83477386 41.54037872 17.14534729 42.43125183 17.46533203 43.34912109 C17.87478561 44.51802383 17.87478561 44.51802383 18.29251099 45.71054077 C19.0375722 48.12158496 19.54623619 50.51905211 20 53 C17.29525097 51.64762548 17.28858054 50.52740855 16.3125 47.6875 C15.96960938 46.70523438 15.62671875 45.72296875 15.2734375 44.7109375 C14.85320313 43.48632812 14.43296875 42.26171875 14 41 C13.12435071 38.48785715 12.24539432 35.97688702 11.3659668 33.46606445 C10.75883024 31.73086403 10.15345072 29.99504758 9.55004883 28.25854492 C6.923131 20.71235522 4.2321395 13.28865005 0.76953125 6.078125 C0 4 0 4 0 0 Z " fill="#424242" transform="translate(785,538)"/>
<path d="M0 0 C0.495 0.99 0.495 0.99 1 2 C-7.67009787 16.00554271 -18.84333177 24.09334511 -35 28 C-38.4375 28.125 -38.4375 28.125 -41 28 C-41 27.67 -41 27.34 -41 27 C-40.30777344 26.87625 -39.61554687 26.7525 -38.90234375 26.625 C-23.07076982 23.28764581 -10.29464705 15.40169384 -1.28515625 1.9765625 C-0.86105469 1.32429687 -0.43695312 0.67203125 0 0 Z " fill="#474747" transform="translate(943,581)"/>
<path d="M0 0 C0.66 0 1.32 0 2 0 C2.51385254 0.99012085 2.51385254 0.99012085 3.03808594 2.00024414 C4.60725208 5.02176309 6.17860787 8.04213816 7.75 11.0625 C8.28882813 12.10083984 8.82765625 13.13917969 9.3828125 14.20898438 C13.41995429 23.77818134 13.41995429 23.77818134 20 31 C21.10546875 33.21484375 21.10546875 33.21484375 22.1875 35.9375 C22.55230469 36.83339844 22.91710938 37.72929688 23.29296875 38.65234375 C24 41 24 41 23 43 C17.63492987 33.6440194 12.30209191 24.27048689 7.03857422 14.85693359 C6.06034144 13.10788833 5.07909722 11.36052832 4.09765625 9.61328125 C3.54980469 8.62714844 3.00195312 7.64101563 2.4375 6.625 C1.96183594 5.77164063 1.48617188 4.91828125 0.99609375 4.0390625 C0 2 0 2 0 0 Z " fill="#3B3B3B" transform="translate(1028,534)"/>
<path d="M0 0 C0.99967075 2.62548351 1.06249301 3.81012871 0.17089844 6.51904297 C-0.2619043 7.45893066 -0.69470703 8.39881836 -1.140625 9.3671875 C-4.12413087 16.15744879 -6.45938263 23.07576 -8.75 30.125 C-9.53521509 32.52384481 -10.32161042 34.92230372 -11.109375 37.3203125 C-11.61936035 38.88676514 -11.61936035 38.88676514 -12.13964844 40.48486328 C-13 43 -13 43 -14 45 C-14.66 45 -15.32 45 -16 45 C-15.26528626 40.5933171 -13.87111902 36.48197265 -12.3828125 32.28515625 C-12.12498993 31.5517955 -11.86716736 30.81843475 -11.60153198 30.06285095 C-11.05684536 28.51664608 -10.51043351 26.971048 -9.96240234 25.42602539 C-9.12964514 23.07561068 -8.30471601 20.72255108 -7.48046875 18.36914062 C-6.94838815 16.86181265 -6.41585097 15.35464576 -5.8828125 13.84765625 C-5.51701584 12.80207298 -5.51701584 12.80207298 -5.14382935 11.73536682 C-3.69174338 7.66285021 -2.01229009 3.82618013 0 0 Z " fill="#3B3B3B" transform="translate(673,563)"/>
<path d="M0 0 C3.38755764 3.08543171 5.50609903 6.28620136 7.75 10.26953125 C8.25998535 11.16837288 8.25998535 11.16837288 8.78027344 12.08537292 C9.85967779 13.99101038 10.92998126 15.9015798 12 17.8125 C12.71814631 19.08432544 13.43689105 20.35581317 14.15625 21.62695312 C15.4881144 23.98208059 16.81574732 26.33940338 18.140625 28.69848633 C19.12449915 30.4454572 20.11530004 32.18931603 21.15820312 33.90170288 C22.1622189 35.56823667 23.08773472 37.2815255 24 39 C23.67 39.66 23.34 40.32 23 41 C18.12424414 34.0047898 13.92977977 26.71119643 9.8125 19.25 C8.59047866 17.04652277 7.36784501 14.84338498 6.14453125 12.640625 C5.34559448 11.19478027 5.34559448 11.19478027 4.53051758 9.71972656 C3.49549355 7.88049101 2.41814414 6.06454257 1.3034668 4.27246094 C0 2 0 2 0 0 Z " fill="#3F3F3F" transform="translate(1363,565)"/>
<path d="M0 0 C3.05967503 2.81797056 4.99423874 5.47436075 6.875 9.17578125 C7.38546875 10.16900391 7.8959375 11.16222656 8.421875 12.18554688 C8.94265625 13.21744141 9.4634375 14.24933594 10 15.3125 C11.04044009 17.35088696 12.08207938 19.38866232 13.125 21.42578125 C13.61484375 22.38693848 14.1046875 23.3480957 14.609375 24.33837891 C15.8087919 26.63403252 17.06178523 28.87381284 18.375 31.10546875 C20 34 20 34 20 36 C19.34 36 18.68 36 18 36 C0 3.28384279 0 3.28384279 0 0 Z " fill="#404040" transform="translate(1452,491)"/>
<path d="M0 0 C1 3 1 3 -0.30078125 6.16015625 C-0.96013769 7.46665883 -1.63162345 8.7670823 -2.3125 10.0625 C-2.66699219 10.75408203 -3.02148438 11.44566406 -3.38671875 12.15820312 C-7.72630183 20.54556972 -12.35630218 28.77837108 -17 37 C-17.66 37 -18.32 37 -19 37 C-17.58441491 33.29516818 -15.93331259 29.80576738 -14.1015625 26.2890625 C-13.25851562 24.66871094 -13.25851562 24.66871094 -12.3984375 23.015625 C-11.52058594 21.33726562 -11.52058594 21.33726562 -10.625 19.625 C-10.0475 18.51382813 -9.47 17.40265625 -8.875 16.2578125 C-6.01666258 10.7760695 -3.12186612 5.33639184 0 0 Z " fill="#3C3C3C" transform="translate(1547,518)"/>
<path d="M0 0 C12.50706513 -1.16344792 26.19492601 5.83469087 36.40234375 12.58984375 C36.92957031 13.05519531 37.45679688 13.52054687 38 14 C38 14.66 38 15.32 38 16 C35.42465184 14.71567053 32.85416256 13.42194927 30.28515625 12.125 C28.87763166 11.41661204 27.47007877 10.70828029 26.0625 10 C25.35931641 9.64421875 24.65613281 9.2884375 23.93164062 8.921875 C18.08350133 5.98410306 12.61095949 3.80243544 6.1875 2.375 C5.02605469 2.11460937 3.86460938 1.85421875 2.66796875 1.5859375 C1.78753906 1.39257812 0.90710937 1.19921875 0 1 C0 0.67 0 0.34 0 0 Z " fill="#484848" transform="translate(1216,458)"/>
<path d="M0 0 C3.43106784 3.09639849 5.42339746 6.25952919 7.56640625 10.33984375 C7.88657211 10.94381485 8.20673798 11.54778595 8.53660583 12.1700592 C9.55215807 14.08898192 10.55764591 16.01295713 11.5625 17.9375 C12.57297364 19.85732752 13.58550848 21.77604916 14.59910583 23.69422913 C15.51827333 25.43612787 16.4322552 27.18076007 17.34594727 28.92553711 C18.93786909 31.98956245 18.93786909 31.98956245 20.77709961 34.71704102 C21.18065674 35.47041748 21.58421387 36.22379395 22 37 C21.67 37.99 21.34 38.98 21 40 C20.34 38.02 19.68 36.04 19 34 C18.34 34 17.68 34 17 34 C15.20496871 31.42452033 13.94553353 28.86674556 12.7578125 25.9609375 C10.24957789 20.04361799 6.91820836 14.53241835 3.76367188 8.94335938 C3.28091797 8.07904297 2.79816406 7.21472656 2.30078125 6.32421875 C1.85903564 5.54135498 1.41729004 4.75849121 0.9621582 3.9519043 C0 2 0 2 0 0 Z " fill="#2E2E2E" transform="translate(1042,491)"/>
<path d="M0 0 C4.13224746 -0.14499114 7.20410128 -0.24643094 11.18554688 0.98632812 C15.07952943 2.02113455 18.44467787 2.31397538 22.46484375 2.4140625 C23.48210289 2.44311172 23.48210289 2.44311172 24.51991272 2.4727478 C26.65898566 2.53191999 28.79811428 2.57867519 30.9375 2.625 C32.39911036 2.66323745 33.86069957 2.70229242 35.32226562 2.7421875 C38.88131543 2.83756819 42.44052587 2.92182567 46 3 C46 3.33 46 3.66 46 4 C35.58582692 5.12803422 25.65641961 5.29861413 15.25 4.125 C14.18628174 4.00741333 14.18628174 4.00741333 13.10107422 3.88745117 C8.56101681 3.33309858 4.36748561 2.3605518 0 1 C0 0.67 0 0.34 0 0 Z " fill="#686868" transform="translate(856,606)"/>
<path d="M0 0 C3.09279861 2.84414392 5.03580162 5.54750355 6.9453125 9.28125 C7.46480469 10.28800781 7.98429687 11.29476562 8.51953125 12.33203125 C9.04933594 13.37746094 9.57914063 14.42289063 10.125 15.5 C10.66253906 16.54542969 11.20007812 17.59085938 11.75390625 18.66796875 C13.8587101 22.76734981 15.94399319 26.87592768 18 31 C14.24044758 29.74681586 14.01167704 28.72456808 12.1875 25.30078125 C11.66929688 24.33849609 11.15109375 23.37621094 10.6171875 22.38476562 C10.08351563 21.37091797 9.54984375 20.35707031 9 19.3125 C8.19949219 17.82073242 8.19949219 17.82073242 7.3828125 16.29882812 C5.90706206 13.54005585 4.44918696 10.7727991 3 8 C2.48373047 7.02232666 2.48373047 7.02232666 1.95703125 6.02490234 C0 2.24521347 0 2.24521347 0 0 Z " fill="#3D3D3D" transform="translate(1052,577)"/>
<path d="M0 0 C0.66 0.33 1.32 0.66 2 1 C0.90234298 2.09765702 -0.19605927 3.1945733 -1.296875 4.2890625 C-2.62981525 5.62811716 -3.95019188 6.97968059 -5.265625 8.3359375 C-6.06484375 9.15320313 -6.8640625 9.97046875 -7.6875 10.8125 C-8.45449219 11.60269531 -9.22148438 12.39289063 -10.01171875 13.20703125 C-12 15 -12 15 -14 15 C-14 15.99 -14 16.98 -14 18 C-14.66 18 -15.32 18 -16 18 C-13.57880287 10.25216917 -8.55028192 4.84929891 -1.734375 0.71484375 C-0.87585937 0.36099609 -0.87585937 0.36099609 0 0 Z " fill="#B3B3B3" transform="translate(1660,462)"/>
<path d="M0 0 C0.66 0 1.32 0 2 0 C2.226875 0.804375 2.45375 1.60875 2.6875 2.4375 C6.51867365 12.8363999 13.19313538 20.29258588 21 28 C11.03095204 24.77471978 6.78055793 16.69975408 2 8 C0.6293801 4.98116629 0 3.33046781 0 0 Z " fill="#555555" transform="translate(823,572)"/>
<path d="M0 0 C3.6813887 2.45425914 4.35507876 4.90917534 5.734375 8.90625 C5.97665833 9.58675415 6.21894165 10.2672583 6.46856689 10.96838379 C6.97761154 12.40573963 7.48162669 13.8448852 7.98095703 15.28564453 C8.74867211 17.49617653 9.53515438 19.69935469 10.32421875 21.90234375 C10.81623575 23.29908107 11.30715902 24.69620425 11.796875 26.09375 C12.03323669 26.75524048 12.26959839 27.41673096 12.51312256 28.0982666 C13.06710377 29.71332553 13.5410565 31.35540844 14 33 C13.67 33.66 13.34 34.32 13 35 C9.80882149 31.45834524 8.81853881 27.49849396 7.625 23 C5.82434492 16.51221261 3.67138287 10.38183184 0.91796875 4.22265625 C0 2 0 2 0 0 Z " fill="#505050" transform="translate(771,502)"/>
<path d="M0 0 C1.5 1.375 1.5 1.375 3 3 C3 3.66 3 4.32 3 5 C-11.19 5 -25.38 5 -40 5 C-39.67 4.34 -39.34 3.68 -39 3 C-19.695 3.495 -19.695 3.495 0 4 C0 2.68 0 1.36 0 0 Z " fill="#939393" transform="translate(1427,603)"/>
<path d="M0 0 C7.58943665 3.41116615 10.83006772 10.14106252 14.1171875 17.44921875 C15 20 15 20 15 24 C14.34 24 13.68 24 13 24 C12.70609375 23.00033203 12.70609375 23.00033203 12.40625 21.98046875 C10.18094088 15.12229626 7.11247148 9.91167462 2.70703125 4.21484375 C1 2 1 2 0 0 Z " fill="#2A2A2A" transform="translate(1228,499)"/>
<path d="M0 0 C2.49552403 2.27597646 4.06622986 4.60721178 5.6875 7.5625 C6.12449219 8.34753906 6.56148437 9.13257813 7.01171875 9.94140625 C8 12 8 12 8 14 C8.66 14 9.32 14 10 14 C10.28875 13.05125 10.5775 12.1025 10.875 11.125 C12 8 12 8 14 6 C13.05714286 12.91428571 13.05714286 12.91428571 11 16 C10.01 16.33 9.02 16.66 8 17 C6.66161267 14.54429825 5.32913768 12.08570084 4 9.625 C3.6184375 8.92632813 3.236875 8.22765625 2.84375 7.5078125 C0 2.2265625 0 2.2265625 0 0 Z " fill="#2E2E2E" transform="translate(1499,504)"/>
<path d="M0 0 C0.69222656 0.59748047 0.69222656 0.59748047 1.3984375 1.20703125 C8.86023472 7.26789816 16.56870296 9.12673176 26 10 C26 10.33 26 10.66 26 11 C16.63171619 11.79292684 10.45929034 10.91847168 3 5 C1.2265625 3.42578125 1.2265625 3.42578125 0 2 C0 1.34 0 0.68 0 0 Z " fill="#454545" transform="translate(861,566)"/>
<path d="M0 0 C0 0.99 0 1.98 0 3 C-4.25026354 7.15581324 -9.45893904 10.83763475 -15 13 C-15.66 12.67 -16.32 12.34 -17 12 C-16.1646875 11.45472656 -16.1646875 11.45472656 -15.3125 10.8984375 C-10.06439173 7.44106888 -4.98311764 3.82898958 0 0 Z " fill="#2A2A2A" transform="translate(1258,587)"/>
<path d="M0 0 C0.33 0 0.66 0 1 0 C1.29773894 5.06156204 1.20012691 7.99984136 -2 12 C-4.58667609 14.43361833 -7.25978323 16.74143653 -10 19 C-10.66 18.67 -11.32 18.34 -12 18 C-10.26024448 16.1686784 -8.73221033 14.83520636 -6.5625 13.5 C-2.69631071 9.72810801 -1.56831549 5.08169266 0 0 Z " fill="#585858" transform="translate(1392,509)"/>
<path d="M0 0 C0.33 0.66 0.66 1.32 1 2 C-2.67042595 7.92914961 -6.50681949 13.59696098 -12 18 C-12.66 18 -13.32 18 -14 18 C-12.96280864 15.35987653 -12.1167806 14.0867513 -9.8125 12.375 C-5.67565373 8.88166315 -2.97374496 4.49061199 0 0 Z " fill="#323232" transform="translate(943,581)"/>
<path d="M0 0 C0.66 0 1.32 0 2 0 C0.3341708 6.16356805 -2.87805286 11.48259656 -6 17 C-6.66 17 -7.32 17 -8 17 C-6.3341708 10.83643195 -3.12194714 5.51740344 0 0 Z " fill="#434343" transform="translate(1574,469)"/>
<path d="M0 0 C2.63884562 2.40111178 4.36413529 5.00555028 6.1875 8.0625 C6.71730469 8.94035156 7.24710938 9.81820312 7.79296875 10.72265625 C9 13 9 13 9 15 C5.24972838 13.74990946 4.79331273 12.52798171 2.8125 9.1875 C2.28269531 8.31480469 1.75289062 7.44210937 1.20703125 6.54296875 C0 4 0 4 0 0 Z " fill="#717171" transform="translate(1401,560)"/>
<path d="M0 0 C1.57128418 4.00878912 0.4085818 7.10354578 -0.75 11.125 C-1.26820313 12.98511719 -1.26820313 12.98511719 -1.796875 14.8828125 C-3 18 -3 18 -6 20 C-4.38808348 13.14078075 -2.64031672 6.53792711 0 0 Z " fill="#636363" transform="translate(680,543)"/>
<path d="M0 0 C4.2967595 0.57342494 7.18479721 2.10158964 10.8125 4.4375 C11.78832031 5.05496094 12.76414062 5.67242187 13.76953125 6.30859375 C14.50558594 6.86675781 15.24164062 7.42492187 16 8 C16 8.66 16 9.32 16 10 C12.48876259 8.30403824 9.12460782 6.38971877 5.75 4.4375 C4.67234375 3.81746094 3.5946875 3.19742187 2.484375 2.55859375 C1.66453125 2.04425781 0.8446875 1.52992188 0 1 C0 0.67 0 0.34 0 0 Z " fill="#2A2A2A" transform="translate(1238,464)"/>
<path d="M0 0 C7.34918342 -0.43230491 13.90215087 1.18225815 21 3 C21 3.33 21 3.66 21 4 C13.65081658 4.43230491 7.09784913 2.81774185 0 1 C0 0.67 0 0.34 0 0 Z " fill="#5D5D5D" transform="translate(856,606)"/>
<path d="M0 0 C0.66 0 1.32 0 2 0 C0.64002446 6.04433574 -2.85651794 9.63494136 -7 14 C-7.66 13.67 -8.32 13.34 -9 13 C-8.51789063 12.39671875 -8.03578125 11.7934375 -7.5390625 11.171875 C-6.90742187 10.37265625 -6.27578125 9.5734375 -5.625 8.75 C-4.99851562 7.96109375 -4.37203125 7.1721875 -3.7265625 6.359375 C-2.21089263 4.28818811 -1.05780366 2.32930503 0 0 Z " fill="#303030" transform="translate(1423,529)"/>
<path d="M0 0 C3.93345152 1.31115051 4.32374076 2.84212778 6.25 6.4375 C6.79140625 7.42621094 7.3328125 8.41492188 7.890625 9.43359375 C8.25671875 10.28050781 8.6228125 11.12742187 9 12 C8.67 12.66 8.34 13.32 8 14 C7.03576974 12.60823368 6.07888398 11.2113777 5.125 9.8125 C4.59132813 9.03519531 4.05765625 8.25789062 3.5078125 7.45703125 C2.01984561 5.0323391 0.97571922 2.6666501 0 0 Z " fill="#252525" transform="translate(1378,592)"/>
<path d="M0 0 C3.47775179 1.51553404 5.9557984 3.5773456 8.75 6.125 C9.94882812 7.21167969 9.94882812 7.21167969 11.171875 8.3203125 C11.77515625 8.87460937 12.3784375 9.42890625 13 10 C12.01 10.495 12.01 10.495 11 11 C9.5344405 9.92646259 8.07779848 8.8407446 6.625 7.75 C5.81289063 7.14671875 5.00078125 6.5434375 4.1640625 5.921875 C2.03173222 4.02818096 1.05363296 2.61671482 0 0 Z " fill="#212121" transform="translate(831,589)"/>
<path d="M0 0 C0.66 0 1.32 0 2 0 C2.696553 1.95513161 3.38199565 3.91422476 4.0625 5.875 C4.44535156 6.96554687 4.82820312 8.05609375 5.22265625 9.1796875 C6 12 6 12 5 14 C1.34133706 9.67612562 0 5.65076098 0 0 Z " fill="#6E6E6E" transform="translate(779,523)"/>
<path d="M0 0 C2.92300138 2.47783163 3.97340327 4.9851711 5.25 8.5625 C5.60578125 9.53316406 5.9615625 10.50382813 6.328125 11.50390625 C7 14 7 14 6 16 C5.73445312 15.38511719 5.46890625 14.77023437 5.1953125 14.13671875 C4.84210937 13.32847656 4.48890625 12.52023437 4.125 11.6875 C3.77695312 10.88699219 3.42890625 10.08648438 3.0703125 9.26171875 C1.97428106 6.8038166 1.97428106 6.8038166 0 4 C0 2.68 0 1.36 0 0 Z " fill="#212121" transform="translate(785,538)"/>
<path d="M0 0 C0.66 0.33 1.32 0.66 2 1 C0.58680023 2.12935196 -0.83071405 3.25330626 -2.25 4.375 C-3.03890625 5.00148438 -3.8278125 5.62796875 -4.640625 6.2734375 C-6.71181189 7.78910737 -8.67069497 8.94219634 -11 10 C-9.54144353 6.31353859 -7.69770955 4.83856029 -4.375 2.75 C-3.55773438 2.22921875 -2.74046875 1.7084375 -1.8984375 1.171875 C-1.27195312 0.78515625 -0.64546875 0.3984375 0 0 Z " fill="#272727" transform="translate(1660,462)"/>
<path d="M0 0 C8.7595092 -0.44539877 8.7595092 -0.44539877 13 3 C13 3.66 13 4.32 13 5 C11.39402675 4.54803755 9.79027492 4.08817673 8.1875 3.625 C6.84751953 3.24214844 6.84751953 3.24214844 5.48046875 2.8515625 C3 2 3 2 0 0 Z " fill="#6E6E6E" transform="translate(1705,550)"/>
<path d="M0 0 C3 1 3 1 4.16796875 2.671875 C7.55343511 9.57251908 7.55343511 9.57251908 7 14 C6.72414063 13.42507813 6.44828125 12.85015625 6.1640625 12.2578125 C4.64297619 9.30751757 2.83650419 6.58192838 1.0234375 3.8046875 C0 2 0 2 0 0 Z " fill="#424242" transform="translate(1716,490)"/>
<path d="M0 0 C7.38461538 0.49230769 7.38461538 0.49230769 10.5 3.0625 C10.995 3.701875 11.49 4.34125 12 5 C8.76344816 5 7.21247361 4.3449153 4.3125 3 C3.50425781 2.62875 2.69601562 2.2575 1.86328125 1.875 C1.24839844 1.58625 0.63351562 1.2975 0 1 C0 0.67 0 0.34 0 0 Z " fill="#626262" transform="translate(1374,491)"/>
<path d="M0 0 C2.35716404 2.15454249 3.78966144 4.19719874 5.1875 7.0625 C5.53167969 7.75472656 5.87585937 8.44695312 6.23046875 9.16015625 C7 11 7 11 7 13 C6.34 13 5.68 13 5 13 C1.96659855 8.95546473 1.06821439 4.84804991 0 0 Z " fill="#3F3F3F" transform="translate(1026,461)"/>
<path d="M0 0 C2.36557373 2.13300328 3.62967528 3.95949399 4.75 6.9375 C5.01296875 7.60652344 5.2759375 8.27554687 5.546875 8.96484375 C6.07046274 11.31647491 5.74954377 12.73617523 5 15 C4.34865075 13.43979133 3.70417036 11.87671421 3.0625 10.3125 C2.70285156 9.44238281 2.34320312 8.57226562 1.97265625 7.67578125 C1.0429688 5.11820735 0.45837375 2.6778677 0 0 Z " fill="#212121" transform="translate(756,459)"/>
<path d="M0 0 C0.66 0 1.32 0 2 0 C1.34580901 5.06998019 -0.8546409 9.41990777 -3 14 C-4 12 -4 12 -3.22265625 9.1796875 C-2.83980469 8.08914063 -2.45695313 6.99859375 -2.0625 5.875 C-1.68222656 4.77929688 -1.30195312 3.68359375 -0.91015625 2.5546875 C-0.60980469 1.71164062 -0.30945313 0.86859375 0 0 Z " fill="#555555" transform="translate(685,529)"/>
<path d="M0 0 C0.99 0.33 1.98 0.66 3 1 C2.360625 1.66 1.72125 2.32 1.0625 3 C-1.58912502 6.85690912 -1.68667121 9.37840033 -2 14 C-2.33 14 -2.66 14 -3 14 C-3.08153933 12.41753293 -3.13943557 10.83383727 -3.1875 9.25 C-3.22230469 8.36828125 -3.25710938 7.4865625 -3.29296875 6.578125 C-2.94923684 3.55328417 -1.99772541 2.24416398 0 0 Z " fill="#202020" transform="translate(1678,489)"/>
<path d="M0 0 C1.43791516 0.14168137 2.8753237 0.28851043 4.3125 0.4375 C5.11300781 0.51871094 5.91351562 0.59992188 6.73828125 0.68359375 C9 1 9 1 12 2 C12 2.66 12 3.32 12 4 C7.6822542 3.49202991 3.96697886 2.80317221 0 1 C0 0.67 0 0.34 0 0 Z " fill="#4D4D4D" transform="translate(1387,459)"/>
<path d="M0 0 C4.28324091 2.51407619 6.64531705 4.12314139 8 9 C3.96189555 7.65396518 2.52704924 5.34663277 0 2 C0 1.34 0 0.68 0 0 Z " fill="#343434" transform="translate(1740,465)"/>
<path d="M0 0 C3 1 3 1 4.6875 3.9375 C6 7 6 7 6 9 C5.34 9 4.68 9 4 9 C0 2.25 0 2.25 0 0 Z " fill="#2A2A2A" transform="translate(1466,518)"/>
<path d="M0 0 C0.59296875 0.20496094 1.1859375 0.40992188 1.796875 0.62109375 C0.51036794 1.31820106 -0.78253165 2.00352251 -2.078125 2.68359375 C-3.15707031 3.25787109 -3.15707031 3.25787109 -4.2578125 3.84375 C-4.89976563 4.10027344 -5.54171875 4.35679687 -6.203125 4.62109375 C-6.863125 4.29109375 -7.523125 3.96109375 -8.203125 3.62109375 C-2.74543269 -0.47217548 -2.74543269 -0.47217548 0 0 Z " fill="#373737" transform="translate(1249.203125,595.37890625)"/>
</svg>
