<?xml version="1.0" encoding="UTF-8"?>
<svg version="1.1" xmlns="http://www.w3.org/2000/svg" width="1920" height="1080">
<path d="M0 0 C1.04813928 -0.00226556 2.09627857 -0.00453111 3.17617965 -0.00686532 C6.66407504 -0.01316043 10.15193112 -0.01237886 13.63983154 -0.0115509 C16.15057932 -0.01454519 18.66132664 -0.01794834 21.17207336 -0.02172852 C27.27014554 -0.02963054 33.36820349 -0.03278197 39.46628031 -0.03334089 C44.42730747 -0.03381749 49.38833145 -0.03587937 54.3493576 -0.03904152 C68.44110325 -0.04783964 82.5328413 -0.05246219 96.62458971 -0.05171105 C97.76207827 -0.05165111 97.76207827 -0.05165111 98.92254639 -0.05158997 C100.06143734 -0.05152864 100.06143734 -0.05152864 101.22333619 -0.05146609 C113.5222888 -0.05105981 125.82121078 -0.06062677 138.12015453 -0.07472833 C150.77441976 -0.08912184 163.42867007 -0.09599689 176.08294368 -0.09513456 C183.17698509 -0.09480362 190.27099438 -0.09750514 197.36502838 -0.10831261 C204.03977744 -0.11841686 210.71444766 -0.11805199 217.38920403 -0.11079597 C219.83119493 -0.10975391 222.27319012 -0.1120904 224.71517372 -0.11815643 C250.42859144 -0.17786529 272.02660945 2.05879331 291.71697998 20.49699402 C310.2696304 40.72807485 310.43933639 65.10903505 310.39373779 91.03239441 C310.39645187 93.63254901 310.40001514 96.23270284 310.40435791 98.83285522 C310.41319805 105.13011472 310.41135418 111.42732622 310.40553263 117.72458751 C310.4009952 122.84711095 310.40041218 127.96962104 310.40258026 133.09214592 C310.40288673 133.82431754 310.40319319 134.55648916 310.40350895 135.3108478 C310.40414847 136.79874655 310.4047969 138.28664531 310.40545413 139.77454405 C310.41114156 153.68887509 310.40462433 167.60317966 310.3938534 181.51750635 C310.38491745 193.42970883 310.38647337 205.34187232 310.39569092 217.2540741 C310.40641846 231.12397684 310.41059435 244.99385648 310.40446639 258.8637628 C310.40382936 260.34554032 310.40320062 261.82731785 310.40258026 263.30909538 C310.40227171 264.03795393 310.40196316 264.76681247 310.40164526 265.51775764 C310.3999259 270.6284626 310.40281693 275.73915276 310.40753937 280.84985542 C310.4137673 287.74053814 310.40926927 294.63114641 310.39775085 301.52182198 C310.39511801 304.04283019 310.39584569 306.56384462 310.40027618 309.08485031 C310.44061479 334.37992 309.08511923 357.34539605 290.70916748 376.75090027 C277.01871476 389.42339824 261.28095331 395.45134107 242.75822449 395.40786743 C241.64293037 395.41310411 240.52763625 395.41834079 239.37854534 395.42373616 C235.65725441 395.43868668 231.93610157 395.43944023 228.21478271 395.44010925 C225.53993664 395.44773414 222.86510196 395.45611411 220.19026184 395.46533203 C212.93375408 395.48811319 205.6772757 395.49609533 198.42073703 395.50115848 C193.88255364 395.50442378 189.34437865 395.51095129 184.80620003 395.51815987 C172.22055937 395.53771747 159.6349265 395.55412638 147.04926968 395.5570364 C146.24498528 395.55722397 145.44070087 395.55741154 144.61204422 395.55760479 C142.98183731 395.55797102 141.35163041 395.55833472 139.7214235 395.5586959 C138.91227892 395.55887872 138.10313433 395.55906153 137.26947021 395.55924988 C136.05425726 395.5595207 136.05425726 395.5595207 134.81449456 395.559797 C121.69875325 395.56333572 108.58317641 395.59034295 95.4674921 395.62774777 C81.97477308 395.66591725 68.4821355 395.68519451 54.98936135 395.68549591 C47.42456693 395.68607857 39.85996874 395.69444609 32.29522514 395.72349358 C25.85168206 395.74812354 19.40840675 395.75521278 12.9648292 395.74024605 C9.68365409 395.73312384 6.40311096 395.73650381 3.12197495 395.75665665 C-20.00617193 395.88997675 -38.94447987 392.79094616 -56.13458252 375.99699402 C-69.9376548 361.52252767 -75.02172324 344.46255746 -75.00549316 324.90811157 C-75.00846429 323.78494807 -75.01143541 322.66178456 -75.01449656 321.5045858 C-75.02316113 317.74480479 -75.02468993 313.9850557 -75.02618408 310.2252655 C-75.03081387 307.52776948 -75.03581847 304.83027632 -75.04122925 302.13278198 C-75.05478361 294.80604552 -75.0608329 287.47931454 -75.06523991 280.15256763 C-75.0680075 275.57253641 -75.07224582 270.99250729 -75.07674408 266.41247749 C-75.08893347 253.71710944 -75.0992331 241.02174306 -75.10261917 228.32636929 C-75.10283874 227.5145763 -75.1030583 226.70278331 -75.10328452 225.86639053 C-75.1035028 225.05271802 -75.10372108 224.2390455 -75.10394597 223.40071625 C-75.10438943 221.75206339 -75.10483599 220.10341054 -75.10528564 218.45475769 C-75.10550707 217.63697887 -75.1057285 216.81920005 -75.10595664 215.97664005 C-75.10990157 202.73660481 -75.12734776 189.4966247 -75.15064517 176.25661074 C-75.17440333 162.64418997 -75.18682307 149.03179681 -75.18798709 135.41935498 C-75.1889014 127.78422322 -75.19459181 120.14916331 -75.2128067 112.51405144 C-75.22826816 106.01043367 -75.23329276 99.50690996 -75.2250686 93.00327729 C-75.22118317 89.69006986 -75.22364627 86.37720416 -75.23612595 83.06399536 C-75.3245059 58.12842077 -72.85282357 37.85121604 -55.05255127 18.88371277 C-39.45134181 3.98333889 -20.76364456 -0.03344925 0 0 Z " fill="#5865F3" transform="translate(195.86505126953125,344.8662872314453)"/>
<path d="M0 0 C7.3150979 6.40071066 14.43436137 13.42692985 19.375 21.8671875 C19.375 22.5271875 19.375 23.1871875 19.375 23.8671875 C20.8909375 23.1865625 20.8909375 23.1865625 22.4375 22.4921875 C35.91022301 16.44320982 53.23711755 16.77445303 67.06884766 21.60913086 C83.45256396 27.96055584 95.12404024 40.15393118 102.375 55.8671875 C107.9213234 69.70942805 108.04319736 83.74134354 103.375 97.8671875 C103.10816406 98.71667969 102.84132813 99.56617188 102.56640625 100.44140625 C96.85224599 116.61882886 83.95256753 127.88409031 68.875 135.1796875 C57.67871139 139.66648315 45.8966418 139.16503462 34.04907227 139.15771484 C32.10635115 139.1637078 30.16363241 139.1705151 28.22091675 139.17807007 C22.97091697 139.19565522 17.72098248 139.20042217 12.47095609 139.20170164 C9.18542832 139.20312759 5.89991692 139.2074055 2.61439323 139.21269608 C-8.86295747 139.23116877 -20.34026187 139.2393698 -31.81762695 139.23779297 C-42.49282578 139.23659104 -53.1678226 139.25771069 -63.84297031 139.2892803 C-73.03057438 139.31547648 -82.21811257 139.32615892 -91.40575367 139.32488215 C-96.88339773 139.32437368 -102.36086192 139.32999401 -107.83846855 139.35123825 C-112.9907742 139.37067802 -118.14272936 139.37070591 -123.29504776 139.35620499 C-125.17832644 139.35412319 -127.06162742 139.35877996 -128.94486809 139.3709259 C-148.92975771 139.49140307 -164.92886113 134.05041105 -179.625 119.8671875 C-192.64764237 104.6925923 -198.26317936 87.12979118 -196.89990234 67.31835938 C-195.1709785 51.90237767 -187.29160954 39.73574662 -176.625 28.8671875 C-176.01011719 28.2278125 -175.39523438 27.5884375 -174.76171875 26.9296875 C-163.43159372 16.06053115 -148.2482436 11.88216488 -132.875 11.5546875 C-127.81040369 11.67319406 -123.00694562 12.34432139 -118.0625 13.4296875 C-115.44541858 13.89942006 -113.27316135 14.17491165 -110.625 13.8671875 C-108.86064414 12.45247418 -108.86064414 12.45247418 -107.4375 10.4296875 C-94.75545915 -5.04021578 -77.63808039 -14.35802618 -57.76171875 -16.8515625 C-36.79365159 -18.73163826 -16.46775486 -13.38005082 0 0 Z " fill="#F6E6F3" transform="translate(358.625,477.1328125)"/>
<path d="M0 0 C15.18 0 30.36 0 46 0 C47.835625 3.5475 49.67125 7.095 51.5625 10.75 C56.57282131 20.38269019 61.69057442 29.85973848 67.5625 39 C70.12382557 43.04507081 72.1649271 47.3057895 74.26953125 51.6015625 C76.57197785 56.12329736 79.08676509 60.51093109 81.60351562 64.91577148 C84.73971844 70.44313062 87.56885151 76.0779124 90.296875 81.81640625 C92.32653914 85.77452029 92.32653914 85.77452029 97 92 C97.33 61.64 97.66 31.28 98 0 C110.21 0 122.42 0 135 0 C135 49.83 135 99.66 135 151 C119.82 151 104.64 151 89 151 C82.26468602 139.7744767 82.26468602 139.7744767 79.5546875 134.63671875 C78.95865723 133.51297852 78.36262695 132.38923828 77.74853516 131.23144531 C77.44296692 130.65317993 77.13739868 130.07491455 76.8225708 129.47912598 C70.55000777 117.6192345 64.04132119 105.91330859 57.32714844 94.29736328 C51.75465556 84.65108697 46.3653036 74.97423584 41.47363281 64.96166992 C40.05898618 61.7662656 40.05898618 61.7662656 38 59 C37.67 89.36 37.34 119.72 37 151 C24.79 151 12.58 151 0 151 C0 101.17 0 51.34 0 0 Z " fill="#000000" transform="translate(979,457)"/>
<path d="M0 0 C83.00337838 0 83.00337838 0 96.5 6.375 C97.13679688 6.6534375 97.77359375 6.931875 98.4296875 7.21875 C103.04544137 9.3099691 107.02302725 11.85327156 111 15 C111 15.66 111 16.32 111 17 C111.89332031 17.41378906 111.89332031 17.41378906 112.8046875 17.8359375 C125.13928378 24.37634621 132.26562819 41.02770165 136.16015625 53.6953125 C141.10497991 73.15261864 139.55916584 96.17117456 130 114 C129.34 114 128.68 114 128 114 C127.75894531 114.886875 127.51789063 115.77375 127.26953125 116.6875 C125.8890602 120.28946754 124.33453847 122.22394621 121.6875 125 C119.16243746 127.68162444 116.70960927 130.30385431 114.5 133.25 C104.83030022 143.88666976 88.11946837 150.0002066 73.98273087 151.16641426 C68.69192186 151.41144657 63.40005351 151.34595237 58.10546875 151.29296875 C56.60958188 151.2885444 55.11369032 151.28549221 53.61779785 151.28381348 C48.14095994 151.26824113 42.6642222 151.22635826 37.1875 151.1875 C24.915625 151.125625 12.64375 151.06375 0 151 C0 101.17 0 51.34 0 0 Z M36 35 C36 61.73 36 88.46 36 116 C65.05404606 117.56393726 65.05404606 117.56393726 88.6875 105.6875 C98.38672469 94.41542806 100.03386921 82.65628041 99.20263672 68.17626953 C98.25761386 58.02695175 92.31771675 48.86219539 84.90234375 42.08203125 C70.80199502 31.71789108 52.25679019 35 36 35 Z " fill="#000000" transform="translate(1143,457)"/>
<path d="M0 0 C18.5625 -0.0928125 18.5625 -0.0928125 37.5 -0.1875 C41.37427734 -0.21481201 45.24855469 -0.24212402 49.24023438 -0.27026367 C54.05566406 -0.28381348 54.05566406 -0.28381348 56.32629395 -0.28633118 C57.87645062 -0.29086898 59.42659829 -0.30127227 60.97668457 -0.31672668 C74.61109538 -0.44559292 89.08768865 -0.06394945 101.375 6.5625 C102.03218018 6.90619629 102.68936035 7.24989258 103.36645508 7.60400391 C114.42749493 13.69456789 121.25086081 22.43384165 125.078125 34.359375 C128.84103591 49.21968419 127.4148347 64.34250539 120.10546875 77.80078125 C114.10975454 86.9111522 105.81175386 91.70103568 96 96 C99.90481891 104.38107474 104.45978049 112.1125911 109.41015625 119.90234375 C112.68984462 125.0642027 115.82002279 130.31251726 118.94921875 135.56640625 C120.25228897 137.7481181 121.56619465 139.92342262 122.89453125 142.08984375 C123.44496094 142.98832031 123.99539063 143.88679687 124.5625 144.8125 C125.03816406 145.58207031 125.51382812 146.35164062 126.00390625 147.14453125 C127 149 127 149 127 151 C121.00468338 151.27280923 115.01300356 151.47189723 109.01293945 151.60424805 C106.97453883 151.65942742 104.93657098 151.73439718 102.8996582 151.82983398 C86.08374546 152.59774013 86.08374546 152.59774013 81.31298828 148.93969727 C79.43997794 146.03854719 78.23269559 143.22240437 77 140 C75.86155014 137.94375812 74.69413854 135.90331527 73.5 133.87890625 C72.33001329 131.7752806 71.16336255 129.66979622 70 127.5625 C68.83443719 125.45902337 67.6677723 123.35615705 66.5 121.25390625 C65.93152344 120.2292627 65.36304688 119.20461914 64.77734375 118.14892578 C62.35081977 113.84984525 59.82561145 109.61124194 57.28515625 105.37866211 C56 103 56 103 56 101 C49.4 101 42.8 101 36 101 C36 117.5 36 134 36 151 C24.12 151 12.24 151 0 151 C0 101.17 0 51.34 0 0 Z M36 35 C36 47.21 36 59.42 36 72 C40.74375 72.04125 45.4875 72.0825 50.375 72.125 C51.8501709 72.14320801 53.3253418 72.16141602 54.84521484 72.18017578 C65.51184451 72.22483014 75.48407631 72.11954821 84 65 C87.53758742 60.82746099 88.90714943 57.47818341 89 52 C88.18466349 46.57706416 86.54010655 42.98121395 82.1875 39.5625 C76.33135504 35.45969185 70.55366661 34.70855556 63.5390625 34.8046875 C62.48658325 34.80770874 62.48658325 34.80770874 61.4128418 34.81079102 C58.81682707 34.8211762 56.22090628 34.84909824 53.625 34.875 C47.80875 34.91625 41.9925 34.9575 36 35 Z " fill="#000000" transform="translate(1303,457)"/>
<path d="M0 0 C0.66124878 0.00021149 1.32249756 0.00042297 2.00378418 0.00064087 C16.36062374 0.04643656 30.06238017 1.45304829 42.4375 9.375 C43.05625 9.76945312 43.675 10.16390625 44.3125 10.5703125 C53.21487169 17.20734853 59.46542241 29.60641843 61.4375 40.375 C61.55462999 44.04549726 61.5255033 47.70412166 61.4375 51.375 C56.18644558 51.39964928 50.93542455 51.41783568 45.68432617 51.42993164 C43.89655979 51.43497218 42.10879755 51.44180454 40.32104492 51.45043945 C37.75698832 51.4625173 35.19298603 51.46823094 32.62890625 51.47265625 C31.42265343 51.48039818 31.42265343 51.48039818 30.19203186 51.48829651 C28.27348285 51.48849215 26.35504632 51.43701983 24.4375 51.375 C22.91618833 49.85368833 22.95295424 48.15519774 22.5625 46.0625 C21.8052479 42.44834226 20.91196601 40.1868932 18.4375 37.375 C18.4375 36.715 18.4375 36.055 18.4375 35.375 C8.29540738 30.79470011 -2.76004619 29.72685831 -13.35546875 33.34765625 C-17.20670621 35.14035617 -18.49368673 36.58217567 -20.5625 40.375 C-21.57010835 45.5389928 -21.25605888 49.16686517 -18.625 53.75 C-13.16314225 59.22154137 -4.90158392 61.0289226 2.42578125 62.55859375 C4.11914677 62.93291491 5.81250595 63.30726477 7.50585938 63.68164062 C10.12458136 64.24833333 12.74408398 64.81123303 15.36401367 65.37231445 C33.65255129 69.31426945 50.15366005 74.21930714 61.4375 90.375 C66.84398272 100.948564 66.59230478 113.24080653 63.47265625 124.45703125 C59.24780899 136.36631766 51.26337338 144.58623258 40.00073242 150.06958008 C18.01029131 160.01909522 -11.49375899 158.66288262 -34.01953125 150.796875 C-41.01210229 147.99059511 -46.57103518 144.02323651 -51.5625 138.375 C-52.41134766 137.43914062 -52.41134766 137.43914062 -53.27734375 136.484375 C-61.66749244 126.6219592 -62.5625 118.32698861 -62.5625 105.375 C-50.3525 105.375 -38.1425 105.375 -25.5625 105.375 C-23.9125 109.335 -22.2625 113.295 -20.5625 117.375 C-13.89110173 123.55222062 -6.56080343 124.75113474 2.3125 124.6875 C3.1060791 124.68331055 3.8996582 124.67912109 4.71728516 124.67480469 C11.63630632 124.54117247 17.08068472 123.55692993 22.9375 119.75 C25.22686133 116.12517789 25.60522718 112.62154722 25.4375 108.375 C23.9897372 104.12822911 21.05689939 101.78654965 17.203125 99.5546875 C10.65187752 96.76022883 3.39609473 95.75315165 -3.5625 94.375 C-41.70769885 86.80226735 -41.70769885 86.80226735 -52.5625 72.375 C-53.325625 71.570625 -54.08875 70.76625 -54.875 69.9375 C-61.46375522 59.93235318 -60.6245113 46.50751899 -59.12890625 35.0546875 C-57.53095419 28.08721952 -53.91605941 22.94350622 -49.5625 17.375 C-48.964375 16.4675 -48.36625 15.56 -47.75 14.625 C-35.52692916 2.05269857 -16.52540591 -0.02184799 0 0 Z " fill="#000000" transform="translate(1697.5625,454.625)"/>
<path d="M0 0 C12.21 0 24.42 0 37 0 C37.01458252 2.85575684 37.02916504 5.71151367 37.04418945 8.65380859 C37.09463781 18.11345184 37.16125094 27.57293225 37.23571491 37.03241539 C37.28034816 42.76492265 37.31961986 48.49735998 37.34643555 54.22998047 C37.37253871 59.76738459 37.4129908 65.30451863 37.46318626 70.84175491 C37.47980759 72.94909925 37.49135123 75.05649026 37.49761391 77.16389084 C37.50730656 80.12696059 37.5354274 83.08934672 37.56762695 86.05224609 C37.56619186 86.91396423 37.56475677 87.77568237 37.5632782 88.66351318 C37.6954114 97.32094404 39.3444705 105.20709419 45.46875 111.6015625 C52.31452593 117.85357215 60.78187647 118.46492884 69.67578125 118.3203125 C76.73661439 117.6399502 84.04405918 115.25630087 89 110 C94.4374557 102.07685026 95.29479374 93.7764814 95.31884766 84.34936523 C95.32889328 83.43121536 95.3389389 82.51306549 95.34928894 81.5670929 C95.3799185 78.5642656 95.39709939 75.56152662 95.4140625 72.55859375 C95.43279044 70.46394603 95.45236505 68.36930573 95.4727478 66.27467346 C95.52390314 60.78555692 95.56361742 55.29641596 95.60089111 49.80718994 C95.64103518 44.19626915 95.69207991 38.58544847 95.7421875 32.97460938 C95.83875018 21.98313652 95.92220895 10.99162176 96 0 C107.88 0 119.76 0 132 0 C132.06799959 13.18773616 132.12294486 26.3753543 132.15543652 39.5632267 C132.17103733 45.68805117 132.1921729 51.81274861 132.22631836 57.9375 C132.25911178 63.85733652 132.27689493 69.77705149 132.28463173 75.69697189 C132.29013955 77.94620042 132.30089414 80.19542292 132.31719017 82.44459915 C132.42066089 97.32871604 132.51244101 111.79418673 125.375 125.3125 C125.024375 125.98345703 124.67375 126.65441406 124.3125 127.34570312 C117.32368949 140.14613089 106.07106777 146.78393527 92.46484375 151.12890625 C85.7198191 152.79305417 78.93403303 153.67369256 72 154 C71.1646875 154.04125 70.329375 154.0825 69.46875 154.125 C51.62173818 154.55504848 34.9063907 151.22389994 20 141 C18.96875 140.319375 17.9375 139.63875 16.875 138.9375 C4.12415417 127.67183792 1.09844373 109.9981712 0 94 C-0.3083728 86.56326744 -0.23524893 79.12096784 -0.1953125 71.6796875 C-0.19157112 69.59791196 -0.18872949 67.51613464 -0.18673706 65.43435669 C-0.17918902 60.01925587 -0.15961907 54.6042665 -0.1373291 49.18920898 C-0.11667772 43.6378734 -0.10769457 38.08651938 -0.09765625 32.53515625 C-0.07636265 21.69004793 -0.04125524 10.84505077 0 0 Z " fill="#000000" transform="translate(819,457)"/>
<path d="M0 0 C14.52 0 29.04 0 44 0 C47.26203621 6.52407242 50.08626395 12.51065734 52.3828125 19.328125 C52.67905518 20.18778366 52.97529785 21.04744232 53.28051758 21.93315125 C53.90997216 23.76131694 54.5364835 25.59049836 55.16021729 27.42062378 C56.80003284 32.22963938 58.46373099 37.03039355 60.125 41.83203125 C60.45484894 42.78707047 60.78469788 43.74210968 61.12454224 44.72608948 C64.04247828 53.1603994 67.05048002 61.55913778 70.125 69.9375 C70.5492627 71.09991211 70.97352539 72.26232422 71.41064453 73.45996094 C73.29238897 78.56766039 75.25435079 83.61536778 77.37353516 88.62939453 C79.92727384 94.73363591 82.19710145 100.91098744 84.390625 107.15234375 C84.7807074 108.2555043 85.17078979 109.35866486 85.57269287 110.49525452 C86.38769649 112.80296943 87.20101438 115.11128033 88.01269531 117.42016602 C89.25596595 120.95445963 90.50654836 124.48610766 91.7578125 128.01757812 C92.55251989 130.2706794 93.34680587 132.52392937 94.140625 134.77734375 C94.51350647 135.82945541 94.88638794 136.88156708 95.27056885 137.96556091 C95.61472839 138.94750931 95.95888794 139.9294577 96.31347656 140.94116211 C96.61594299 141.79987411 96.91840942 142.65858612 97.2300415 143.5433197 C98 146 98 146 99 151 C86.79 151 74.58 151 62 151 C56.3324937 137.39798489 56.3324937 137.39798489 54.6875 132.375 C54.36136719 131.39273438 54.03523437 130.41046875 53.69921875 129.3984375 C53 127 53 127 53 125 C32.87 125.33 12.74 125.66 -8 126 C-10.64 132.93 -13.28 139.86 -16 147 C-16.66 148.32 -17.32 149.64 -18 151 C-30.21 151 -42.42 151 -55 151 C-54.12046675 146.60233376 -52.90441945 142.56267066 -51.41796875 138.35546875 C-51.16251785 137.62685135 -50.90706696 136.89823395 -50.64387512 136.14753723 C-50.10343069 134.60970987 -49.56121324 133.0725046 -49.01733398 131.53588867 C-48.19465363 129.2077444 -47.38120198 126.87651617 -46.56835938 124.54492188 C-46.03962359 123.04407305 -45.51034388 121.54341571 -44.98046875 120.04296875 C-44.74176559 119.35623581 -44.50306244 118.66950287 -44.25712585 117.96195984 C-43.02785185 114.5140255 -41.66699214 111.25457989 -39.98510742 108.0012207 C-37.97557918 104.08681628 -36.5774688 100.12716713 -35.2578125 95.9375 C-34.74178868 94.34704511 -34.22378555 92.75723144 -33.70410156 91.16796875 C-33.4303772 90.33056152 -33.15665283 89.4931543 -32.87463379 88.63037109 C-30.34875035 81.03403664 -27.61802865 73.50583972 -24.93115234 65.96533203 C-23.86665729 62.97657637 -22.80622648 59.98639916 -21.74609375 56.99609375 C-21.05753286 55.05981005 -20.36873916 53.12360911 -19.6796875 51.1875 C-19.3691745 50.31125977 -19.0586615 49.43501953 -18.73873901 48.53222656 C-15.95243245 40.72851496 -12.90164101 33.04813781 -9.625 25.4375 C-7.16423962 19.57599935 -5.04364538 13.61672602 -2.96728516 7.61108398 C-1.08582944 2.17165888 -1.08582944 2.17165888 0 0 Z M22 41 C21.72027344 41.72960937 21.44054687 42.45921875 21.15234375 43.2109375 C20.55099609 44.77714844 20.55099609 44.77714844 19.9375 46.375 C19.47988281 47.56738281 19.02226563 48.75976562 18.55078125 49.98828125 C17.49854176 52.72004384 16.43190823 55.44565519 15.35546875 58.16796875 C12.12697876 66.35282112 9.03453707 74.57079085 6.125 82.875 C5.82674316 83.72521729 5.52848633 84.57543457 5.22119141 85.45141602 C4.00173629 88.96525072 2.90384189 92.38463242 2 96 C15.2 96 28.4 96 42 96 C35.6796645 77.66212518 29.3499849 59.32762649 23 41 C22.67 41 22.34 41 22 41 Z " fill="#000000" transform="translate(712,457)"/>
<path d="M0 0 C14.19 0 28.38 0 43 0 C49.44925626 12.25358689 55.79999116 24.49701055 61.89648438 36.91992188 C65.24169281 43.67533136 68.79330406 50.21272906 72.70825195 56.65649414 C74 59 74 59 74 61 C74.66 61 75.32 61 76 61 C76.25523438 60.16339844 76.51046875 59.32679688 76.7734375 58.46484375 C78.11618852 54.67178593 79.80123012 51.13921801 81.625 47.5625 C81.97836426 46.86294189 82.33172852 46.16338379 82.69580078 45.44262695 C85.66582712 39.59147751 88.73892744 33.7978686 91.84765625 28.01953125 C94.80597564 22.51435132 97.69566516 16.97274656 100.58740234 11.43237305 C100.98781738 10.66836182 101.38823242 9.90435059 101.80078125 9.1171875 C102.15309814 8.44284668 102.50541504 7.76850586 102.8684082 7.07373047 C103.2418335 6.38939941 103.61525879 5.70506836 104 5 C104.34482422 4.10015381 104.68964844 3.20030762 105.04492188 2.27319336 C107 0 107 0 108.88993835 -0.43084717 C111.43491305 -0.5817947 113.93198824 -0.56109579 116.48046875 -0.48828125 C117.87245232 -0.47766914 117.87245232 -0.47766914 119.29255676 -0.46684265 C122.2583558 -0.43883943 125.22227108 -0.37609033 128.1875 -0.3125 C130.19723837 -0.28742478 132.20700632 -0.26461026 134.21679688 -0.24414062 C139.14525776 -0.18899327 144.07230946 -0.10267997 149 0 C148.12623226 3.80114516 146.62440962 7.09361193 144.875 10.5625 C144.36308105 11.58114136 144.36308105 11.58114136 143.84082031 12.62036133 C136.03152503 27.93769818 127.40361714 42.86149669 118.8125 57.75 C113.45826787 67.03133183 108.49512807 76.49669609 103.59375 86.0234375 C101.49932374 90.08177226 99.30303171 94.05660136 97 98 C96.34 98 95.68 98 95 98 C94.12449979 101.03802167 93.8516368 103.7949886 93.79467773 106.95214844 C93.77473251 107.93286316 93.75478729 108.91357788 93.73423767 109.92401123 C93.71752518 110.97518127 93.70081268 112.02635132 93.68359375 113.109375 C93.6524221 114.73229462 93.6524221 114.73229462 93.62062073 116.38800049 C93.55527069 119.84193613 93.49630771 123.29594737 93.4375 126.75 C93.39430096 129.09245571 93.35068622 131.4349038 93.30664062 133.77734375 C93.19882245 139.51815283 93.09964035 145.25901983 93 151 C80.79 151 68.58 151 56 151 C56.10183594 147.78765625 56.20367188 144.5753125 56.30859375 141.265625 C56.80305365 116.42893617 56.55099023 96.78386587 41.47460938 76.24682617 C40.06354789 74.09682636 39.43000743 72.51258534 39 70 C38.34 70 37.68 70 37 70 C25.33352262 48.82952761 25.33352262 48.82952761 21.625 41.125 C17.30239215 32.29744105 12.19732537 23.90296938 7.20703125 15.44140625 C6.37679443 14.03012451 6.37679443 14.03012451 5.52978516 12.59033203 C4.58943929 10.99807707 3.64262523 9.40959511 2.68505859 7.82763672 C0 3.325 0 3.325 0 0 Z " fill="#000000" transform="translate(1433,457)"/>
<path d="M0 0 C12.21 0 24.42 0 37 0 C37 38.94 37 77.88 37 118 C58.12 118 79.24 118 101 118 C101 128.89 101 139.78 101 151 C67.67 151 34.34 151 0 151 C0 101.17 0 51.34 0 0 Z " fill="#000000" transform="translate(553,457)"/>
<path d="M0 0 C9.9 0 19.8 0 30 0 C30.07386708 11.89259968 30.06779633 23.74238635 29.5625 35.625 C29.52326416 36.58929932 29.48402832 37.55359863 29.44360352 38.54711914 C29.40162842 39.45196045 29.35965332 40.35680176 29.31640625 41.2890625 C29.27974854 42.08006348 29.24309082 42.87106445 29.20532227 43.68603516 C28.98693536 46.14723739 28.4845779 48.5771105 28 51 C19.42 51 10.84 51 2 51 C1.03362182 40.06124867 0.69031567 29.16176367 0.4375 18.1875 C0.39419001 16.41600802 0.35057233 14.64452354 0.30664062 12.87304688 C0.20032012 8.58211181 0.10028919 4.29109697 0 0 Z " fill="#000000" transform="translate(1589,446)"/>
</svg>
