<?xml version="1.0" encoding="UTF-8"?>
<svg version="1.1" xmlns="http://www.w3.org/2000/svg" width="1920" height="1080">
<path d="M0 0 C15.18 0 30.36 0 46 0 C47.835625 3.568125 49.67125 7.13625 51.5625 10.8125 C52.67234165 12.95428665 53.78591418 15.09415272 54.90625 17.23046875 C55.41220703 18.19879639 55.91816406 19.16712402 56.43945312 20.16479492 C58.4997101 23.90787444 60.78973336 27.46961963 63.1640625 31.01953125 C66.36260434 36.21205769 69.07241624 41.66958429 71.86987305 47.08569336 C74.59666028 52.35440888 77.39169985 57.55965962 80.375 62.6875 C82.59832479 66.51053408 84.70105771 70.33067006 86.625 74.3125 C88.64172034 78.46215846 91.02582329 82.21371035 93.66796875 85.9921875 C95 88 95 88 97 92 C97.33 61.64 97.66 31.28 98 0 C110.21 0 122.42 0 135 0 C135 49.83 135 99.66 135 151 C120.15 151 105.3 151 90 151 C83.2553495 142.00713267 83.2553495 142.00713267 81.140625 137.8203125 C80.66939209 136.89976074 80.19815918 135.97920898 79.71264648 135.03076172 C79.22997314 134.07186035 78.7472998 133.11295898 78.25 132.125 C77.20636023 130.08755029 76.16075938 128.05110402 75.11328125 126.015625 C74.59459473 125.00693359 74.0759082 123.99824219 73.54150391 122.95898438 C71.24770988 118.55594612 68.85761888 114.20960901 66.4375 109.875 C65.82986816 108.78469482 65.82986816 108.78469482 65.20996094 107.67236328 C63.68862187 104.9567924 62.15432211 102.2570474 60.55200195 99.58813477 C53.27713613 87.45649208 46.31577048 75.09558333 40.171875 62.3515625 C39.20451114 60.09868147 39.20451114 60.09868147 38 59 C37.67 89.36 37.34 119.72 37 151 C24.79 151 12.58 151 0 151 C0 101.17 0 51.34 0 0 Z " fill="#000000" transform="translate(757,454)"/>
<path d="M0 0 C95.64751157 0 95.64751157 0 116.89868164 20.65820312 C133.34824028 37.30456385 138.44774989 55.74610473 138.36132812 78.69262695 C138.11676543 94.28876958 134.59357894 111.86848184 123.50390625 123.65234375 C122.67761719 124.42707031 121.85132813 125.20179688 121 126 C119.61940315 127.62024762 118.24439002 129.24526967 116.875 130.875 C106.69193919 142.1449228 90.99496513 148.89007481 76 151 C70.16404822 151.27133494 64.33698695 151.23376648 58.49609375 151.1953125 C56.99613595 151.19236653 55.49617609 151.19032951 53.99621582 151.18920898 C48.47661223 151.17878587 42.95705284 151.15086343 37.4375 151.125 C25.083125 151.08375 12.72875 151.0425 0 151 C0 101.17 0 51.34 0 0 Z M36 35 C36 61.73 36 88.46 36 116 C65.01669634 117.72759149 65.01669634 117.72759149 88.5 105.8125 C96.60446048 96.69498196 100.55458645 87.73183284 100.375 75.5 C100.38660156 74.70980469 100.39820313 73.91960937 100.41015625 73.10546875 C100.37216938 65.36880919 98.69339915 58.33265736 93.625 52.3125 C92.69494141 51.20068359 92.69494141 51.20068359 91.74609375 50.06640625 C90.88177734 49.04353516 90.88177734 49.04353516 90 48 C89.236875 46.9275 88.47375 45.855 87.6875 44.75 C81.52637425 38.44559226 74.50540774 36.89009061 66 35 C56.1 35 46.2 35 36 35 Z " fill="#000000" transform="translate(921,454)"/>
<path d="M0 0 C18.5625 -0.0928125 18.5625 -0.0928125 37.5 -0.1875 C41.37427734 -0.21481201 45.24855469 -0.24212402 49.24023438 -0.27026367 C54.05566406 -0.28381348 54.05566406 -0.28381348 56.32629395 -0.28633118 C57.87645062 -0.29086898 59.42659829 -0.30127227 60.97668457 -0.31672668 C74.61109538 -0.44559292 89.08768865 -0.06394945 101.375 6.5625 C102.03218018 6.90619629 102.68936035 7.24989258 103.36645508 7.60400391 C114.42749493 13.69456789 121.25086081 22.43384165 125.078125 34.359375 C128.49500085 47.85313896 128.16321635 64.69707474 121 77 C114.35442416 85.96752403 106.37319229 92.02728806 96 96 C99.12226372 102.81567325 102.58172015 109.07868944 106.8125 115.25 C111.25807332 121.7379526 115.160936 128.42034111 118.94921875 135.30859375 C121.17117197 139.34633669 123.5602512 143.27248836 126.00390625 147.1796875 C127 149 127 149 127 151 C120.98630798 151.24774368 114.97559855 151.42888752 108.95800781 151.54931641 C106.91288515 151.59952135 104.86811998 151.66770538 102.82421875 151.75439453 C85.89115291 152.45444832 85.89115291 152.45444832 81.50488281 149.08105469 C79.92081093 146.44093488 78.97231097 143.9161733 78 141 C77.0615263 139.40534837 76.08389029 137.83315715 75.0703125 136.28515625 C73.007474 132.86870532 71.19526813 129.40113022 69.49676514 125.78939819 C68.30940957 123.28421884 67.06253531 120.81078997 65.81005859 118.33764648 C65.18505248 117.06756227 64.58663642 115.78405601 64.01513672 114.48901367 C63.73041504 113.8500415 63.44569336 113.21106934 63.15234375 112.55273438 C62.9097583 111.98623169 62.66717285 111.419729 62.41723633 110.83605957 C60.68449162 107.93849136 58.24859424 105.51835853 56 103 C49.4 102.67 42.8 102.34 36 102 C36 118.17 36 134.34 36 151 C24.12 151 12.24 151 0 151 C0 101.17 0 51.34 0 0 Z M36 35 C36 47.54 36 60.08 36 73 C42.80625 73.0928125 42.80625 73.0928125 49.75 73.1875 C51.15475586 73.21481201 52.55951172 73.24212402 54.00683594 73.27026367 C65.78040121 73.34713404 76.49968627 72.31974946 85.25 63.8125 C88.05094043 59.31098859 89.37940288 54.95253267 88.6953125 49.62890625 C87.32099244 44.59821615 85.08203499 41.51141495 81.109375 38.19140625 C75.44783556 34.9936849 69.77732388 34.71725755 63.44140625 34.8046875 C62.7407605 34.80670166 62.04011475 34.80871582 61.3182373 34.81079102 C58.73292371 34.82115412 56.14770438 34.84907569 53.5625 34.875 C47.766875 34.91625 41.97125 34.9575 36 35 Z " fill="#000000" transform="translate(1081,454)"/>
<path d="M0 0 C1.31387695 0.00684814 2.62775391 0.01369629 3.98144531 0.02075195 C20.12120745 0.28669348 36.12156233 2.82167254 48.25 14.4375 C53.41019178 20.8651073 57.93344649 27.4743473 60.25 35.4375 C60.43433594 36.03949219 60.61867188 36.64148438 60.80859375 37.26171875 C61.38479089 40.10191172 61.34397139 42.79213213 61.3125 45.6875 C61.30347656 46.76515625 61.29445313 47.8428125 61.28515625 48.953125 C61.27355469 49.77296875 61.26195312 50.5928125 61.25 51.4375 C55.99894558 51.46214928 50.74792455 51.48033568 45.49682617 51.49243164 C43.70905979 51.49747218 41.92129755 51.50430454 40.13354492 51.51293945 C37.56948832 51.5250173 35.00548603 51.53073094 32.44140625 51.53515625 C31.23515343 51.54289818 31.23515343 51.54289818 30.00453186 51.55079651 C28.08598285 51.55099215 26.16754632 51.49951983 24.25 51.4375 C22.73877968 49.92627968 22.76761215 48.26765558 22.375 46.1875 C20.98281864 39.80998802 20.98281864 39.80998802 16.48828125 35.28515625 C7.91495023 30.69638289 -1.69523892 30.18927439 -11.0625 32.5625 C-16.01390031 34.25455333 -18.22217392 35.80315219 -20.75 40.4375 C-21.75760835 45.6014928 -21.44355888 49.22936517 -18.8125 53.8125 C-13.32474601 59.30889991 -5.01347531 61.10926421 2.34375 62.65625 C3.17531616 62.84086792 4.00688232 63.02548584 4.86364746 63.21569824 C7.49054358 63.79867219 10.11979988 64.36963239 12.75 64.9375 C16.22127075 65.68695713 19.68941374 66.44906969 23.15625 67.21875 C23.93464233 67.38242065 24.71303467 67.54609131 25.51501465 67.71472168 C35.55838637 69.94747983 43.79604726 74.6961863 52.25 80.4375 C53.343125 81.159375 54.43625 81.88125 55.5625 82.625 C61.11153657 88.43213129 64.95621731 96.35847597 65.25 104.4375 C65.32347656 105.64792969 65.32347656 105.64792969 65.3984375 106.8828125 C65.86934072 119.59719955 62.49746173 131.11548764 53.875 140.5 C39.31032453 154.38128894 19.20450893 156.81477499 -0.109375 156.5859375 C-18.14692271 155.85050101 -35.74774744 153.46177456 -49.5625 140.875 C-53.3888053 136.61140267 -56.40134554 132.53206472 -58.9375 127.375 C-59.44667969 126.35277344 -59.95585938 125.33054687 -60.48046875 124.27734375 C-63.50000327 117.5228773 -62.75 113.65933155 -62.75 105.4375 C-50.21 105.4375 -37.67 105.4375 -24.75 105.4375 C-23.76 108.7375 -22.77 112.0375 -21.75 115.4375 C-17.81919846 120.43068033 -12.93322795 123.1376127 -6.75 124.4375 C2.77265352 125.21891879 14.31344688 126.16475526 22.1484375 119.92578125 C25.16405292 116.88969785 26.20868945 115.22240046 26.4375 110.875 C24.82436462 106.20539757 22.81190158 103.05502815 18.65185547 100.4284668 C10.39661677 96.46548785 1.29476234 95.17628482 -7.625 93.4375 C-43.14324387 86.48458818 -43.14324387 86.48458818 -52.75 72.4375 C-60.10164808 60.69528432 -60.86242279 48.13940663 -58.21875 34.74609375 C-55.28751053 23.59691504 -48.86430718 15.30299409 -39.75 8.4375 C-37.09375 7.05859375 -37.09375 7.05859375 -34.25 5.875 C-33.3321875 5.48183594 -32.414375 5.08867187 -31.46875 4.68359375 C-20.96378964 1.16354926 -11.05830257 -0.08876752 0 0 Z " fill="#000000" transform="translate(1475.75,451.5625)"/>
<path d="M0 0 C12.21 0 24.42 0 37 0 C37.01458252 2.86099365 37.02916504 5.7219873 37.04418945 8.66967773 C37.09461319 18.14130211 37.16122209 27.61276344 37.23571491 37.08422756 C37.28036891 42.82461063 37.31963613 48.56492353 37.34643555 54.30541992 C37.37251789 59.84930359 37.41295551 65.39291655 37.46318626 70.93663216 C37.47982159 73.04759405 37.49135657 75.15860273 37.49761391 77.2696209 C37.50729119 80.2352905 37.53539414 83.2002727 37.56762695 86.16577148 C37.56619186 87.0310849 37.56475677 87.89639832 37.5632782 88.78793335 C37.68838766 96.97144891 39.6451318 104.63204863 45 111 C53.50928186 117.68851849 62.40553184 118.82287131 73 118 C78.96065927 116.85095725 84.76196592 114.44888155 89 110 C94.27442581 101.8287393 95.1415526 94.18978081 95.20532227 84.68994141 C95.21522186 83.77222961 95.22512146 82.85451782 95.23532104 81.90899658 C95.26678959 78.88987771 95.29163534 75.87074313 95.31640625 72.8515625 C95.33698843 70.75263064 95.35798523 68.6537028 95.37937927 66.55477905 C95.43446936 61.04094716 95.48393608 55.52707867 95.53222656 50.01318359 C95.58253716 44.382454 95.63817326 38.7517773 95.69335938 33.12109375 C95.80078111 22.08077275 95.901769 11.04040661 96 0 C107.88 0 119.76 0 132 0 C132.06799959 13.18773616 132.12294486 26.3753543 132.15543652 39.5632267 C132.17103733 45.68805117 132.1921729 51.81274861 132.22631836 57.9375 C132.25911178 63.85733652 132.27689493 69.77705149 132.28463173 75.69697189 C132.29013955 77.94620042 132.30089414 80.19542292 132.31719017 82.44459915 C132.42194742 97.51378172 132.47311204 111.8818773 125.125 125.5 C124.79886719 126.1496875 124.47273437 126.799375 124.13671875 127.46875 C117.56863261 140.14490068 106.22340431 146.46778481 93 151 C72.16619253 156.74184754 45.96030166 155.87567898 26.8671875 145.2578125 C24.1717734 143.58306187 21.56655222 141.86544527 19 140 C18.15695312 139.39285156 17.31390625 138.78570313 16.4453125 138.16015625 C4.0401521 127.20160401 1.12013166 109.62840282 0 94 C-0.31417948 86.59631972 -0.23496609 79.18575083 -0.1953125 71.77734375 C-0.19157191 69.69413897 -0.1887299 67.6109324 -0.18673706 65.52772522 C-0.17918281 60.10438994 -0.15960712 54.68116564 -0.1373291 49.25787354 C-0.11669151 43.69992574 -0.10769745 38.14195962 -0.09765625 32.58398438 C-0.07635161 21.72260021 -0.04123872 10.86132679 0 0 Z " fill="#000000" transform="translate(597,454)"/>
<path d="M0 0 C14.85 0 29.7 0 45 0 C52.97545835 21.64767267 52.97545835 21.64767267 55.6484375 29.234375 C56.26206566 30.96663166 56.87592431 32.69880668 57.48999023 34.4309082 C57.95149979 35.73374252 57.95149979 35.73374252 58.42233276 37.06289673 C64.6807084 54.78084219 64.6807084 54.78084219 71.4375 72.3125 C76.76881923 85.54923959 81.40913521 99.04630445 86.15405273 112.5012207 C86.81353295 114.370643 87.47311829 116.24002821 88.1328125 118.109375 C88.45369339 119.0188237 88.77457428 119.9282724 89.10517883 120.86528015 C91.88235843 128.71415159 94.75078308 136.52775315 97.64794922 144.33300781 C98.46318851 146.54407573 99.25478618 148.76435853 100 151 C87.46 151 74.92 151 62 151 C56.3324937 137.39798489 56.3324937 137.39798489 54.6875 132.375 C54.36136719 131.39273438 54.03523437 130.41046875 53.69921875 129.3984375 C53 127 53 127 53 125 C32.87 125.33 12.74 125.66 -8 126 C-9.98 131.61 -11.96 137.22 -14 143 C-15.32 145.64 -16.64 148.28 -18 151 C-30.21 151 -42.42 151 -55 151 C-54.24479254 147.22396268 -53.39843219 144.0470176 -52.109375 140.46484375 C-51.72910156 139.40716797 -51.34882813 138.34949219 -50.95703125 137.25976562 C-50.55871094 136.16341797 -50.16039062 135.06707031 -49.75 133.9375 C-49.36714844 132.86822266 -48.98429687 131.79894531 -48.58984375 130.69726562 C-46.71318192 125.50349418 -44.76297061 120.36738613 -42.6015625 115.28515625 C-39.30090786 107.46980572 -36.48369651 99.48463864 -33.625 91.5 C-33.04211197 89.87964767 -32.45902113 88.25936829 -31.87573242 86.63916016 C-28.97357645 78.56729579 -26.10873087 70.48424257 -23.3125 62.375 C-20.36857696 53.84622793 -17.11923637 45.44370305 -13.85107422 37.03466797 C-10.34717553 27.98884767 -7.0290737 18.88348831 -3.77978516 9.7434082 C-3.42835449 8.7555835 -3.07692383 7.76775879 -2.71484375 6.75 C-2.40667725 5.87859375 -2.09851074 5.0071875 -1.78100586 4.109375 C-1 2 -1 2 0 0 Z M22 42 C21.74831055 42.67466309 21.49662109 43.34932617 21.23730469 44.04443359 C20.07607058 47.15507216 18.91304548 50.26503827 17.75 53.375 C17.35425781 54.43589844 16.95851563 55.49679687 16.55078125 56.58984375 C14.72955533 61.45639825 12.89024734 66.30955162 10.9375 71.125 C8.87587404 76.235814 7.04804907 81.41664532 5.25 86.625 C4.1775 89.71875 3.105 92.8125 2 96 C15.53 96 29.06 96 43 96 C41.02 91.05 39.04 86.1 37 81 C35.76165759 77.67289651 34.53853214 74.3486176 33.3515625 71.00390625 C33.04930756 70.15948471 32.74705261 69.31506317 32.43563843 68.4450531 C31.49613154 65.81846503 30.56047711 63.1905256 29.625 60.5625 C28.9781229 58.75186082 28.33098898 56.94131336 27.68359375 55.13085938 C26.11944295 50.7549546 24.55873841 46.37783549 23 42 C22.67 42 22.34 42 22 42 Z " fill="#000000" transform="translate(490,454)"/>
<path d="M0 0 C14.19 0 28.38 0 43 0 C54.14115058 21.1681861 54.14115058 21.1681861 57.9375 28.9375 C61.91629651 37.00673879 66.17080973 44.89797889 70.59741211 52.73022461 C71.2646228 53.91950562 71.2646228 53.91950562 71.9453125 55.1328125 C72.34250488 55.83293457 72.73969727 56.53305664 73.14892578 57.25439453 C74 59 74 59 74 61 C74.66 61 75.32 61 76 61 C76.25652344 60.16210938 76.51304688 59.32421875 76.77734375 58.4609375 C78.10742971 54.69590184 79.76082401 51.17912346 81.5625 47.625 C81.91401123 46.92584473 82.26552246 46.22668945 82.62768555 45.50634766 C85.39482667 40.05996929 88.37165086 34.75310104 91.41430664 29.45727539 C95.3783809 22.48033438 98.91801998 15.29617309 102.45825195 8.09716797 C103.12860474 6.73615967 103.12860474 6.73615967 103.8125 5.34765625 C104.21082031 4.53304932 104.60914063 3.71844238 105.01953125 2.87915039 C106 1 106 1 107 0 C108.35094982 -0.09268999 109.70667091 -0.11747326 111.06079102 -0.11352539 C111.92160782 -0.11344986 112.78242462 -0.11337433 113.66932678 -0.11329651 C114.60473801 -0.10813522 115.54014923 -0.10297394 116.50390625 -0.09765625 C117.45692123 -0.0962413 118.40993622 -0.09482635 119.39183044 -0.09336853 C122.44875165 -0.08775152 125.50560077 -0.07519616 128.5625 -0.0625 C130.62955624 -0.05748719 132.69661362 -0.05292391 134.76367188 -0.04882812 C139.84247588 -0.03777656 144.9212257 -0.02050055 150 0 C149.69001572 0.61898666 149.38003143 1.23797333 149.06065369 1.87571716 C148.0282612 3.94339832 147.01458196 6.01928741 146.00390625 8.09765625 C141.25389489 17.78685179 136.24961357 27.23430157 130.76928711 36.53076172 C128.04028357 41.16717549 125.45445171 45.81074525 123.1953125 50.69921875 C122.12832857 52.75298847 120.96969729 54.64293022 119.72265625 56.58984375 C116.60351104 61.52429486 113.9694047 66.68115709 111.3125 71.875 C110.35303127 73.74881721 109.3906873 75.62116439 108.42578125 77.4921875 C107.91080078 78.5136084 107.39582031 79.5350293 106.86523438 80.58740234 C105.46737986 83.14489061 104.04206494 85.46747711 102.41601562 87.86962891 C93.93624739 100.83925314 93.6166971 112.4296636 93.875 127.625 C93.87694701 129.90364649 93.87437151 132.1823015 93.8671875 134.4609375 C93.85115144 139.97734181 93.92732868 145.48125421 94 151 C81.46 151 68.92 151 56 151 C56.10183594 147.78765625 56.20367188 144.5753125 56.30859375 141.265625 C56.80611968 116.53877949 56.49585448 97.28201746 41.86572266 76.71191406 C39.39968622 73.12741619 37.39960223 69.35951352 35.36499023 65.51904297 C34.17919042 63.33068982 32.92709003 61.24594751 31.578125 59.15625 C28.32596169 54.05237647 25.55503839 48.68828668 22.7255249 43.34243774 C21.07127716 40.21812131 19.40714162 37.09908981 17.7421875 33.98046875 C17.41683014 33.37087814 17.09147278 32.76128754 16.7562561 32.13322449 C14.18601012 27.32698946 11.56059694 22.55511234 8.875 17.8125 C8.52348877 17.19165527 8.17197754 16.57081055 7.80981445 15.93115234 C6.32816136 13.32191103 4.8382532 10.71742107 3.34765625 8.11328125 C2.88230469 7.29214844 2.41695312 6.47101563 1.9375 5.625 C1.55464844 4.95726562 1.17179687 4.28953125 0.77734375 3.6015625 C0 2 0 2 0 0 Z " fill="#000000" transform="translate(1211,454)"/>
<path d="M0 0 C12.21 0 24.42 0 37 0 C37 38.94 37 77.88 37 118 C58.12 118 79.24 118 101 118 C101 128.89 101 139.78 101 151 C67.67 151 34.34 151 0 151 C0 101.17 0 51.34 0 0 Z " fill="#000000" transform="translate(331,454)"/>
<path d="M0 0 C9.9 0 19.8 0 30 0 C30.07549872 12.07979496 30.0506222 24.11689563 29.5625 36.1875 C29.52326416 37.20779297 29.48402832 38.22808594 29.44360352 39.27929688 C29.40162842 40.23255859 29.35965332 41.18582031 29.31640625 42.16796875 C29.27974854 43.00610107 29.24309082 43.8442334 29.20532227 44.70776367 C29 47 29 47 28 51 C19.42 51 10.84 51 2 51 C1.03362182 40.06124867 0.69031567 29.16176367 0.4375 18.1875 C0.39419001 16.41600802 0.35057233 14.64452354 0.30664062 12.87304688 C0.20032012 8.58211181 0.10028919 4.29109697 0 0 Z " fill="#000000" transform="translate(1367,443)"/>
</svg>
