<?xml version="1.0" encoding="UTF-8"?>
<svg version="1.1" xmlns="http://www.w3.org/2000/svg" width="1920" height="1080">
<path d="M0 0 C15.18 0 30.36 0 46 0 C47.835625 3.568125 49.67125 7.13625 51.5625 10.8125 C52.67234165 12.95428665 53.78591418 15.09415272 54.90625 17.23046875 C55.41220703 18.19879639 55.91816406 19.16712402 56.43945312 20.16479492 C58.4997101 23.90787444 60.78973336 27.46961963 63.1640625 31.01953125 C66.36260434 36.21205769 69.07241624 41.66958429 71.86987305 47.08569336 C74.59666028 52.35440888 77.39169985 57.55965962 80.375 62.6875 C82.59832479 66.51053408 84.70105771 70.33067006 86.625 74.3125 C88.64172034 78.46215846 91.02582329 82.21371035 93.66796875 85.9921875 C95 88 95 88 97 92 C97.33 61.64 97.66 31.28 98 0 C110.21 0 122.42 0 135 0 C135 49.83 135 99.66 135 151 C120.15 151 105.3 151 90 151 C83.2553495 142.00713267 83.2553495 142.00713267 81.140625 137.8203125 C80.66939209 136.89976074 80.19815918 135.97920898 79.71264648 135.03076172 C79.22997314 134.07186035 78.7472998 133.11295898 78.25 132.125 C77.20636023 130.08755029 76.16075938 128.05110402 75.11328125 126.015625 C74.59459473 125.00693359 74.0759082 123.99824219 73.54150391 122.95898438 C71.24770988 118.55594612 68.85761888 114.20960901 66.4375 109.875 C65.82986816 108.78469482 65.82986816 108.78469482 65.20996094 107.67236328 C63.68862187 104.9567924 62.15432211 102.2570474 60.55200195 99.58813477 C53.27713613 87.45649208 46.31577048 75.09558333 40.171875 62.3515625 C39.20451114 60.09868147 39.20451114 60.09868147 38 59 C37.67 89.36 37.34 119.72 37 151 C24.79 151 12.58 151 0 151 C0 101.17 0 51.34 0 0 Z " fill="#FDFDFD" transform="translate(757,454)"/>
<path d="M0 0 C95.64751157 0 95.64751157 0 116.89868164 20.65820312 C133.34824028 37.30456385 138.44774989 55.74610473 138.36132812 78.69262695 C138.11676543 94.28876958 134.59357894 111.86848184 123.50390625 123.65234375 C122.67761719 124.42707031 121.85132813 125.20179688 121 126 C119.61940315 127.62024762 118.24439002 129.24526967 116.875 130.875 C106.69193919 142.1449228 90.99496513 148.89007481 76 151 C70.16404822 151.27133494 64.33698695 151.23376648 58.49609375 151.1953125 C56.99613595 151.19236653 55.49617609 151.19032951 53.99621582 151.18920898 C48.47661223 151.17878587 42.95705284 151.15086343 37.4375 151.125 C25.083125 151.08375 12.72875 151.0425 0 151 C0 101.17 0 51.34 0 0 Z M36 35 C36 61.73 36 88.46 36 116 C65.01669634 117.72759149 65.01669634 117.72759149 88.5 105.8125 C96.60446048 96.69498196 100.55458645 87.73183284 100.375 75.5 C100.38660156 74.70980469 100.39820313 73.91960937 100.41015625 73.10546875 C100.37216938 65.36880919 98.69339915 58.33265736 93.625 52.3125 C92.69494141 51.20068359 92.69494141 51.20068359 91.74609375 50.06640625 C90.88177734 49.04353516 90.88177734 49.04353516 90 48 C89.236875 46.9275 88.47375 45.855 87.6875 44.75 C81.52637425 38.44559226 74.50540774 36.89009061 66 35 C56.1 35 46.2 35 36 35 Z " fill="#F8F8F8" transform="translate(921,454)"/>
<path d="M0 0 C18.5625 -0.0928125 18.5625 -0.0928125 37.5 -0.1875 C41.37427734 -0.21481201 45.24855469 -0.24212402 49.24023438 -0.27026367 C54.05566406 -0.28381348 54.05566406 -0.28381348 56.32629395 -0.28633118 C57.87645062 -0.29086898 59.42659829 -0.30127227 60.97668457 -0.31672668 C74.61109538 -0.44559292 89.08768865 -0.06394945 101.375 6.5625 C102.03218018 6.90619629 102.68936035 7.24989258 103.36645508 7.60400391 C114.42749493 13.69456789 121.25086081 22.43384165 125.078125 34.359375 C128.49500085 47.85313896 128.16321635 64.69707474 121 77 C114.35442416 85.96752403 106.37319229 92.02728806 96 96 C99.12226372 102.81567325 102.58172015 109.07868944 106.8125 115.25 C111.25807332 121.7379526 115.160936 128.42034111 118.94921875 135.30859375 C121.17117197 139.34633669 123.5602512 143.27248836 126.00390625 147.1796875 C127 149 127 149 127 151 C120.98630798 151.24774368 114.97559855 151.42888752 108.95800781 151.54931641 C106.91288515 151.59952135 104.86811998 151.66770538 102.82421875 151.75439453 C85.89115291 152.45444832 85.89115291 152.45444832 81.50488281 149.08105469 C79.92081093 146.44093488 78.97231097 143.9161733 78 141 C77.0615263 139.40534837 76.08389029 137.83315715 75.0703125 136.28515625 C73.007474 132.86870532 71.19526813 129.40113022 69.49676514 125.78939819 C68.30940957 123.28421884 67.06253531 120.81078997 65.81005859 118.33764648 C65.18505248 117.06756227 64.58663642 115.78405601 64.01513672 114.48901367 C63.73041504 113.8500415 63.44569336 113.21106934 63.15234375 112.55273438 C62.9097583 111.98623169 62.66717285 111.419729 62.41723633 110.83605957 C60.68449162 107.93849136 58.24859424 105.51835853 56 103 C49.4 102.67 42.8 102.34 36 102 C36 118.17 36 134.34 36 151 C24.12 151 12.24 151 0 151 C0 101.17 0 51.34 0 0 Z M36 35 C36 47.54 36 60.08 36 73 C42.80625 73.0928125 42.80625 73.0928125 49.75 73.1875 C51.15475586 73.21481201 52.55951172 73.24212402 54.00683594 73.27026367 C65.78040121 73.34713404 76.49968627 72.31974946 85.25 63.8125 C88.05094043 59.31098859 89.37940288 54.95253267 88.6953125 49.62890625 C87.32099244 44.59821615 85.08203499 41.51141495 81.109375 38.19140625 C75.44783556 34.9936849 69.77732388 34.71725755 63.44140625 34.8046875 C62.7407605 34.80670166 62.04011475 34.80871582 61.3182373 34.81079102 C58.73292371 34.82115412 56.14770438 34.84907569 53.5625 34.875 C47.766875 34.91625 41.97125 34.9575 36 35 Z " fill="#FAFAFA" transform="translate(1081,454)"/>
<path d="M0 0 C1.31387695 0.00684814 2.62775391 0.01369629 3.98144531 0.02075195 C20.12120745 0.28669348 36.12156233 2.82167254 48.25 14.4375 C53.41019178 20.8651073 57.93344649 27.4743473 60.25 35.4375 C60.43433594 36.03949219 60.61867188 36.64148438 60.80859375 37.26171875 C61.38479089 40.10191172 61.34397139 42.79213213 61.3125 45.6875 C61.30347656 46.76515625 61.29445313 47.8428125 61.28515625 48.953125 C61.27355469 49.77296875 61.26195312 50.5928125 61.25 51.4375 C55.99894558 51.46214928 50.74792455 51.48033568 45.49682617 51.49243164 C43.70905979 51.49747218 41.92129755 51.50430454 40.13354492 51.51293945 C37.56948832 51.5250173 35.00548603 51.53073094 32.44140625 51.53515625 C31.23515343 51.54289818 31.23515343 51.54289818 30.00453186 51.55079651 C28.08598285 51.55099215 26.16754632 51.49951983 24.25 51.4375 C22.73877968 49.92627968 22.76761215 48.26765558 22.375 46.1875 C20.98281864 39.80998802 20.98281864 39.80998802 16.48828125 35.28515625 C7.91495023 30.69638289 -1.69523892 30.18927439 -11.0625 32.5625 C-16.01390031 34.25455333 -18.22217392 35.80315219 -20.75 40.4375 C-21.75760835 45.6014928 -21.44355888 49.22936517 -18.8125 53.8125 C-13.32474601 59.30889991 -5.01347531 61.10926421 2.34375 62.65625 C3.17531616 62.84086792 4.00688232 63.02548584 4.86364746 63.21569824 C7.49054358 63.79867219 10.11979988 64.36963239 12.75 64.9375 C16.22127075 65.68695713 19.68941374 66.44906969 23.15625 67.21875 C23.93464233 67.38242065 24.71303467 67.54609131 25.51501465 67.71472168 C35.55838637 69.94747983 43.79604726 74.6961863 52.25 80.4375 C53.343125 81.159375 54.43625 81.88125 55.5625 82.625 C61.11153657 88.43213129 64.95621731 96.35847597 65.25 104.4375 C65.32347656 105.64792969 65.32347656 105.64792969 65.3984375 106.8828125 C65.86934072 119.59719955 62.49746173 131.11548764 53.875 140.5 C39.31032453 154.38128894 19.20450893 156.81477499 -0.109375 156.5859375 C-18.14692271 155.85050101 -35.74774744 153.46177456 -49.5625 140.875 C-53.3888053 136.61140267 -56.40134554 132.53206472 -58.9375 127.375 C-59.44667969 126.35277344 -59.95585938 125.33054687 -60.48046875 124.27734375 C-63.50000327 117.5228773 -62.75 113.65933155 -62.75 105.4375 C-50.21 105.4375 -37.67 105.4375 -24.75 105.4375 C-23.76 108.7375 -22.77 112.0375 -21.75 115.4375 C-17.81919846 120.43068033 -12.93322795 123.1376127 -6.75 124.4375 C2.77265352 125.21891879 14.31344688 126.16475526 22.1484375 119.92578125 C25.16405292 116.88969785 26.20868945 115.22240046 26.4375 110.875 C24.82436462 106.20539757 22.81190158 103.05502815 18.65185547 100.4284668 C10.39661677 96.46548785 1.29476234 95.17628482 -7.625 93.4375 C-43.14324387 86.48458818 -43.14324387 86.48458818 -52.75 72.4375 C-60.10164808 60.69528432 -60.86242279 48.13940663 -58.21875 34.74609375 C-55.28751053 23.59691504 -48.86430718 15.30299409 -39.75 8.4375 C-37.09375 7.05859375 -37.09375 7.05859375 -34.25 5.875 C-33.3321875 5.48183594 -32.414375 5.08867187 -31.46875 4.68359375 C-20.96378964 1.16354926 -11.05830257 -0.08876752 0 0 Z " fill="#F4F4F4" transform="translate(1475.75,451.5625)"/>
<path d="M0 0 C12.21 0 24.42 0 37 0 C37.01458252 2.86099365 37.02916504 5.7219873 37.04418945 8.66967773 C37.09461319 18.14130211 37.16122209 27.61276344 37.23571491 37.08422756 C37.28036891 42.82461063 37.31963613 48.56492353 37.34643555 54.30541992 C37.37251789 59.84930359 37.41295551 65.39291655 37.46318626 70.93663216 C37.47982159 73.04759405 37.49135657 75.15860273 37.49761391 77.2696209 C37.50729119 80.2352905 37.53539414 83.2002727 37.56762695 86.16577148 C37.56619186 87.0310849 37.56475677 87.89639832 37.5632782 88.78793335 C37.68838766 96.97144891 39.6451318 104.63204863 45 111 C53.50928186 117.68851849 62.40553184 118.82287131 73 118 C78.96065927 116.85095725 84.76196592 114.44888155 89 110 C94.27442581 101.8287393 95.1415526 94.18978081 95.20532227 84.68994141 C95.21522186 83.77222961 95.22512146 82.85451782 95.23532104 81.90899658 C95.26678959 78.88987771 95.29163534 75.87074313 95.31640625 72.8515625 C95.33698843 70.75263064 95.35798523 68.6537028 95.37937927 66.55477905 C95.43446936 61.04094716 95.48393608 55.52707867 95.53222656 50.01318359 C95.58253716 44.382454 95.63817326 38.7517773 95.69335938 33.12109375 C95.80078111 22.08077275 95.901769 11.04040661 96 0 C107.88 0 119.76 0 132 0 C132.06799959 13.18773616 132.12294486 26.3753543 132.15543652 39.5632267 C132.17103733 45.68805117 132.1921729 51.81274861 132.22631836 57.9375 C132.25911178 63.85733652 132.27689493 69.77705149 132.28463173 75.69697189 C132.29013955 77.94620042 132.30089414 80.19542292 132.31719017 82.44459915 C132.42194742 97.51378172 132.47311204 111.8818773 125.125 125.5 C124.79886719 126.1496875 124.47273437 126.799375 124.13671875 127.46875 C117.56863261 140.14490068 106.22340431 146.46778481 93 151 C72.16619253 156.74184754 45.96030166 155.87567898 26.8671875 145.2578125 C24.1717734 143.58306187 21.56655222 141.86544527 19 140 C18.15695312 139.39285156 17.31390625 138.78570313 16.4453125 138.16015625 C4.0401521 127.20160401 1.12013166 109.62840282 0 94 C-0.31417948 86.59631972 -0.23496609 79.18575083 -0.1953125 71.77734375 C-0.19157191 69.69413897 -0.1887299 67.6109324 -0.18673706 65.52772522 C-0.17918281 60.10438994 -0.15960712 54.68116564 -0.1373291 49.25787354 C-0.11669151 43.69992574 -0.10769745 38.14195962 -0.09765625 32.58398438 C-0.07635161 21.72260021 -0.04123872 10.86132679 0 0 Z " fill="#F6F6F6" transform="translate(597,454)"/>
<path d="M0 0 C14.85 0 29.7 0 45 0 C52.97545835 21.64767267 52.97545835 21.64767267 55.6484375 29.234375 C56.26206566 30.96663166 56.87592431 32.69880668 57.48999023 34.4309082 C57.95149979 35.73374252 57.95149979 35.73374252 58.42233276 37.06289673 C64.6807084 54.78084219 64.6807084 54.78084219 71.4375 72.3125 C76.76881923 85.54923959 81.40913521 99.04630445 86.15405273 112.5012207 C86.81353295 114.370643 87.47311829 116.24002821 88.1328125 118.109375 C88.45369339 119.0188237 88.77457428 119.9282724 89.10517883 120.86528015 C91.88235843 128.71415159 94.75078308 136.52775315 97.64794922 144.33300781 C98.46318851 146.54407573 99.25478618 148.76435853 100 151 C87.46 151 74.92 151 62 151 C56.3324937 137.39798489 56.3324937 137.39798489 54.6875 132.375 C54.36136719 131.39273438 54.03523437 130.41046875 53.69921875 129.3984375 C53 127 53 127 53 125 C32.87 125.33 12.74 125.66 -8 126 C-9.98 131.61 -11.96 137.22 -14 143 C-15.32 145.64 -16.64 148.28 -18 151 C-30.21 151 -42.42 151 -55 151 C-54.24479254 147.22396268 -53.39843219 144.0470176 -52.109375 140.46484375 C-51.72910156 139.40716797 -51.34882813 138.34949219 -50.95703125 137.25976562 C-50.55871094 136.16341797 -50.16039062 135.06707031 -49.75 133.9375 C-49.36714844 132.86822266 -48.98429687 131.79894531 -48.58984375 130.69726562 C-46.71318192 125.50349418 -44.76297061 120.36738613 -42.6015625 115.28515625 C-39.30090786 107.46980572 -36.48369651 99.48463864 -33.625 91.5 C-33.04211197 89.87964767 -32.45902113 88.25936829 -31.87573242 86.63916016 C-28.97357645 78.56729579 -26.10873087 70.48424257 -23.3125 62.375 C-20.36857696 53.84622793 -17.11923637 45.44370305 -13.85107422 37.03466797 C-10.34717553 27.98884767 -7.0290737 18.88348831 -3.77978516 9.7434082 C-3.42835449 8.7555835 -3.07692383 7.76775879 -2.71484375 6.75 C-2.40667725 5.87859375 -2.09851074 5.0071875 -1.78100586 4.109375 C-1 2 -1 2 0 0 Z M22 42 C21.74831055 42.67466309 21.49662109 43.34932617 21.23730469 44.04443359 C20.07607058 47.15507216 18.91304548 50.26503827 17.75 53.375 C17.35425781 54.43589844 16.95851563 55.49679687 16.55078125 56.58984375 C14.72955533 61.45639825 12.89024734 66.30955162 10.9375 71.125 C8.87587404 76.235814 7.04804907 81.41664532 5.25 86.625 C4.1775 89.71875 3.105 92.8125 2 96 C15.53 96 29.06 96 43 96 C41.02 91.05 39.04 86.1 37 81 C35.76165759 77.67289651 34.53853214 74.3486176 33.3515625 71.00390625 C33.04930756 70.15948471 32.74705261 69.31506317 32.43563843 68.4450531 C31.49613154 65.81846503 30.56047711 63.1905256 29.625 60.5625 C28.9781229 58.75186082 28.33098898 56.94131336 27.68359375 55.13085938 C26.11944295 50.7549546 24.55873841 46.37783549 23 42 C22.67 42 22.34 42 22 42 Z " fill="#F3F3F3" transform="translate(490,454)"/>
<path d="M0 0 C14.19 0 28.38 0 43 0 C54.14115058 21.1681861 54.14115058 21.1681861 57.9375 28.9375 C61.91629651 37.00673879 66.17080973 44.89797889 70.59741211 52.73022461 C71.2646228 53.91950562 71.2646228 53.91950562 71.9453125 55.1328125 C72.34250488 55.83293457 72.73969727 56.53305664 73.14892578 57.25439453 C74 59 74 59 74 61 C74.66 61 75.32 61 76 61 C76.25652344 60.16210938 76.51304688 59.32421875 76.77734375 58.4609375 C78.10742971 54.69590184 79.76082401 51.17912346 81.5625 47.625 C81.91401123 46.92584473 82.26552246 46.22668945 82.62768555 45.50634766 C85.39482667 40.05996929 88.37165086 34.75310104 91.41430664 29.45727539 C95.3783809 22.48033438 98.91801998 15.29617309 102.45825195 8.09716797 C103.12860474 6.73615967 103.12860474 6.73615967 103.8125 5.34765625 C104.21082031 4.53304932 104.60914063 3.71844238 105.01953125 2.87915039 C106 1 106 1 107 0 C108.35094982 -0.09268999 109.70667091 -0.11747326 111.06079102 -0.11352539 C111.92160782 -0.11344986 112.78242462 -0.11337433 113.66932678 -0.11329651 C114.60473801 -0.10813522 115.54014923 -0.10297394 116.50390625 -0.09765625 C117.45692123 -0.0962413 118.40993622 -0.09482635 119.39183044 -0.09336853 C122.44875165 -0.08775152 125.50560077 -0.07519616 128.5625 -0.0625 C130.62955624 -0.05748719 132.69661362 -0.05292391 134.76367188 -0.04882812 C139.84247588 -0.03777656 144.9212257 -0.02050055 150 0 C149.69001572 0.61898666 149.38003143 1.23797333 149.06065369 1.87571716 C148.0282612 3.94339832 147.01458196 6.01928741 146.00390625 8.09765625 C141.25389489 17.78685179 136.24961357 27.23430157 130.76928711 36.53076172 C128.04028357 41.16717549 125.45445171 45.81074525 123.1953125 50.69921875 C122.12832857 52.75298847 120.96969729 54.64293022 119.72265625 56.58984375 C116.60351104 61.52429486 113.9694047 66.68115709 111.3125 71.875 C110.35303127 73.74881721 109.3906873 75.62116439 108.42578125 77.4921875 C107.91080078 78.5136084 107.39582031 79.5350293 106.86523438 80.58740234 C105.46737986 83.14489061 104.04206494 85.46747711 102.41601562 87.86962891 C93.93624739 100.83925314 93.6166971 112.4296636 93.875 127.625 C93.87694701 129.90364649 93.87437151 132.1823015 93.8671875 134.4609375 C93.85115144 139.97734181 93.92732868 145.48125421 94 151 C81.46 151 68.92 151 56 151 C56.10183594 147.78765625 56.20367188 144.5753125 56.30859375 141.265625 C56.80611968 116.53877949 56.49585448 97.28201746 41.86572266 76.71191406 C39.39968622 73.12741619 37.39960223 69.35951352 35.36499023 65.51904297 C34.17919042 63.33068982 32.92709003 61.24594751 31.578125 59.15625 C28.32596169 54.05237647 25.55503839 48.68828668 22.7255249 43.34243774 C21.07127716 40.21812131 19.40714162 37.09908981 17.7421875 33.98046875 C17.41683014 33.37087814 17.09147278 32.76128754 16.7562561 32.13322449 C14.18601012 27.32698946 11.56059694 22.55511234 8.875 17.8125 C8.52348877 17.19165527 8.17197754 16.57081055 7.80981445 15.93115234 C6.32816136 13.32191103 4.8382532 10.71742107 3.34765625 8.11328125 C2.88230469 7.29214844 2.41695312 6.47101563 1.9375 5.625 C1.55464844 4.95726562 1.17179687 4.28953125 0.77734375 3.6015625 C0 2 0 2 0 0 Z " fill="#F8F8F8" transform="translate(1211,454)"/>
<path d="M0 0 C12.21 0 24.42 0 37 0 C37 38.94 37 77.88 37 118 C58.12 118 79.24 118 101 118 C101 128.89 101 139.78 101 151 C67.67 151 34.34 151 0 151 C0 101.17 0 51.34 0 0 Z " fill="#FEFEFE" transform="translate(331,454)"/>
<path d="M0 0 C9.9 0 19.8 0 30 0 C30.07549872 12.07979496 30.0506222 24.11689563 29.5625 36.1875 C29.52326416 37.20779297 29.48402832 38.22808594 29.44360352 39.27929688 C29.40162842 40.23255859 29.35965332 41.18582031 29.31640625 42.16796875 C29.27974854 43.00610107 29.24309082 43.8442334 29.20532227 44.70776367 C29 47 29 47 28 51 C19.42 51 10.84 51 2 51 C1.03362182 40.06124867 0.69031567 29.16176367 0.4375 18.1875 C0.39419001 16.41600802 0.35057233 14.64452354 0.30664062 12.87304688 C0.20032012 8.58211181 0.10028919 4.29109697 0 0 Z " fill="#E6E6E6" transform="translate(1367,443)"/>
<path d="M0 0 C12.21 0 24.42 0 37 0 C37 38.94 37 77.88 37 118 C58.12 118 79.24 118 101 118 C101 128.89 101 139.78 101 151 C67.67 151 34.34 151 0 151 C0 101.17 0 51.34 0 0 Z M2 2 C2 50.84 2 99.68 2 150 C34.01 150 66.02 150 99 150 C99 140.1 99 130.2 99 120 C77.88 120 56.76 120 35 120 C35 81.06 35 42.12 35 2 C24.11 2 13.22 2 2 2 Z " fill="#606060" transform="translate(331,454)"/>
<path d="M0 0 C15.18 0 30.36 0 46 0 C47.98 3.63 49.96 7.26 52 11 C51.67 11.66 51.34 12.32 51 13 C48 8.25 48 8.25 48 6 C47.34 6 46.68 6 46 6 C45.34 5.01 44.68 4.02 44 3 C30.14 2.67 16.28 2.34 2 2 C2 50.84 2 99.68 2 150 C12.89 150 23.78 150 35 150 C35 117.33 35 84.66 35 51 C37.73612067 53.73612067 39.18653138 55.83276164 41.0390625 59.1640625 C41.6158374 60.196521 42.1926123 61.22897949 42.78686523 62.29272461 C43.39344971 63.39237549 44.00003418 64.49202637 44.625 65.625 C45.24511963 66.74334229 45.86523926 67.86168457 46.50415039 69.01391602 C48.34297742 72.33887586 50.17257098 75.66876505 52 79 C52.51127441 79.92635254 53.02254883 80.85270508 53.54931641 81.80712891 C54.85535941 84.17866381 56.14946871 86.55614595 57.4375 88.9375 C57.8205127 89.63375488 58.20352539 90.33000977 58.59814453 91.04736328 C59.46175957 92.66617772 60.24108959 94.32953715 61 96 C60.67 96.66 60.34 97.32 60 98 C52.66175252 86.63755229 46.23186559 74.75153883 40.3125 62.59765625 C39.23670075 60.1326211 39.23670075 60.1326211 38 59 C37.67 89.36 37.34 119.72 37 151 C24.79 151 12.58 151 0 151 C0 101.17 0 51.34 0 0 Z " fill="#747474" transform="translate(757,454)"/>
<path d="M0 0 C18.5625 -0.0928125 18.5625 -0.0928125 37.5 -0.1875 C41.37427734 -0.21481201 45.24855469 -0.24212402 49.24023438 -0.27026367 C54.05566406 -0.28381348 54.05566406 -0.28381348 56.32629395 -0.28633118 C57.87645062 -0.29086898 59.42659829 -0.30127227 60.97668457 -0.31672668 C74.61329563 -0.44561372 89.08454456 -0.06151118 101.375 6.5625 C102.03145508 6.904021 102.68791016 7.24554199 103.36425781 7.59741211 C111.78845384 12.21830096 119.17355843 19.07163634 123 28 C122.505 29.485 122.505 29.485 122 31 C121.484375 30.01 120.96875 29.02 120.4375 28 C112.71976164 14.50764181 100.69081298 7.89675532 86.08856201 3.84265137 C78.56659677 2.11095 70.80788641 2.39343958 63.1328125 2.390625 C61.55849579 2.37658767 59.98419371 2.36080008 58.40991211 2.34326172 C52.64842707 2.29109112 46.88667742 2.27246983 41.125 2.25 C28.21375 2.1675 15.3025 2.085 2 2 C2 50.84 2 99.68 2 150 C12.56 150 23.12 150 34 150 C34 133.5 34 117 34 100 C41.26 100 48.52 100 56 100 C56 100.99 56 101.98 56 103 C49.4 102.67 42.8 102.34 36 102 C36 118.17 36 134.34 36 151 C24.12 151 12.24 151 0 151 C0 101.17 0 51.34 0 0 Z " fill="#969696" transform="translate(1081,454)"/>
<path d="M0 0 C12.21 0 24.42 0 37 0 C37 49.83 37 99.66 37 151 C22.15 151 7.3 151 -8 151 C-8 150.67 -8 150.34 -8 150 C6.19 150 20.38 150 35 150 C35 101.16 35 52.32 35 2 C24.11 2 13.22 2 2 2 C2 34.34 2 66.68 2 100 C1.34 100 0.68 100 0 100 C-0.47050781 99.04738281 -0.94101562 98.09476563 -1.42578125 97.11328125 C-2.05457916 95.84630039 -2.68349148 94.57937631 -3.3125 93.3125 C-3.62123047 92.68666016 -3.92996094 92.06082031 -4.24804688 91.41601562 C-5.65849518 88.58027219 -7.0978032 85.84551782 -8.79296875 83.16796875 C-9.19128906 82.45253906 -9.58960938 81.73710938 -10 81 C-9.505 80.01 -9.505 80.01 -9 79 C-8.03874097 80.41468311 -7.08111675 81.8318364 -6.125 83.25 C-5.32449219 84.43335938 -5.32449219 84.43335938 -4.5078125 85.640625 C-3 88 -3 88 -1 92 C-0.67 61.64 -0.34 31.28 0 0 Z " fill="#A9A9A9" transform="translate(855,454)"/>
<path d="M0 0 C85.15625 0 85.15625 0 99.875 8 C100.53628906 8.33 101.19757813 8.66 101.87890625 9 C105.43417673 10.84614451 107.91630464 12.54260918 110 16 C105.21882997 14.18895075 100.71743836 11.88775164 96.171875 9.56640625 C87.64137575 5.24552293 79.72399247 2.71170167 70.11523438 2.68115234 C69.36094398 2.67099909 68.60665359 2.66084583 67.82950592 2.6503849 C65.41759139 2.62004952 63.00579295 2.60268017 60.59375 2.5859375 C59.09276344 2.56897777 57.59178635 2.55115839 56.09082031 2.5324707 C50.56065526 2.46958947 45.03031184 2.42327469 39.5 2.375 C20.9375 2.189375 20.9375 2.189375 2 2 C2 50.84 2 99.68 2 150 C28.07 149.67 54.14 149.34 81 149 C81 149.33 81 149.66 81 150 C76.80218327 151.0200323 72.75005395 151.13578914 68.45581055 151.11352539 C67.32491737 151.11370619 67.32491737 151.11370619 66.17117786 151.11389065 C63.74299428 151.11314728 61.31488851 151.1055454 58.88671875 151.09765625 C57.38269081 151.09618505 55.87866235 151.09516543 54.37463379 151.09460449 C48.81224803 151.0893723 43.24987324 151.07541104 37.6875 151.0625 C25.250625 151.041875 12.81375 151.02125 0 151 C0 101.17 0 51.34 0 0 Z " fill="#868686" transform="translate(921,454)"/>
<path d="M0 0 C12.21 0 24.42 0 37 0 C37.01458252 2.86099365 37.02916504 5.7219873 37.04418945 8.66967773 C37.09461319 18.14130211 37.16122209 27.61276344 37.23571491 37.08422756 C37.28036891 42.82461063 37.31963613 48.56492353 37.34643555 54.30541992 C37.37251789 59.84930359 37.41295551 65.39291655 37.46318626 70.93663216 C37.47982159 73.04759405 37.49135657 75.15860273 37.49761391 77.2696209 C37.50729119 80.2352905 37.53539414 83.2002727 37.56762695 86.16577148 C37.56619186 87.0310849 37.56475677 87.89639832 37.5632782 88.78793335 C37.64182421 93.92569418 38.45269743 98.1702498 40.26129436 102.9863596 C40.98982603 104.97226674 41.52230534 106.94094805 42 109 C41.34 109 40.68 109 40 109 C39.35004703 107.58521865 38.70521278 106.16808513 38.0625 104.75 C37.70285156 103.96109375 37.34320312 103.1721875 36.97265625 102.359375 C35.52262141 98.8420214 34.87466333 95.75183215 34.87974548 91.95037842 C34.87837082 91.15394928 34.87699615 90.35752014 34.87557983 89.53695679 C34.88097275 88.24007431 34.88097275 88.24007431 34.88647461 86.91699219 C34.88632858 85.99957245 34.88618256 85.08215271 34.8860321 84.13693237 C34.88672834 81.10688913 34.89450725 78.07690749 34.90234375 75.046875 C34.90420896 72.94508905 34.90563238 70.84330266 34.90663147 68.74151611 C34.91044856 63.21116942 34.92027199 57.68084901 34.93133545 52.1505127 C34.94156691 46.50659541 34.94613281 40.86267388 34.95117188 35.21875 C34.96189495 24.14581993 34.97948525 13.07291626 35 2 C24.11 2 13.22 2 2 2 C2.04050722 14.87535838 2.09785708 27.75035115 2.18390274 40.62548733 C2.2232149 46.60555977 2.25548263 52.58548854 2.27099609 58.56567383 C2.2862704 64.34954153 2.32090452 70.13301378 2.36830902 75.91670418 C2.38301254 78.11036786 2.39103459 80.30408803 2.39188385 82.49780083 C2.40946959 105.17035523 4.86968817 122.05089062 21 139 C18 139 18 139 15.6875 137.0625 C-1.179539 118.97615698 -0.15868463 95.37440206 -0.09765625 72.265625 C-0.09578793 70.17527297 -0.09436598 68.0849205 -0.09336853 65.99456787 C-0.08957596 60.53009808 -0.07977402 55.06565545 -0.06866455 49.60119629 C-0.05837983 44.01017626 -0.05385587 38.41915179 -0.04882812 32.828125 C-0.0381484 21.88540289 -0.02057852 10.94270797 0 0 Z " fill="#5E5E5E" transform="translate(597,454)"/>
<path d="M0 0 C12.21 0 24.42 0 37 0 C37 49.83 37 99.66 37 151 C36.67 151 36.34 151 36 151 C36 101.5 36 52 36 1 C24.45 1 12.9 1 1 1 C1 33.34 1 65.68 1 99 C-2.13462642 95.08171697 -4.45225506 91.6702575 -6.8125 87.3125 C-7.43769531 86.17425781 -8.06289063 85.03601563 -8.70703125 83.86328125 C-9.13371094 82.91839844 -9.56039062 81.97351563 -10 81 C-9.505 80.01 -9.505 80.01 -9 79 C-8.03874097 80.41468311 -7.08111675 81.8318364 -6.125 83.25 C-5.32449219 84.43335938 -5.32449219 84.43335938 -4.5078125 85.640625 C-3 88 -3 88 -1 92 C-0.67 61.64 -0.34 31.28 0 0 Z " fill="#1F1F1F" transform="translate(855,454)"/>
<path d="M0 0 C2.73612067 2.73612067 4.18653138 4.83276164 6.0390625 8.1640625 C6.6158374 9.196521 7.1926123 10.22897949 7.78686523 11.29272461 C8.39344971 12.39237549 9.00003418 13.49202637 9.625 14.625 C10.24511963 15.74334229 10.86523926 16.86168457 11.50415039 18.01391602 C13.34297742 21.33887586 15.17257098 24.66876505 17 28 C17.51127441 28.92635254 18.02254883 29.85270508 18.54931641 30.80712891 C19.85535941 33.17866381 21.14946871 35.55614595 22.4375 37.9375 C22.8205127 38.63375488 23.20352539 39.33000977 23.59814453 40.04736328 C24.46175957 41.66617772 25.24108959 43.32953715 26 45 C25.67 45.66 25.34 46.32 25 47 C17.66175252 35.63755229 11.23186559 23.75153883 5.3125 11.59765625 C4.23670075 9.1326211 4.23670075 9.1326211 3 8 C2.67 38.36 2.34 68.72 2 100 C1.34 100 0.68 100 0 100 C0 67 0 34 0 0 Z " fill="#3D3D3D" transform="translate(792,505)"/>
<path d="M0 0 C12.54 0 25.08 0 38 0 C38.99 3.3 39.98 6.6 41 10 C44.93080154 14.99318033 49.81677205 17.7001127 56 19 C70.02288777 20.21067644 70.02288777 20.21067644 83 16 C85.28602323 13.84337431 87.2017146 11.57401635 89 9 C89.495 9.99 89.495 9.99 90 11 C87.02421181 16.45561168 83.84108858 18.87893431 78 21 C68.41048505 23.5016126 56.36009085 23.25922352 47.23828125 19.328125 C41.24101783 15.76953937 38.22936169 10.44037822 36 4 C36 3.01 36 2.02 36 1 C24.45 1 12.9 1 1 1 C2.35266372 6.79077382 2.35266372 6.79077382 3.72290039 12.57739258 C3.88781982 13.30079834 4.05273926 14.0242041 4.22265625 14.76953125 C4.48187866 15.87711792 4.48187866 15.87711792 4.74633789 17.00708008 C5 19 5 19 4 22 C-0.23660852 13.8951837 0 10.00880805 0 0 Z " fill="#222222" transform="translate(1413,557)"/>
<path d="M0 0 C0.33 0.66 0.66 1.32 1 2 C0.09130859 4.19555664 0.09130859 4.19555664 -1.3515625 6.91015625 C-1.87363281 7.90080078 -2.39570312 8.89144531 -2.93359375 9.91210938 C-3.49175781 10.95173828 -4.04992188 11.99136719 -4.625 13.0625 C-5.15996094 14.07505859 -5.69492188 15.08761719 -6.24609375 16.13085938 C-10.72096669 24.57432401 -10.72096669 24.57432401 -12.28489685 26.9601593 C-16.19847985 33.19806121 -16.73492936 38.3237521 -16.70703125 45.59765625 C-16.72215256 46.67252792 -16.73727386 47.7473996 -16.75285339 48.85484314 C-16.79553178 52.25761216 -16.80454961 55.65949066 -16.8125 59.0625 C-16.8356596 61.38218481 -16.86102795 63.70184868 -16.88867188 66.02148438 C-16.95132789 71.68099822 -16.98641943 77.34016687 -17 83 C-17.66 83 -18.32 83 -19 83 C-20.76488181 53.76832791 -22.04991171 30.22728588 -4 6 C-3.1627214 4.77050685 -2.33258344 3.53605675 -1.515625 2.29296875 C-1.01546875 1.53628906 -0.5153125 0.77960937 0 0 Z " fill="#101010" transform="translate(1322,522)"/>
<path d="M0 0 C14.85 0 29.7 0 45 0 C47.31 6.27 49.62 12.54 52 19 C52.886875 21.3821875 53.77375 23.764375 54.6875 26.21875 C55.45881608 28.31232221 56.22966541 30.40606645 57 32.5 C57.60908203 34.12228516 57.60908203 34.12228516 58.23046875 35.77734375 C58.60816406 36.80988281 58.98585938 37.84242188 59.375 38.90625 C59.88160156 40.27233398 59.88160156 40.27233398 60.3984375 41.66601562 C61 44 61 44 60 47 C57.76486141 43.54055797 56.36697118 40.3943177 55.25 36.4375 C53.47440784 30.43887784 51.50318306 24.5299707 49.4375 18.625 C49.14456055 17.78122803 48.85162109 16.93745605 48.54980469 16.06811523 C48.12103027 14.84717163 48.12103027 14.84717163 47.68359375 13.6015625 C47.43150146 12.88307129 47.17940918 12.16458008 46.91967773 11.42431641 C45.71290743 8.24320964 44.34023681 5.12721923 43 2 C29.14 1.67 15.28 1.34 1 1 C0.67 2.65 0.34 4.3 0 6 C-0.77460596 8.42907794 -1.58986456 10.84543181 -2.4375 13.25 C-2.86933594 14.49265625 -3.30117188 15.7353125 -3.74609375 17.015625 C-5 20 -5 20 -7 21 C-6.59167433 19.37288407 -6.17272272 17.74843513 -5.75 16.125 C-5.51796875 15.22007812 -5.2859375 14.31515625 -5.046875 13.3828125 C-3.63739998 8.82831486 -1.77064448 4.4266112 0 0 Z " fill="#3A3A3A" transform="translate(490,454)"/>
<path d="M0 0 C3.45868898 3.1321895 5.55976569 6.41222829 7.8203125 10.48046875 C8.16504608 11.09392654 8.50977966 11.70738434 8.86495972 12.33943176 C9.9579606 14.28533154 11.04232348 16.23583946 12.125 18.1875 C13.21524878 20.14961145 14.3074351 22.11049474 15.40646362 24.06770325 C16.39891786 25.83533652 17.38349384 27.60738623 18.36767578 29.37963867 C19.73683789 32.08621706 19.73683789 32.08621706 22 33 C22.33333333 34.33333333 22.66666667 35.66666667 23 37 C23.66 37.33 24.32 37.66 25 38 C25 39.32 25 40.64 25 42 C37.87 42 50.74 42 64 42 C63.01 40.35 62.02 38.7 61 37 C60.3125 33.6875 60.3125 33.6875 60 31 C63.28465896 33.79196011 65.01321958 37.23196817 67 41 C67 41.66 67 42.32 67 43 C60.98630798 43.24774368 54.97559855 43.42888752 48.95800781 43.54931641 C46.91288515 43.59952135 44.86811998 43.66770538 42.82421875 43.75439453 C25.89115291 44.45444832 25.89115291 44.45444832 21.50488281 41.08105469 C19.91997514 38.4395419 18.97131437 35.91848197 18 33 C17.04885236 31.33011331 16.05592486 29.68335571 15.0234375 28.0625 C11.83219731 22.74168465 8.71553589 17.37982173 5.625 12 C5.07972656 11.06027344 4.53445313 10.12054687 3.97265625 9.15234375 C3.45832031 8.25644531 2.94398437 7.36054687 2.4140625 6.4375 C1.9495166 5.63183594 1.4849707 4.82617188 1.00634766 3.99609375 C0 2 0 2 0 0 Z " fill="#9F9F9F" transform="translate(1141,562)"/>
<path d="M0 0 C0.33 0 0.66 0 1 0 C1 32.67 1 65.34 1 99 C-2.13462642 95.08171697 -4.45225506 91.6702575 -6.8125 87.3125 C-7.43769531 86.17425781 -8.06289063 85.03601563 -8.70703125 83.86328125 C-9.13371094 82.91839844 -9.56039062 81.97351563 -10 81 C-9.505 80.01 -9.505 80.01 -9 79 C-8.03874097 80.41468311 -7.08111675 81.8318364 -6.125 83.25 C-5.32449219 84.43335938 -5.32449219 84.43335938 -4.5078125 85.640625 C-3 88 -3 88 -1 92 C-0.67 61.64 -0.34 31.28 0 0 Z " fill="#000000" transform="translate(855,454)"/>
<path d="M0 0 C14.19 0 28.38 0 43 0 C57 26.6 57 26.6 57 29 C56.34 29 55.68 29 55 29 C53.5766853 26.37842464 52.16134082 23.75301395 50.75 21.125 C50.35425781 20.39796875 49.95851563 19.6709375 49.55078125 18.921875 C46.56568082 13.34316272 44.38290459 7.95726149 42 2 C22.2 1.505 22.2 1.505 2 1 C3.65 3.97 5.3 6.94 7 10 C6.67 10.66 6.34 11.32 6 12 C5.18071114 10.75443908 4.36984814 9.50333365 3.5625 8.25 C2.88380859 7.20585937 2.88380859 7.20585937 2.19140625 6.140625 C1 4 1 4 0 0 Z " fill="#414141" transform="translate(1211,454)"/>
<path d="M0 0 C6.13974318 1.86052824 10.39385296 5.40932435 13.74609375 10.81640625 C16.52849746 16.14767858 18.77860774 20.91171293 19 27 C19.04898437 27.80695312 19.09796875 28.61390625 19.1484375 29.4453125 C19.51020339 39.21299156 17.6377734 49.79960233 12 58 C9.25 60.5 9.25 60.5 7 62 C8.13083112 59.71648595 9.28796305 57.4515717 10.47265625 55.1953125 C10.99730469 54.18210937 11.52195312 53.16890625 12.0625 52.125 C12.58972656 51.11695313 13.11695313 50.10890625 13.66015625 49.0703125 C17.69770932 39.81807718 17.53640176 26.30470885 14.3125 16.75 C12.55792495 12.64354774 10.48852738 9.86238144 7 7 C6.46375 6.4225 5.9275 5.845 5.375 5.25 C3.90383382 3.74340914 3.90383382 3.74340914 1 3 C0.67 2.01 0.34 1.02 0 0 Z " fill="#383838" transform="translate(1522,529)"/>
<path d="M0 0 C4.09197134 3.38645904 5.48770918 7.0681981 7 12 C7.26453979 12.85851562 7.26453979 12.85851562 7.53442383 13.734375 C8.12561986 16.61130168 8.09439939 19.3152563 8.0625 22.25 C8.05347656 23.32765625 8.04445313 24.4053125 8.03515625 25.515625 C8.02355469 26.33546875 8.01195312 27.1553125 8 28 C2.74894558 28.02464928 -2.50207545 28.04283568 -7.75317383 28.05493164 C-9.54094021 28.05997218 -11.32870245 28.06680454 -13.11645508 28.07543945 C-15.68051168 28.0875173 -18.24451397 28.09323094 -20.80859375 28.09765625 C-22.01484657 28.10539818 -22.01484657 28.10539818 -23.24546814 28.11329651 C-25.16401715 28.11349215 -27.08245368 28.06201983 -29 28 C-30.50111351 26.49888649 -30.48018751 24.88007068 -30.875 22.8125 C-31.71253672 18.84054557 -32.99380527 15.55643611 -35 12 C-31.61571159 13.0502964 -30.97132891 14.05324631 -29.25 17.25 C-28 21 -28 21 -28 27 C-16.45 27 -4.9 27 7 27 C6.401875 23.803125 5.80375 20.60625 5.1875 17.3125 C5.00598389 16.31387939 4.82446777 15.31525879 4.63745117 14.28637695 C3.72833901 9.59426141 2.75269138 5.9988955 0 2 C0 1.34 0 0.68 0 0 Z " fill="#1D1D1D" transform="translate(1529,475)"/>
<path d="M0 0 C0.76166977 0.00222061 1.52333954 0.00444122 2.30809021 0.00672913 C3.16890701 0.00680466 4.02972382 0.00688019 4.91662598 0.00695801 C5.8520372 0.01211929 6.78744843 0.01728058 7.75120544 0.02259827 C8.70422043 0.02401321 9.65723541 0.02542816 10.63912964 0.02688599 C13.69605085 0.032503 16.75289996 0.04505836 19.80979919 0.05775452 C21.87685543 0.06276733 23.94391281 0.06733061 26.01097107 0.07142639 C31.08977507 0.08247795 36.16852489 0.09975397 41.24729919 0.12025452 C40.91729919 1.11025452 40.58729919 2.10025452 40.24729919 3.12025452 C39.75229919 2.13025452 39.75229919 2.13025452 39.24729919 1.12025452 C26.04729919 1.12025452 12.84729919 1.12025452 -0.75270081 1.12025452 C-1.08270081 2.44025452 -1.41270081 3.76025452 -1.75270081 5.12025452 C-2.69339243 7.16506822 -3.67964078 9.18914534 -4.69410706 11.19837952 C-5.27740784 12.35853577 -5.86070862 13.51869202 -6.46168518 14.71400452 C-7.07943684 15.93279856 -7.6972765 17.151548 -8.31520081 18.37025452 C-8.93731387 19.60444395 -9.55906274 20.83881704 -10.18043518 22.07337952 C-11.70094817 25.09083164 -13.2251637 28.10635382 -14.75270081 31.12025452 C-15.41270081 31.12025452 -16.07270081 31.12025452 -16.75270081 31.12025452 C-15.45864383 26.9879171 -13.90986863 23.18769653 -11.96754456 19.31947327 C-11.43709534 18.26050842 -10.90664612 17.20154358 -10.36012268 16.11048889 C-9.80904846 15.02058655 -9.25797424 13.9306842 -8.69020081 12.80775452 C-8.1352594 11.69851624 -7.58031799 10.58927795 -7.00856018 9.44642639 C-2.34003425 0.16055204 -2.34003425 0.16055204 0 0 Z " fill="#525252" transform="translate(1319.752700805664,453.87974548339844)"/>
<path d="M0 0 C0.33 0.66 0.66 1.32 1 2 C0.05957031 4.22729492 0.05957031 4.22729492 -1.421875 6.98046875 C-1.95296875 7.98013672 -2.4840625 8.97980469 -3.03125 10.00976562 C-3.5984375 11.05841797 -4.165625 12.10707031 -4.75 13.1875 C-9.71241399 22.4330969 -9.71241399 22.4330969 -14 32 C-14.33 32.66 -14.66 33.32 -15 34 C-15.99 33.67 -16.98 33.34 -18 33 C-18.66292215 31.25546802 -19.31121738 29.50452392 -19.90234375 27.734375 C-21.67262265 23.32442757 -24.0539246 19.23464141 -26.39526367 15.10498047 C-27.32096887 13.43388283 -28.16758966 11.71947389 -29 10 C-28.67 9.34 -28.34 8.68 -28 8 C-26.15984502 11.2878978 -24.32904953 14.58091326 -22.5 17.875 C-21.97535156 18.81214844 -21.45070313 19.74929688 -20.91015625 20.71484375 C-20.41386719 21.61074219 -19.91757813 22.50664062 -19.40625 23.4296875 C-18.94541016 24.25710449 -18.48457031 25.08452148 -18.00976562 25.93701172 C-17 28 -17 28 -17 30 C-16.34 30 -15.68 30 -15 30 C-14.62294922 28.75863281 -14.62294922 28.75863281 -14.23828125 27.4921875 C-12.83276877 23.52837628 -11.08545928 19.87125233 -9.1875 16.125 C-8.83365234 15.42117188 -8.47980469 14.71734375 -8.11523438 13.9921875 C-5.65430342 9.15101185 -3.01484445 4.52226667 0 0 Z " fill="#2A2A2A" transform="translate(1302,485)"/>
<path d="M0 0 C3.36462491 2.24308327 3.89344471 3.4127767 5.5625 7 C8.13905253 12.33805562 10.9096892 17.52002983 13.8125 22.6875 C17.30536214 28.9397099 20.78548164 35.19778969 24.1875 41.5 C24.58622314 42.22405029 24.98494629 42.94810059 25.39575195 43.6940918 C26.32616925 45.43074511 27.17208282 47.21220968 28 49 C27.67 49.66 27.34 50.32 27 51 C22.45583383 43.99223416 18.53599302 36.68434918 14.625 29.3125 C13.66518962 27.50993522 12.70457624 25.70780023 11.74383545 23.9057312 C11.11013962 22.71605773 10.47735917 21.52589619 9.84552002 20.3352356 C8.2368173 17.30598283 6.6137066 14.2858822 4.96386719 11.27880859 C4.63800629 10.68247116 4.31214539 10.08613373 3.97640991 9.47172546 C3.07504997 7.82477427 2.16925027 6.18025517 1.26318359 4.53588867 C0 2 0 2 0 0 Z " fill="#3D3D3D" transform="translate(1218,466)"/>
<path d="M0 0 C0.495 0.99 0.495 0.99 1 2 C-1.97578819 7.45561168 -5.15891142 9.87893431 -11 12 C-21.41249188 14.71630223 -34.52146427 14.32196473 -44 9 C-44.33 8.34 -44.66 7.68 -45 7 C-42.19935761 7.50920771 -39.58274091 8.13596083 -36.87109375 9.01953125 C-28.09869438 11.24140031 -16.25981497 11.58251358 -7.76953125 8.1328125 C-4.49193602 6.03457273 -2.20978625 3.16302738 0 0 Z " fill="#424242" transform="translate(1502,566)"/>
<path d="M0 0 C2.50991998 2.50991998 3.04634917 4.6349682 4.1875 8 C6.16274584 13.72098642 8.28325112 19.36834076 10.5 25 C12.70093725 30.63288684 14.90090401 36.26573062 17 41.9375 C17.4125 43.03964844 17.825 44.14179687 18.25 45.27734375 C19 48 19 48 18 51 C14.42943583 44.3446627 11.96702491 37.52463283 9.5625 30.375 C8.77407912 28.05837529 7.98502159 25.74196714 7.1953125 23.42578125 C6.63118652 21.76603271 6.63118652 21.76603271 6.05566406 20.07275391 C4.3706206 15.16804601 2.58427701 10.3024826 0.77734375 5.44140625 C0 3 0 3 0 0 Z " fill="#383838" transform="translate(514,498)"/>
<path d="M0 0 C10.17336676 7.31587288 13.98943205 22.08219255 16 34 C16.0793925 36.13028006 16.10775926 38.26279622 16.09765625 40.39453125 C16.09443359 41.59658203 16.09121094 42.79863281 16.08789062 44.03710938 C16.07951172 45.28298828 16.07113281 46.52886719 16.0625 47.8125 C16.05798828 49.07771484 16.05347656 50.34292969 16.04882812 51.64648438 C16.03706251 54.7643711 16.02062272 57.88216133 16 61 C15.67 61 15.34 61 15 61 C14.9906543 60.35675781 14.98130859 59.71351563 14.97167969 59.05078125 C14.73154848 45.84827307 14.13400422 33.60797727 10 21 C9.68933594 20.04996094 9.37867188 19.09992188 9.05859375 18.12109375 C7.12499842 12.8219099 4.46831445 8.38182201 1.171875 3.8125 C0 2 0 2 0 0 Z " fill="#353535" transform="translate(1043,482)"/>
<path d="M0 0 C15.52328821 0.60051405 28.36125812 6.4859948 39.078125 17.75390625 C41.62627403 20.73192594 43.41942723 23.40778915 45 27 C44.505 28.485 44.505 28.485 44 30 C43.484375 29.01 42.96875 28.02 42.4375 27 C34.68654578 13.44957294 22.97654187 7.17545414 8.375 3.1875 C5.5871574 2.44164306 2.79582084 1.71570577 0 1 C0 0.67 0 0.34 0 0 Z " fill="#363636" transform="translate(1159,455)"/>
<path d="M0 0 C0.33 0.66 0.66 1.32 1 2 C0.19897461 3.99609375 0.19897461 3.99609375 -1.09765625 6.4375 C-1.57009766 7.33339844 -2.04253906 8.22929687 -2.52929688 9.15234375 C-3.03525391 10.09207031 -3.54121094 11.03179687 -4.0625 12 C-4.54138672 12.90878906 -5.02027344 13.81757813 -5.51367188 14.75390625 C-8.4142426 20.21334727 -11.49330346 25.53012666 -14.70336914 30.8125 C-16.64809478 34.09337775 -18.23108207 37.50874182 -19.82421875 40.96875 C-21 43 -21 43 -24 45 C-22.70285867 40.79849153 -21.10717854 37.05280483 -19.0234375 33.18359375 C-18.43836426 32.09481934 -17.85329102 31.00604492 -17.25048828 29.88427734 C-16.32212158 28.17812256 -16.32212158 28.17812256 -15.375 26.4375 C-14.74706543 25.27686035 -14.11913086 24.1162207 -13.47216797 22.92041016 C-9.2243106 15.11788793 -4.85190477 7.44360545 0 0 Z " fill="#3F3F3F" transform="translate(1354,464)"/>
<path d="M0 0 C2.71499506 2.71499506 3.7444795 5.9267505 5.125 9.4375 C5.40214844 10.11876953 5.67929687 10.80003906 5.96484375 11.50195312 C7.14842926 14.47840831 8 16.76799028 8 20 C19.22 20 30.44 20 42 20 C41.505 16.535 41.505 16.535 41 13 C43 16 43 16 45 21 C32.46 21 19.92 21 7 21 C1.375 7.5 1.375 7.5 0 0 Z " fill="#747474" transform="translate(545,584)"/>
<path d="M0 0 C7.21438724 -0.25313639 7.21438724 -0.25313639 11.10351562 1 C15.35306317 2.2392229 19.37768761 2.25404984 23.77734375 2.1953125 C24.99436729 2.19106766 24.99436729 2.19106766 26.23597717 2.18673706 C28.80330753 2.17562663 31.37027678 2.15053971 33.9375 2.125 C35.68814597 2.11495836 37.43879746 2.10583459 39.18945312 2.09765625 C43.45977254 2.07571734 47.72982525 2.0412516 52 2 C52 2.33 52 2.66 52 3 C39.64869759 4.60480959 28.23202133 5.42008043 15.8125 4.125 C15.05138916 4.04668945 14.29027832 3.96837891 13.50610352 3.88769531 C8.8130686 3.35287068 4.50598028 2.42042822 0 1 C0 0.67 0 0.34 0 0 Z " fill="#828282" transform="translate(634,603)"/>
<path d="M0 0 C3.65816774 3.24267593 5.81275044 6.9315769 8.0390625 11.21484375 C8.58945694 12.25397667 8.58945694 12.25397667 9.15097046 13.31410217 C9.92244566 14.7739139 10.6904191 16.235581 11.45507812 17.69897461 C12.6212774 19.93037718 13.79790846 22.15601471 14.9765625 24.38085938 C15.7271787 25.80436275 16.47719883 27.22818062 17.2265625 28.65234375 C17.75003769 29.64475319 17.75003769 29.64475319 18.28408813 30.6572113 C20.05108378 34.04431996 21.65995662 37.42127072 23 41 C17.38730414 36.35067731 14.71675512 30.17604678 11.5 23.75 C10.38656276 21.55670947 9.2719977 19.36399108 8.15625 17.171875 C7.62644531 16.12451172 7.09664062 15.07714844 6.55078125 13.99804688 C4.74884781 10.51446019 2.83683307 7.10577896 0.86523438 3.71582031 C0 2 0 2 0 0 Z " fill="#3A3A3A" transform="translate(824,563)"/>
<path d="M0 0 C0.33 0 0.66 0 1 0 C1.08975098 0.54301758 1.17950195 1.08603516 1.27197266 1.64550781 C4.06790509 18.10077142 7.94342683 29.88984206 20 42 C17 42 17 42 14.6875 40.0625 C4.31668848 28.94199126 -0.47713122 15.02963346 0 0 Z " fill="#4D4D4D" transform="translate(598,551)"/>
<path d="M0 0 C4.36702714 4.81734408 7.01294901 10.50312952 9.9375 16.25 C10.96628418 18.25580564 11.99621795 20.26102211 13.02734375 22.265625 C13.52089355 23.23048828 14.01444336 24.19535156 14.52294922 25.18945312 C16.31784122 28.60479142 18.24146914 31.93535608 20.21704102 35.24902344 C20.47541748 35.8268457 20.73379395 36.40466797 21 37 C20.67 37.66 20.34 38.32 20 39 C0 8.03225806 0 8.03225806 0 0 Z " fill="#3D3D3D" transform="translate(797,513)"/>
<path d="M0 0 C0.66 0.33 1.32 0.66 2 1 C2 1.99 2 2.98 2 4 C2.66 4 3.32 4 4 4 C4.08160748 5.89510699 4.13946459 7.79124504 4.1875 9.6875 C4.23970703 11.27111328 4.23970703 11.27111328 4.29296875 12.88671875 C3.82925384 17.8144625 1.47788956 20.93846181 -2.1875 24.125 C-7.98203546 28.85822054 -13.6030217 30.46231114 -21 30 C-21 29.67 -21 29.34 -21 29 C-20.20335937 28.82984375 -19.40671875 28.6596875 -18.5859375 28.484375 C-11.13214965 26.77961574 -5.69655483 25.27959371 -0.6875 19.1875 C2.86580689 12.4756981 1.92240591 7.00645459 0 0 Z " fill="#424242" transform="translate(1167,497)"/>
<path d="M0 0 C0.33 0.66 0.66 1.32 1 2 C0.09130859 4.19555664 0.09130859 4.19555664 -1.3515625 6.91015625 C-1.87363281 7.90080078 -2.39570312 8.89144531 -2.93359375 9.91210938 C-3.49175781 10.95173828 -4.04992188 11.99136719 -4.625 13.0625 C-5.15996094 14.07505859 -5.69492188 15.08761719 -6.24609375 16.13085938 C-9.4245224 22.12811343 -12.67741825 28.08147635 -16 34 C-16.66 34 -17.32 34 -18 34 C-16.31873697 27.85612522 -13.18734707 22.5371935 -10.125 17 C-9.59519531 16.02804687 -9.06539062 15.05609375 -8.51953125 14.0546875 C-5.86583018 9.22139572 -3.16061939 4.51953304 0 0 Z " fill="#3B3B3B" transform="translate(1322,522)"/>
<path d="M0 0 C3.43698531 3.12853178 5.61264977 6.42610801 7.92578125 10.4453125 C8.45355415 11.36194168 8.45355415 11.36194168 8.99198914 12.29708862 C9.72876252 13.58114098 10.46225933 14.86707843 11.19262695 16.15478516 C12.31629099 18.13166957 13.45528306 20.09915102 14.59570312 22.06640625 C15.31083393 23.31717244 16.02505939 24.5684568 16.73828125 25.8203125 C17.38837158 26.95742676 18.03846191 28.09454102 18.70825195 29.26611328 C19.13452881 30.1682959 19.56080566 31.07047852 20 32 C19.67 32.66 19.34 33.32 19 34 C13.30008695 26.07573064 8.75916326 17.49717596 4.08837891 8.94726562 C3.16760321 7.29986613 2.18940557 5.68476218 1.19921875 4.078125 C0 2 0 2 0 0 Z " fill="#343434" transform="translate(1141,562)"/>
<path d="M0 0 C0.33 0 0.66 0 1 0 C0.40410907 10.72603681 -4.27623158 17.84952473 -11.81640625 25.28515625 C-13.97017522 26.97657768 -15.3237205 27.60553704 -18 28 C-16.948125 26.9790625 -16.948125 26.9790625 -15.875 25.9375 C-10.28618547 20.45685811 -10.28618547 20.45685811 -6 14 C-5.34 14 -4.68 14 -4 14 C-3.896875 13.175 -3.79375 12.35 -3.6875 11.5 C-2.88353944 7.40710988 -1.53647842 3.87459775 0 0 Z " fill="#3F3F3F" transform="translate(1205,516)"/>
<path d="M0 0 C1 2 1 2 0.19555664 4.88916016 C-0.22862549 6.09362793 -0.65280762 7.2980957 -1.08984375 8.5390625 C-1.42490685 9.50034561 -1.42490685 9.50034561 -1.76673889 10.48104858 C-2.48329183 12.5315779 -3.2102492 14.57824339 -3.9375 16.625 C-4.42451674 18.01277937 -4.91085369 19.4007975 -5.39648438 20.7890625 C-6.5897743 24.1955163 -7.79242355 27.59858074 -9 31 C-9.66 31 -10.32 31 -11 31 C-10.33379927 27.19637752 -9.27639337 23.70931458 -7.96875 20.078125 C-7.57042969 18.97082031 -7.17210937 17.86351562 -6.76171875 16.72265625 C-6.34535156 15.57667969 -5.92898438 14.43070313 -5.5 13.25 C-5.08363281 12.08855469 -4.66726563 10.92710937 -4.23828125 9.73046875 C-1.13006525 1.13006525 -1.13006525 1.13006525 0 0 Z " fill="#2A2A2A" transform="translate(446,574)"/>
<path d="M0 0 C6.6460287 -0.29711658 12.43716463 0.77899067 18.875 2.375 C19.82375 2.59671875 20.7725 2.8184375 21.75 3.046875 C28.73948543 4.73948543 28.73948543 4.73948543 31 7 C23.75229032 6.48089929 16.91609716 5.20271888 9.875 3.4375 C8.91851563 3.20353516 7.96203125 2.96957031 6.9765625 2.72851562 C4.64948012 2.15838044 2.32410068 1.58214777 0 1 C0 0.67 0 0.34 0 0 Z " fill="#616161" transform="translate(1446,539)"/>
<path d="M0 0 C10.92364457 0.80915886 18.74992071 4.90572892 27 12 C26.67 12.66 26.34 13.32 26 14 C25.26394531 13.52949219 24.52789063 13.05898438 23.76953125 12.57421875 C22.79371094 11.95160156 21.81789063 11.32898438 20.8125 10.6875 C19.84957031 10.07261719 18.88664062 9.45773437 17.89453125 8.82421875 C16.93933594 8.22222656 15.98414063 7.62023437 15 7 C14.1646875 6.46375 13.329375 5.9275 12.46875 5.375 C9.90030911 3.94447596 7.51363781 3.10381859 4.6875 2.3125 C3.80449219 2.06113281 2.92148438 1.80976563 2.01171875 1.55078125 C1.34785156 1.36902344 0.68398437 1.18726563 0 1 C0 0.67 0 0.34 0 0 Z " fill="#393939" transform="translate(1497,454)"/>
<path d="M0 0 C-1.05058594 0.35191406 -2.10117188 0.70382812 -3.18359375 1.06640625 C-11.5704304 3.97757266 -18.34515407 6.94614235 -25 13 C-26.010625 13.804375 -27.02125 14.60875 -28.0625 15.4375 C-28.701875 15.953125 -29.34125 16.46875 -30 17 C-26.87319753 9.32512121 -19.45028216 4.95393275 -12.1796875 1.76171875 C-3.96355729 -1.42613977 -3.96355729 -1.42613977 0 0 Z " fill="#2C2C2C" transform="translate(1455,455)"/>
<path d="M0 0 C0.33 0.66 0.66 1.32 1 2 C-3.01069551 11.54927502 -9.32475377 17.67011016 -18 23 C-18.66 22.67 -19.32 22.34 -20 22 C-19.27554688 21.443125 -18.55109375 20.88625 -17.8046875 20.3125 C-10.20102077 14.31067239 -4.74197415 8.43017626 0 0 Z " fill="#2E2E2E" transform="translate(722,576)"/>
<path d="M0 0 C5.7385979 8.60789684 4.10454827 21.17847618 3 31 C2.67 31 2.34 31 2 31 C1.66080904 27.33385091 1.32971919 23.6670121 1 20 C0.90460938 18.97003906 0.80921875 17.94007813 0.7109375 16.87890625 C0.20678649 11.22521274 -0.109151 5.67585202 0 0 Z " fill="#686868" transform="translate(1204,485)"/>
<path d="M0 0 C0 3 0 3 -1.65234375 4.8671875 C-6.60868153 9.22198685 -11.72198174 13.69301739 -18 16 C-18.99 15.67 -19.98 15.34 -21 15 C-20.07058594 14.41992188 -19.14117188 13.83984375 -18.18359375 13.2421875 C-11.74268763 9.185095 -5.59861585 5.19871472 0 0 Z " fill="#2E2E2E" transform="translate(1038,582)"/>
<path d="M0 0 C0.50789063 0.38671875 1.01578125 0.7734375 1.5390625 1.171875 C10.53600302 8.03734133 10.53600302 8.03734133 21 12 C21 12.66 21 13.32 21 14 C13.72217978 13.61695683 7.0466996 9.20068679 1.875 4.25 C0 2 0 2 0 0 Z " fill="#2F2F2F" transform="translate(1425,525)"/>
<path d="M0 0 C3.12038083 3.67956412 5.48019088 7.43403291 7.75 11.6875 C8.36359375 12.82574219 8.9771875 13.96398437 9.609375 15.13671875 C11 18 11 18 11 20 C10.34 20 9.68 20 9 20 C7.2734375 17.515625 7.2734375 17.515625 5.375 14.25 C4.74335937 13.18265625 4.11171875 12.1153125 3.4609375 11.015625 C2 8 2 8 2 4 C1.34 4 0.68 4 0 4 C0 2.68 0 1.36 0 0 Z " fill="#525252" transform="translate(826,498)"/>
<path d="M0 0 C2.44358168 3.66537252 3.72189872 7.36872864 5.1875 11.5 C5.47302734 12.27214844 5.75855469 13.04429687 6.05273438 13.83984375 C6.31763672 14.58363281 6.58253906 15.32742188 6.85546875 16.09375 C7.09934326 16.77115234 7.34321777 17.44855469 7.59448242 18.14648438 C8 20 8 20 7 23 C4.58081194 19.28457077 3.10413964 15.73618211 1.8125 11.5 C1.46832031 10.3965625 1.12414062 9.293125 0.76953125 8.15625 C0.0682922 5.28010201 -0.15905366 2.93975047 0 0 Z " fill="#474747" transform="translate(543,478)"/>
<path d="M0 0 C3.05108777 2.83268019 5.13263455 5.63681756 7.1875 9.25 C8.09968326 10.84805269 9.03013646 12.43628155 10 14 C10.33 14 10.66 14 11 14 C11 15.98 11 17.96 11 20 C7.87961917 16.32043588 5.51980912 12.56596709 3.25 8.3125 C2.63640625 7.17425781 2.0228125 6.03601563 1.390625 4.86328125 C0 2 0 2 0 0 Z " fill="#1E1E1E" transform="translate(845,533)"/>
<path d="M0 0 C7.98209379 0.30878506 14.63102439 1.93553239 22 5 C22 5.66 22 6.32 22 7 C14.66666667 5 7.33333333 3 0 1 C0 0.67 0 0.34 0 0 Z " fill="#444444" transform="translate(1159,455)"/>
<path d="M0 0 C0.33 0.66 0.66 1.32 1 2 C-1.9607451 7.42803268 -5.12577101 9.97600823 -11 12 C-14 12.25 -14 12.25 -16 12 C-15.67 11.34 -15.34 10.68 -15 10 C-13.62070406 9.54991396 -12.22019291 9.16383374 -10.8125 8.8125 C-5.59994132 7.21375996 -3.06290642 4.38416017 0 0 Z " fill="#242424" transform="translate(1502,566)"/>
<path d="M0 0 C7.34918342 -0.43230491 13.90215087 1.18225815 21 3 C21 3.33 21 3.66 21 4 C13.65081658 4.43230491 7.09784913 2.81774185 0 1 C0 0.67 0 0.34 0 0 Z " fill="#6E6E6E" transform="translate(634,603)"/>
<path d="M0 0 C0.97378856 2.59676951 1.07793264 3.76842873 0.1796875 6.4375 C-2.29052926 11.28918321 -4.25013256 15.01436904 -9 18 C-6 12 -3 6 0 0 Z " fill="#2B2B2B" transform="translate(1538,573)"/>
<path d="M0 0 C0.66 0.33 1.32 0.66 2 1 C-2.95 3.475 -2.95 3.475 -8 6 C-7.34 8.31 -6.68 10.62 -6 13 C-6.66 13 -7.32 13 -8 13 C-11 7.25 -11 7.25 -11 5 C-9.21289414 4.13633178 -7.4201535 3.28431406 -5.625 2.4375 C-4.62726563 1.96183594 -3.62953125 1.48617187 -2.6015625 0.99609375 C-1.74304687 0.66738281 -0.88453125 0.33867188 0 0 Z " fill="#585858" transform="translate(1185,544)"/>
<path d="M0 0 C5.64220877 2.49136491 9.10689355 6.76723388 11.375 12.4375 C11.58125 13.283125 11.7875 14.12875 12 15 C9.00399379 12.10521022 6.34721951 9.06864371 3.75 5.8125 C3.04359375 4.93207031 2.3371875 4.05164063 1.609375 3.14453125 C0 1 0 1 0 0 Z " fill="#202020" transform="translate(1006,496)"/>
<path d="M0 0 C3 1 3 1 4.16796875 2.77734375 C4.50441406 3.49019531 4.84085938 4.20304688 5.1875 4.9375 C5.70376953 6.00291016 5.70376953 6.00291016 6.23046875 7.08984375 C7 9 7 9 7 11 C6.34 11 5.68 11 5 11 C4.16151196 9.54462432 3.32936066 8.08559627 2.5 6.625 C1.80390625 5.40683594 1.80390625 5.40683594 1.09375 4.1640625 C0 2 0 2 0 0 Z " fill="#313131" transform="translate(804,528)"/>
<path d="M0 0 C0.66 0 1.32 0 2 0 C0.72278474 4.99275057 -1.17330957 7.57611908 -5 11 C-3.78065514 6.96678237 -2.44045073 3.45730521 0 0 Z " fill="#272727" transform="translate(1335,498)"/>
<path d="M0 0 C2.61500768 2.36595933 4.38999603 4.86049226 6 8 C5.67 8.66 5.34 9.32 5 10 C1.32769295 6.92000054 0.43197635 4.7517398 0 0 Z " fill="#4A4A4A" transform="translate(1201,593)"/>
<path d="M0 0 C-1 3 -1 3 -3.875 4.75 C-7 6 -7 6 -10 5 C-8.71186658 4.16121545 -7.41936744 3.32913217 -6.125 2.5 C-5.40570312 2.0359375 -4.68640625 1.571875 -3.9453125 1.09375 C-2 0 -2 0 0 0 Z " fill="#343434" transform="translate(1027,592)"/>
<path d="M0 0 C4.2742558 1.5830577 6.26531794 4.50568404 9 8 C4.12314139 6.64531705 2.51407619 4.28324091 0 0 Z " fill="#1F1F1F" transform="translate(609,586)"/>
<path d="M0 0 C0.33 0.66 0.66 1.32 1 2 C0.00390625 4.1640625 0.00390625 4.1640625 -1.4375 6.625 C-1.91058594 7.44226563 -2.38367188 8.25953125 -2.87109375 9.1015625 C-3.24363281 9.72804688 -3.61617187 10.35453125 -4 11 C-4.66 11 -5.32 11 -6 11 C-4.18690997 7.22272911 -2.0926741 3.62730178 0 0 Z " fill="#404040" transform="translate(722,576)"/>
<path d="M0 0 C4 2 4 2 5.25 5.125 C5.4975 6.07375 5.745 7.0225 6 8 C5.34 8 4.68 8 4 8 C2.68 5.36 1.36 2.72 0 0 Z " fill="#363636" transform="translate(1494,487)"/>
</svg>
