<?xml version="1.0" encoding="UTF-8"?>
<svg version="1.1" xmlns="http://www.w3.org/2000/svg" width="1920" height="1080">
<path d="M0 0 C1.10330245 -0.00297112 2.2066049 -0.00594224 3.34334075 -0.0090034 C7.04179825 -0.01767767 10.74022333 -0.01919758 14.43869019 -0.02069092 C17.09002331 -0.02532001 19.74135352 -0.0303244 22.39268494 -0.03573608 C29.59744937 -0.04929765 36.80220821 -0.05534083 44.00698328 -0.05974674 C48.50943653 -0.06251304 53.01188764 -0.06675112 57.51433945 -0.07125092 C69.99092283 -0.08344111 82.4675045 -0.09374068 94.9440937 -0.09712601 C96.14108347 -0.09745536 96.14108347 -0.09745536 97.36225485 -0.09779136 C98.16211164 -0.09800964 98.96196844 -0.09822791 99.78606331 -0.09845281 C101.40676316 -0.09889627 103.027463 -0.09934283 104.64816284 -0.09979248 C105.45207871 -0.10001391 106.25599458 -0.10023534 107.08427154 -0.10046348 C120.10262674 -0.10440921 133.1209259 -0.12185746 146.13925947 -0.145152 C159.51885642 -0.16889885 172.89842528 -0.18132939 186.27804363 -0.18249393 C193.78457689 -0.18340885 201.29103712 -0.18911502 208.7975502 -0.20731354 C215.19109045 -0.22275964 221.5845351 -0.22780854 227.97809048 -0.21957543 C231.23632992 -0.2156847 234.49433808 -0.21817307 237.75256157 -0.23063278 C241.29524696 -0.24338228 244.83744441 -0.23745867 248.38012695 -0.22705078 C249.39552713 -0.23510719 250.4109273 -0.24316359 251.45709717 -0.25146413 C266.66661291 -0.14751359 280.12405855 4.90959791 292.0710144 14.14044189 C293.10548706 14.90807861 293.10548706 14.90807861 294.16085815 15.69122314 C307.2910062 26.16934129 314.48867096 42.25712665 316.79248095 58.5499866 C317.83308539 68.22795956 317.48421575 78.06055635 317.459198 87.77935791 C317.46326955 90.44701191 317.46850756 93.11464103 317.47512817 95.7822876 C317.48838357 102.24085553 317.4856248 108.69931817 317.47689025 115.15789003 C317.47008214 120.41196466 317.46921041 125.66601003 317.4724617 130.92008781 C317.4729214 131.67126275 317.4733811 132.42243769 317.47385473 133.1963755 C317.47481402 134.72292599 317.47578666 136.24947648 317.4767725 137.77602696 C317.48530223 152.0495054 317.47553007 166.32292579 317.4593714 180.59639471 C317.44596767 192.81414975 317.44830146 205.03181925 317.46212769 217.24957275 C317.47822165 231.47767715 317.48448136 245.70573085 317.47529089 259.93384308 C317.47433536 261.45409929 317.47339225 262.97435551 317.4724617 264.49461174 C317.47199887 265.24238336 317.47153605 265.99015498 317.4710592 266.76058634 C317.46848093 272.00208616 317.47281497 277.24355351 317.47990036 282.48504829 C317.48835802 288.88156824 317.48594625 295.2779779 317.47005813 301.67448539 C317.46223268 304.93112995 317.46062964 308.18755571 317.46900558 311.44420433 C317.52857864 336.97115308 315.04849173 357.36308546 296.8835144 376.82794189 C282.72803831 390.35428571 265.41658706 395.29746076 246.26301575 395.28088379 C245.18477132 395.28385491 244.10652689 395.28682603 242.99560839 395.28988719 C239.38784194 395.29854858 235.78010878 395.30008028 232.17233276 395.30157471 C229.58321055 395.30620472 226.99408901 395.31122963 224.40496826 395.31661987 C217.37367699 395.33017188 210.34239144 395.33622317 203.31108928 395.34063053 C198.9153187 395.34339855 194.5195503 395.34763695 190.1237812 395.3521347 C177.93796775 395.36432383 165.75215604 395.37462349 153.56633663 395.3780098 C152.78718737 395.37822936 152.0080381 395.37844893 151.20527825 395.37867515 C150.42433017 395.37889343 149.64338208 395.3791117 148.8387689 395.3793366 C147.25643472 395.37978005 145.67410054 395.38022661 144.09176636 395.38067627 C143.3068843 395.3808977 142.52200224 395.38111913 141.71333588 395.38134727 C129.00678799 395.38529194 116.30029757 395.40273744 103.59377187 395.42603579 C90.528277 395.44979766 77.46281091 395.46221386 64.3972941 395.46337771 C57.06956351 395.46429182 49.74190779 395.46997707 42.41419792 395.48819733 C35.51703929 395.50528734 28.62002447 395.50681492 21.7228508 395.49805832 C19.19861915 395.49728997 16.67437977 395.50160389 14.15016747 395.51151657 C-10.4539705 395.60243165 -30.48834426 392.86838991 -49.1789856 375.32794189 C-63.82124916 359.9969829 -68.08692547 341.38099098 -68.06942749 320.91557312 C-68.07239861 319.81661321 -68.07536973 318.7176533 -68.07843089 317.58539158 C-68.08707138 313.91940769 -68.08862219 310.25345663 -68.09011841 306.58746338 C-68.09474988 303.95202992 -68.09975494 301.31659936 -68.10516357 298.6811676 C-68.11869918 291.5320956 -68.12476413 284.38302924 -68.12917423 277.23394656 C-68.13194472 272.76277025 -68.13618351 268.29159608 -68.14067841 263.82042122 C-68.15286478 251.42007172 -68.16316537 239.01972391 -68.1665535 226.61936855 C-68.16677306 225.8269546 -68.16699263 225.03454064 -68.16721885 224.21811414 C-68.16743713 223.42389843 -68.1676554 222.62968273 -68.1678803 221.81139988 C-68.16832375 220.20224917 -68.16877031 218.59309846 -68.16921997 216.98394775 C-68.1694414 216.18576825 -68.16966283 215.38758874 -68.16989097 214.56522197 C-68.17383563 201.64352418 -68.19128235 188.72188288 -68.21457949 175.80020689 C-68.23835245 162.50637659 -68.25075804 149.21257457 -68.25192142 135.91872269 C-68.25283483 128.46576197 -68.25850269 121.01287491 -68.27674103 113.55993462 C-68.29222251 107.21159655 -68.29721543 100.86335491 -68.28900293 94.51500153 C-68.28512466 91.28257368 -68.28755421 88.05037795 -68.30006027 84.81796646 C-68.38197633 62.31375537 -67.26112782 42.59508795 -52.9289856 24.14044189 C-52.46879028 23.51524658 -52.00859497 22.89005127 -51.53445435 22.24591064 C-39.12156297 6.39890523 -19.31784017 -0.01627024 0 0 Z " fill="#5865F3" transform="translate(790.9289855957031,374.85955810546875)"/>
<path d="M0 0 C1.66869141 0.08894531 1.66869141 0.08894531 3.37109375 0.1796875 C21.95218637 2.29293243 38.94572823 14.39297458 51 28 C58 36.95698925 58 36.95698925 58 40 C59.40185547 39.45859375 59.40185547 39.45859375 60.83203125 38.90625 C77.74131695 32.77349551 94.38460037 33.20508865 111.01953125 40.28515625 C117.98095724 43.78047363 123.50251568 48.53170586 129 54 C129.55300781 54.51820313 130.10601563 55.03640625 130.67578125 55.5703125 C138.23689619 63.35561145 144.27432427 76.20750353 145 87 C145.09152344 88.26199219 145.18304687 89.52398438 145.27734375 90.82421875 C146.06516552 107.29426076 140.95932085 122.78218925 130.4375 135.625 C118.3793225 148.44112009 102.41564948 155.57850015 84.87874222 156.19210434 C79.99773899 156.29820019 75.11678586 156.29366958 70.23486328 156.29052734 C68.36420425 156.29652234 66.49354768 156.3033301 64.62289429 156.31088257 C59.57322573 156.32844771 54.52362509 156.33323383 49.47392893 156.33451414 C46.31183458 156.33594133 43.1497572 156.34022155 39.98766708 156.34550858 C28.93594019 156.36397519 17.88426134 156.37218314 6.83251953 156.37060547 C-3.4376532 156.36940395 -13.70761582 156.39051706 -23.9777354 156.4220928 C-32.8239928 156.44831298 -41.67018178 156.45897041 -50.5164777 156.45769465 C-55.78737557 156.45718685 -61.05808633 156.46276956 -66.32894516 156.48405075 C-71.28839218 156.50353104 -76.24747541 156.50349113 -81.20693588 156.48901749 C-83.01681047 156.48694062 -84.82670845 156.49156257 -86.63654327 156.5037384 C-107.19599567 156.63299209 -124.71954224 151.52702995 -140 137 C-152.74335443 123.54990841 -158.6090736 106.89652716 -158.26953125 88.6171875 C-157.58077357 72.40593521 -150.72459813 57.9977331 -139.5390625 46.3125 C-131.41358581 38.91206585 -122.43309272 33.53211389 -112 30 C-110.93458984 29.63261719 -110.93458984 29.63261719 -109.84765625 29.2578125 C-97.21863856 25.71877875 -84.09339074 27.70694211 -72 32 C-71.72929688 31.41605469 -71.45859375 30.83210937 -71.1796875 30.23046875 C-63.87125604 16.41220926 -47.41230741 7.70849305 -33.29296875 2.6796875 C-22.35018865 -0.67062887 -11.34088962 -0.61354334 0 0 Z " fill="#FEFEFE" transform="translate(922,490)"/>
<path d="M0 0 C0.66 0.33 1.32 0.66 2 1 C-2.62 5.62 -7.24 10.24 -12 15 C-12 10.09687565 -8.29800369 7.38658643 -5 4 C-3.37458956 2.61667196 -1.72614587 1.25537882 0 0 Z " fill="#3B44A5" transform="translate(749,388)"/>
</svg>
